G04 #@! TF.GenerationSoftware,KiCad,Pcbnew,5.1.6-c6e7f7d~87~ubuntu18.04.1*
G04 #@! TF.CreationDate,2020-08-29T00:17:55+02:00*
G04 #@! TF.ProjectId,pheromone,70686572-6f6d-46f6-9e65-2e6b69636164,rev?*
G04 #@! TF.SameCoordinates,Original*
G04 #@! TF.FileFunction,Legend,Bot*
G04 #@! TF.FilePolarity,Positive*
%FSLAX46Y46*%
G04 Gerber Fmt 4.6, Leading zero omitted, Abs format (unit mm)*
G04 Created by KiCad (PCBNEW 5.1.6-c6e7f7d~87~ubuntu18.04.1) date 2020-08-29 00:17:55*
%MOMM*%
%LPD*%
G01*
G04 APERTURE LIST*
%ADD10C,0.100000*%
%ADD11C,0.150000*%
%ADD12C,0.300000*%
%ADD13C,0.400000*%
%ADD14C,0.120000*%
G04 APERTURE END LIST*
D10*
D11*
X299989000Y-253002200D02*
X299989000Y-285002200D01*
X407989000Y-285002200D01*
X407989000Y-253002200D01*
X299989000Y-253002200D01*
D10*
D11*
X10000000Y-10000000D02*
X10000000Y-287002200D01*
X409989000Y-287002200D01*
X409989000Y-10000000D01*
X10000000Y-10000000D01*
D10*
D11*
X12000000Y-12000000D02*
X12000000Y-285002200D01*
X407989000Y-285002200D01*
X407989000Y-12000000D01*
X12000000Y-12000000D01*
D10*
D11*
X60000000Y-12000000D02*
X60000000Y-10000000D01*
D10*
D11*
X110000000Y-12000000D02*
X110000000Y-10000000D01*
D10*
D11*
X160000000Y-12000000D02*
X160000000Y-10000000D01*
D10*
D11*
X210000000Y-12000000D02*
X210000000Y-10000000D01*
D10*
D11*
X260000000Y-12000000D02*
X260000000Y-10000000D01*
D10*
D11*
X310000000Y-12000000D02*
X310000000Y-10000000D01*
D10*
D11*
X360000000Y-12000000D02*
X360000000Y-10000000D01*
D10*
D11*
X36065476Y-11588095D02*
X35322619Y-11588095D01*
X35694047Y-11588095D02*
X35694047Y-10288095D01*
X35570238Y-10473809D01*
X35446428Y-10597619D01*
X35322619Y-10659523D01*
D10*
D11*
X85322619Y-10411904D02*
X85384523Y-10350000D01*
X85508333Y-10288095D01*
X85817857Y-10288095D01*
X85941666Y-10350000D01*
X86003571Y-10411904D01*
X86065476Y-10535714D01*
X86065476Y-10659523D01*
X86003571Y-10845238D01*
X85260714Y-11588095D01*
X86065476Y-11588095D01*
D10*
D11*
X135260714Y-10288095D02*
X136065476Y-10288095D01*
X135632142Y-10783333D01*
X135817857Y-10783333D01*
X135941666Y-10845238D01*
X136003571Y-10907142D01*
X136065476Y-11030952D01*
X136065476Y-11340476D01*
X136003571Y-11464285D01*
X135941666Y-11526190D01*
X135817857Y-11588095D01*
X135446428Y-11588095D01*
X135322619Y-11526190D01*
X135260714Y-11464285D01*
D10*
D11*
X185941666Y-10721428D02*
X185941666Y-11588095D01*
X185632142Y-10226190D02*
X185322619Y-11154761D01*
X186127380Y-11154761D01*
D10*
D11*
X236003571Y-10288095D02*
X235384523Y-10288095D01*
X235322619Y-10907142D01*
X235384523Y-10845238D01*
X235508333Y-10783333D01*
X235817857Y-10783333D01*
X235941666Y-10845238D01*
X236003571Y-10907142D01*
X236065476Y-11030952D01*
X236065476Y-11340476D01*
X236003571Y-11464285D01*
X235941666Y-11526190D01*
X235817857Y-11588095D01*
X235508333Y-11588095D01*
X235384523Y-11526190D01*
X235322619Y-11464285D01*
D10*
D11*
X285941666Y-10288095D02*
X285694047Y-10288095D01*
X285570238Y-10350000D01*
X285508333Y-10411904D01*
X285384523Y-10597619D01*
X285322619Y-10845238D01*
X285322619Y-11340476D01*
X285384523Y-11464285D01*
X285446428Y-11526190D01*
X285570238Y-11588095D01*
X285817857Y-11588095D01*
X285941666Y-11526190D01*
X286003571Y-11464285D01*
X286065476Y-11340476D01*
X286065476Y-11030952D01*
X286003571Y-10907142D01*
X285941666Y-10845238D01*
X285817857Y-10783333D01*
X285570238Y-10783333D01*
X285446428Y-10845238D01*
X285384523Y-10907142D01*
X285322619Y-11030952D01*
D10*
D11*
X335260714Y-10288095D02*
X336127380Y-10288095D01*
X335570238Y-11588095D01*
D10*
D11*
X385570238Y-10845238D02*
X385446428Y-10783333D01*
X385384523Y-10721428D01*
X385322619Y-10597619D01*
X385322619Y-10535714D01*
X385384523Y-10411904D01*
X385446428Y-10350000D01*
X385570238Y-10288095D01*
X385817857Y-10288095D01*
X385941666Y-10350000D01*
X386003571Y-10411904D01*
X386065476Y-10535714D01*
X386065476Y-10597619D01*
X386003571Y-10721428D01*
X385941666Y-10783333D01*
X385817857Y-10845238D01*
X385570238Y-10845238D01*
X385446428Y-10907142D01*
X385384523Y-10969047D01*
X385322619Y-11092857D01*
X385322619Y-11340476D01*
X385384523Y-11464285D01*
X385446428Y-11526190D01*
X385570238Y-11588095D01*
X385817857Y-11588095D01*
X385941666Y-11526190D01*
X386003571Y-11464285D01*
X386065476Y-11340476D01*
X386065476Y-11092857D01*
X386003571Y-10969047D01*
X385941666Y-10907142D01*
X385817857Y-10845238D01*
D10*
D11*
X60000000Y-285002200D02*
X60000000Y-287002200D01*
D10*
D11*
X110000000Y-285002200D02*
X110000000Y-287002200D01*
D10*
D11*
X160000000Y-285002200D02*
X160000000Y-287002200D01*
D10*
D11*
X210000000Y-285002200D02*
X210000000Y-287002200D01*
D10*
D11*
X260000000Y-285002200D02*
X260000000Y-287002200D01*
D10*
D11*
X310000000Y-285002200D02*
X310000000Y-287002200D01*
D10*
D11*
X360000000Y-285002200D02*
X360000000Y-287002200D01*
D10*
D11*
X36065476Y-286590295D02*
X35322619Y-286590295D01*
X35694047Y-286590295D02*
X35694047Y-285290295D01*
X35570238Y-285476009D01*
X35446428Y-285599819D01*
X35322619Y-285661723D01*
D10*
D11*
X85322619Y-285414104D02*
X85384523Y-285352200D01*
X85508333Y-285290295D01*
X85817857Y-285290295D01*
X85941666Y-285352200D01*
X86003571Y-285414104D01*
X86065476Y-285537914D01*
X86065476Y-285661723D01*
X86003571Y-285847438D01*
X85260714Y-286590295D01*
X86065476Y-286590295D01*
D10*
D11*
X135260714Y-285290295D02*
X136065476Y-285290295D01*
X135632142Y-285785533D01*
X135817857Y-285785533D01*
X135941666Y-285847438D01*
X136003571Y-285909342D01*
X136065476Y-286033152D01*
X136065476Y-286342676D01*
X136003571Y-286466485D01*
X135941666Y-286528390D01*
X135817857Y-286590295D01*
X135446428Y-286590295D01*
X135322619Y-286528390D01*
X135260714Y-286466485D01*
D10*
D11*
X185941666Y-285723628D02*
X185941666Y-286590295D01*
X185632142Y-285228390D02*
X185322619Y-286156961D01*
X186127380Y-286156961D01*
D10*
D11*
X236003571Y-285290295D02*
X235384523Y-285290295D01*
X235322619Y-285909342D01*
X235384523Y-285847438D01*
X235508333Y-285785533D01*
X235817857Y-285785533D01*
X235941666Y-285847438D01*
X236003571Y-285909342D01*
X236065476Y-286033152D01*
X236065476Y-286342676D01*
X236003571Y-286466485D01*
X235941666Y-286528390D01*
X235817857Y-286590295D01*
X235508333Y-286590295D01*
X235384523Y-286528390D01*
X235322619Y-286466485D01*
D10*
D11*
X285941666Y-285290295D02*
X285694047Y-285290295D01*
X285570238Y-285352200D01*
X285508333Y-285414104D01*
X285384523Y-285599819D01*
X285322619Y-285847438D01*
X285322619Y-286342676D01*
X285384523Y-286466485D01*
X285446428Y-286528390D01*
X285570238Y-286590295D01*
X285817857Y-286590295D01*
X285941666Y-286528390D01*
X286003571Y-286466485D01*
X286065476Y-286342676D01*
X286065476Y-286033152D01*
X286003571Y-285909342D01*
X285941666Y-285847438D01*
X285817857Y-285785533D01*
X285570238Y-285785533D01*
X285446428Y-285847438D01*
X285384523Y-285909342D01*
X285322619Y-286033152D01*
D10*
D11*
X335260714Y-285290295D02*
X336127380Y-285290295D01*
X335570238Y-286590295D01*
D10*
D11*
X385570238Y-285847438D02*
X385446428Y-285785533D01*
X385384523Y-285723628D01*
X385322619Y-285599819D01*
X385322619Y-285537914D01*
X385384523Y-285414104D01*
X385446428Y-285352200D01*
X385570238Y-285290295D01*
X385817857Y-285290295D01*
X385941666Y-285352200D01*
X386003571Y-285414104D01*
X386065476Y-285537914D01*
X386065476Y-285599819D01*
X386003571Y-285723628D01*
X385941666Y-285785533D01*
X385817857Y-285847438D01*
X385570238Y-285847438D01*
X385446428Y-285909342D01*
X385384523Y-285971247D01*
X385322619Y-286095057D01*
X385322619Y-286342676D01*
X385384523Y-286466485D01*
X385446428Y-286528390D01*
X385570238Y-286590295D01*
X385817857Y-286590295D01*
X385941666Y-286528390D01*
X386003571Y-286466485D01*
X386065476Y-286342676D01*
X386065476Y-286095057D01*
X386003571Y-285971247D01*
X385941666Y-285909342D01*
X385817857Y-285847438D01*
D10*
D11*
X10000000Y-60000000D02*
X12000000Y-60000000D01*
D10*
D11*
X10000000Y-110000000D02*
X12000000Y-110000000D01*
D10*
D11*
X10000000Y-160000000D02*
X12000000Y-160000000D01*
D10*
D11*
X10000000Y-210000000D02*
X12000000Y-210000000D01*
D10*
D11*
X10000000Y-260000000D02*
X12000000Y-260000000D01*
D10*
D11*
X10690476Y-35216666D02*
X11309523Y-35216666D01*
X10566666Y-35588095D02*
X11000000Y-34288095D01*
X11433333Y-35588095D01*
D10*
D11*
X11092857Y-84907142D02*
X11278571Y-84969047D01*
X11340476Y-85030952D01*
X11402380Y-85154761D01*
X11402380Y-85340476D01*
X11340476Y-85464285D01*
X11278571Y-85526190D01*
X11154761Y-85588095D01*
X10659523Y-85588095D01*
X10659523Y-84288095D01*
X11092857Y-84288095D01*
X11216666Y-84350000D01*
X11278571Y-84411904D01*
X11340476Y-84535714D01*
X11340476Y-84659523D01*
X11278571Y-84783333D01*
X11216666Y-84845238D01*
X11092857Y-84907142D01*
X10659523Y-84907142D01*
D10*
D11*
X11402380Y-135464285D02*
X11340476Y-135526190D01*
X11154761Y-135588095D01*
X11030952Y-135588095D01*
X10845238Y-135526190D01*
X10721428Y-135402380D01*
X10659523Y-135278571D01*
X10597619Y-135030952D01*
X10597619Y-134845238D01*
X10659523Y-134597619D01*
X10721428Y-134473809D01*
X10845238Y-134350000D01*
X11030952Y-134288095D01*
X11154761Y-134288095D01*
X11340476Y-134350000D01*
X11402380Y-134411904D01*
D10*
D11*
X10659523Y-185588095D02*
X10659523Y-184288095D01*
X10969047Y-184288095D01*
X11154761Y-184350000D01*
X11278571Y-184473809D01*
X11340476Y-184597619D01*
X11402380Y-184845238D01*
X11402380Y-185030952D01*
X11340476Y-185278571D01*
X11278571Y-185402380D01*
X11154761Y-185526190D01*
X10969047Y-185588095D01*
X10659523Y-185588095D01*
D10*
D11*
X10721428Y-234907142D02*
X11154761Y-234907142D01*
X11340476Y-235588095D02*
X10721428Y-235588095D01*
X10721428Y-234288095D01*
X11340476Y-234288095D01*
D10*
D11*
X11185714Y-284907142D02*
X10752380Y-284907142D01*
X10752380Y-285588095D02*
X10752380Y-284288095D01*
X11371428Y-284288095D01*
D10*
D11*
X409989000Y-60000000D02*
X407989000Y-60000000D01*
D10*
D11*
X409989000Y-110000000D02*
X407989000Y-110000000D01*
D10*
D11*
X409989000Y-160000000D02*
X407989000Y-160000000D01*
D10*
D11*
X409989000Y-210000000D02*
X407989000Y-210000000D01*
D10*
D11*
X409989000Y-260000000D02*
X407989000Y-260000000D01*
D10*
D11*
X408679476Y-35216666D02*
X409298523Y-35216666D01*
X408555666Y-35588095D02*
X408989000Y-34288095D01*
X409422333Y-35588095D01*
D10*
D11*
X409081857Y-84907142D02*
X409267571Y-84969047D01*
X409329476Y-85030952D01*
X409391380Y-85154761D01*
X409391380Y-85340476D01*
X409329476Y-85464285D01*
X409267571Y-85526190D01*
X409143761Y-85588095D01*
X408648523Y-85588095D01*
X408648523Y-84288095D01*
X409081857Y-84288095D01*
X409205666Y-84350000D01*
X409267571Y-84411904D01*
X409329476Y-84535714D01*
X409329476Y-84659523D01*
X409267571Y-84783333D01*
X409205666Y-84845238D01*
X409081857Y-84907142D01*
X408648523Y-84907142D01*
D10*
D11*
X409391380Y-135464285D02*
X409329476Y-135526190D01*
X409143761Y-135588095D01*
X409019952Y-135588095D01*
X408834238Y-135526190D01*
X408710428Y-135402380D01*
X408648523Y-135278571D01*
X408586619Y-135030952D01*
X408586619Y-134845238D01*
X408648523Y-134597619D01*
X408710428Y-134473809D01*
X408834238Y-134350000D01*
X409019952Y-134288095D01*
X409143761Y-134288095D01*
X409329476Y-134350000D01*
X409391380Y-134411904D01*
D10*
D11*
X408648523Y-185588095D02*
X408648523Y-184288095D01*
X408958047Y-184288095D01*
X409143761Y-184350000D01*
X409267571Y-184473809D01*
X409329476Y-184597619D01*
X409391380Y-184845238D01*
X409391380Y-185030952D01*
X409329476Y-185278571D01*
X409267571Y-185402380D01*
X409143761Y-185526190D01*
X408958047Y-185588095D01*
X408648523Y-185588095D01*
D10*
D11*
X408710428Y-234907142D02*
X409143761Y-234907142D01*
X409329476Y-235588095D02*
X408710428Y-235588095D01*
X408710428Y-234288095D01*
X409329476Y-234288095D01*
D10*
D11*
X409174714Y-284907142D02*
X408741380Y-284907142D01*
X408741380Y-285588095D02*
X408741380Y-284288095D01*
X409360428Y-284288095D01*
D10*
D11*
X323421142Y-280780771D02*
X323421142Y-279280771D01*
X323778285Y-279280771D01*
X323992571Y-279352200D01*
X324135428Y-279495057D01*
X324206857Y-279637914D01*
X324278285Y-279923628D01*
X324278285Y-280137914D01*
X324206857Y-280423628D01*
X324135428Y-280566485D01*
X323992571Y-280709342D01*
X323778285Y-280780771D01*
X323421142Y-280780771D01*
X325564000Y-280780771D02*
X325564000Y-279995057D01*
X325492571Y-279852200D01*
X325349714Y-279780771D01*
X325064000Y-279780771D01*
X324921142Y-279852200D01*
X325564000Y-280709342D02*
X325421142Y-280780771D01*
X325064000Y-280780771D01*
X324921142Y-280709342D01*
X324849714Y-280566485D01*
X324849714Y-280423628D01*
X324921142Y-280280771D01*
X325064000Y-280209342D01*
X325421142Y-280209342D01*
X325564000Y-280137914D01*
X326064000Y-279780771D02*
X326635428Y-279780771D01*
X326278285Y-279280771D02*
X326278285Y-280566485D01*
X326349714Y-280709342D01*
X326492571Y-280780771D01*
X326635428Y-280780771D01*
X327706857Y-280709342D02*
X327564000Y-280780771D01*
X327278285Y-280780771D01*
X327135428Y-280709342D01*
X327064000Y-280566485D01*
X327064000Y-279995057D01*
X327135428Y-279852200D01*
X327278285Y-279780771D01*
X327564000Y-279780771D01*
X327706857Y-279852200D01*
X327778285Y-279995057D01*
X327778285Y-280137914D01*
X327064000Y-280280771D01*
X328421142Y-280637914D02*
X328492571Y-280709342D01*
X328421142Y-280780771D01*
X328349714Y-280709342D01*
X328421142Y-280637914D01*
X328421142Y-280780771D01*
X328421142Y-279852200D02*
X328492571Y-279923628D01*
X328421142Y-279995057D01*
X328349714Y-279923628D01*
X328421142Y-279852200D01*
X328421142Y-279995057D01*
D10*
D11*
X299989000Y-281502200D02*
X407989000Y-281502200D01*
D10*
D11*
X301421142Y-283580771D02*
X301421142Y-282080771D01*
X302278285Y-283580771D02*
X301635428Y-282723628D01*
X302278285Y-282080771D02*
X301421142Y-282937914D01*
X302921142Y-283580771D02*
X302921142Y-282580771D01*
X302921142Y-282080771D02*
X302849714Y-282152200D01*
X302921142Y-282223628D01*
X302992571Y-282152200D01*
X302921142Y-282080771D01*
X302921142Y-282223628D01*
X304492571Y-283437914D02*
X304421142Y-283509342D01*
X304206857Y-283580771D01*
X304064000Y-283580771D01*
X303849714Y-283509342D01*
X303706857Y-283366485D01*
X303635428Y-283223628D01*
X303564000Y-282937914D01*
X303564000Y-282723628D01*
X303635428Y-282437914D01*
X303706857Y-282295057D01*
X303849714Y-282152200D01*
X304064000Y-282080771D01*
X304206857Y-282080771D01*
X304421142Y-282152200D01*
X304492571Y-282223628D01*
X305778285Y-283580771D02*
X305778285Y-282795057D01*
X305706857Y-282652200D01*
X305564000Y-282580771D01*
X305278285Y-282580771D01*
X305135428Y-282652200D01*
X305778285Y-283509342D02*
X305635428Y-283580771D01*
X305278285Y-283580771D01*
X305135428Y-283509342D01*
X305064000Y-283366485D01*
X305064000Y-283223628D01*
X305135428Y-283080771D01*
X305278285Y-283009342D01*
X305635428Y-283009342D01*
X305778285Y-282937914D01*
X307135428Y-283580771D02*
X307135428Y-282080771D01*
X307135428Y-283509342D02*
X306992571Y-283580771D01*
X306706857Y-283580771D01*
X306564000Y-283509342D01*
X306492571Y-283437914D01*
X306421142Y-283295057D01*
X306421142Y-282866485D01*
X306492571Y-282723628D01*
X306564000Y-282652200D01*
X306706857Y-282580771D01*
X306992571Y-282580771D01*
X307135428Y-282652200D01*
X308992571Y-282795057D02*
X309492571Y-282795057D01*
X309706857Y-283580771D02*
X308992571Y-283580771D01*
X308992571Y-282080771D01*
X309706857Y-282080771D01*
X310349714Y-283437914D02*
X310421142Y-283509342D01*
X310349714Y-283580771D01*
X310278285Y-283509342D01*
X310349714Y-283437914D01*
X310349714Y-283580771D01*
X311064000Y-283580771D02*
X311064000Y-282080771D01*
X311421142Y-282080771D01*
X311635428Y-282152200D01*
X311778285Y-282295057D01*
X311849714Y-282437914D01*
X311921142Y-282723628D01*
X311921142Y-282937914D01*
X311849714Y-283223628D01*
X311778285Y-283366485D01*
X311635428Y-283509342D01*
X311421142Y-283580771D01*
X311064000Y-283580771D01*
X312564000Y-283437914D02*
X312635428Y-283509342D01*
X312564000Y-283580771D01*
X312492571Y-283509342D01*
X312564000Y-283437914D01*
X312564000Y-283580771D01*
X313206857Y-283152200D02*
X313921142Y-283152200D01*
X313064000Y-283580771D02*
X313564000Y-282080771D01*
X314064000Y-283580771D01*
X314564000Y-283437914D02*
X314635428Y-283509342D01*
X314564000Y-283580771D01*
X314492571Y-283509342D01*
X314564000Y-283437914D01*
X314564000Y-283580771D01*
X317564000Y-283580771D02*
X317564000Y-282080771D01*
X317706857Y-283009342D02*
X318135428Y-283580771D01*
X318135428Y-282580771D02*
X317564000Y-283152200D01*
X318778285Y-283580771D02*
X318778285Y-282580771D01*
X318778285Y-282080771D02*
X318706857Y-282152200D01*
X318778285Y-282223628D01*
X318849714Y-282152200D01*
X318778285Y-282080771D01*
X318778285Y-282223628D01*
X320135428Y-283509342D02*
X319992571Y-283580771D01*
X319706857Y-283580771D01*
X319564000Y-283509342D01*
X319492571Y-283437914D01*
X319421142Y-283295057D01*
X319421142Y-282866485D01*
X319492571Y-282723628D01*
X319564000Y-282652200D01*
X319706857Y-282580771D01*
X319992571Y-282580771D01*
X320135428Y-282652200D01*
X321421142Y-283580771D02*
X321421142Y-282795057D01*
X321349714Y-282652200D01*
X321206857Y-282580771D01*
X320921142Y-282580771D01*
X320778285Y-282652200D01*
X321421142Y-283509342D02*
X321278285Y-283580771D01*
X320921142Y-283580771D01*
X320778285Y-283509342D01*
X320706857Y-283366485D01*
X320706857Y-283223628D01*
X320778285Y-283080771D01*
X320921142Y-283009342D01*
X321278285Y-283009342D01*
X321421142Y-282937914D01*
X322778285Y-283580771D02*
X322778285Y-282080771D01*
X322778285Y-283509342D02*
X322635428Y-283580771D01*
X322349714Y-283580771D01*
X322206857Y-283509342D01*
X322135428Y-283437914D01*
X322064000Y-283295057D01*
X322064000Y-282866485D01*
X322135428Y-282723628D01*
X322206857Y-282652200D01*
X322349714Y-282580771D01*
X322635428Y-282580771D01*
X322778285Y-282652200D01*
X325349714Y-282080771D02*
X324635428Y-282080771D01*
X324564000Y-282795057D01*
X324635428Y-282723628D01*
X324778285Y-282652200D01*
X325135428Y-282652200D01*
X325278285Y-282723628D01*
X325349714Y-282795057D01*
X325421142Y-282937914D01*
X325421142Y-283295057D01*
X325349714Y-283437914D01*
X325278285Y-283509342D01*
X325135428Y-283580771D01*
X324778285Y-283580771D01*
X324635428Y-283509342D01*
X324564000Y-283437914D01*
X326064000Y-283437914D02*
X326135428Y-283509342D01*
X326064000Y-283580771D01*
X325992571Y-283509342D01*
X326064000Y-283437914D01*
X326064000Y-283580771D01*
X327564000Y-283580771D02*
X326706857Y-283580771D01*
X327135428Y-283580771D02*
X327135428Y-282080771D01*
X326992571Y-282295057D01*
X326849714Y-282437914D01*
X326706857Y-282509342D01*
X328206857Y-283437914D02*
X328278285Y-283509342D01*
X328206857Y-283580771D01*
X328135428Y-283509342D01*
X328206857Y-283437914D01*
X328206857Y-283580771D01*
X329564000Y-282080771D02*
X329278285Y-282080771D01*
X329135428Y-282152200D01*
X329064000Y-282223628D01*
X328921142Y-282437914D01*
X328849714Y-282723628D01*
X328849714Y-283295057D01*
X328921142Y-283437914D01*
X328992571Y-283509342D01*
X329135428Y-283580771D01*
X329421142Y-283580771D01*
X329564000Y-283509342D01*
X329635428Y-283437914D01*
X329706857Y-283295057D01*
X329706857Y-282937914D01*
X329635428Y-282795057D01*
X329564000Y-282723628D01*
X329421142Y-282652200D01*
X329135428Y-282652200D01*
X328992571Y-282723628D01*
X328921142Y-282795057D01*
X328849714Y-282937914D01*
X330349714Y-283009342D02*
X331492571Y-283009342D01*
X332849714Y-283509342D02*
X332706857Y-283580771D01*
X332421142Y-283580771D01*
X332278285Y-283509342D01*
X332206857Y-283437914D01*
X332135428Y-283295057D01*
X332135428Y-282866485D01*
X332206857Y-282723628D01*
X332278285Y-282652200D01*
X332421142Y-282580771D01*
X332706857Y-282580771D01*
X332849714Y-282652200D01*
X334135428Y-282080771D02*
X333849714Y-282080771D01*
X333706857Y-282152200D01*
X333635428Y-282223628D01*
X333492571Y-282437914D01*
X333421142Y-282723628D01*
X333421142Y-283295057D01*
X333492571Y-283437914D01*
X333564000Y-283509342D01*
X333706857Y-283580771D01*
X333992571Y-283580771D01*
X334135428Y-283509342D01*
X334206857Y-283437914D01*
X334278285Y-283295057D01*
X334278285Y-282937914D01*
X334206857Y-282795057D01*
X334135428Y-282723628D01*
X333992571Y-282652200D01*
X333706857Y-282652200D01*
X333564000Y-282723628D01*
X333492571Y-282795057D01*
X333421142Y-282937914D01*
X335492571Y-283509342D02*
X335349714Y-283580771D01*
X335064000Y-283580771D01*
X334921142Y-283509342D01*
X334849714Y-283366485D01*
X334849714Y-282795057D01*
X334921142Y-282652200D01*
X335064000Y-282580771D01*
X335349714Y-282580771D01*
X335492571Y-282652200D01*
X335564000Y-282795057D01*
X335564000Y-282937914D01*
X334849714Y-283080771D01*
X336064000Y-282080771D02*
X337064000Y-282080771D01*
X336421142Y-283580771D01*
X337421142Y-282580771D02*
X337992571Y-282580771D01*
X337635428Y-283580771D02*
X337635428Y-282295057D01*
X337706857Y-282152200D01*
X337849714Y-282080771D01*
X337992571Y-282080771D01*
X338349714Y-282080771D02*
X339349714Y-282080771D01*
X338706857Y-283580771D01*
X340564000Y-283580771D02*
X340564000Y-282080771D01*
X340564000Y-283509342D02*
X340421142Y-283580771D01*
X340135428Y-283580771D01*
X339992571Y-283509342D01*
X339921142Y-283437914D01*
X339849714Y-283295057D01*
X339849714Y-282866485D01*
X339921142Y-282723628D01*
X339992571Y-282652200D01*
X340135428Y-282580771D01*
X340421142Y-282580771D01*
X340564000Y-282652200D01*
X340921142Y-281672200D02*
X342349714Y-281672200D01*
X341492571Y-282723628D02*
X341349714Y-282652200D01*
X341278285Y-282580771D01*
X341206857Y-282437914D01*
X341206857Y-282366485D01*
X341278285Y-282223628D01*
X341349714Y-282152200D01*
X341492571Y-282080771D01*
X341778285Y-282080771D01*
X341921142Y-282152200D01*
X341992571Y-282223628D01*
X342064000Y-282366485D01*
X342064000Y-282437914D01*
X341992571Y-282580771D01*
X341921142Y-282652200D01*
X341778285Y-282723628D01*
X341492571Y-282723628D01*
X341349714Y-282795057D01*
X341278285Y-282866485D01*
X341206857Y-283009342D01*
X341206857Y-283295057D01*
X341278285Y-283437914D01*
X341349714Y-283509342D01*
X341492571Y-283580771D01*
X341778285Y-283580771D01*
X341921142Y-283509342D01*
X341992571Y-283437914D01*
X342064000Y-283295057D01*
X342064000Y-283009342D01*
X341992571Y-282866485D01*
X341921142Y-282795057D01*
X341778285Y-282723628D01*
X342349714Y-281672200D02*
X343778285Y-281672200D01*
X342564000Y-282080771D02*
X343564000Y-282080771D01*
X342921142Y-283580771D01*
X344778285Y-282580771D02*
X344778285Y-283580771D01*
X344135428Y-282580771D02*
X344135428Y-283366485D01*
X344206857Y-283509342D01*
X344349714Y-283580771D01*
X344564000Y-283580771D01*
X344706857Y-283509342D01*
X344778285Y-283437914D01*
X345492571Y-283580771D02*
X345492571Y-282080771D01*
X345492571Y-282652200D02*
X345635428Y-282580771D01*
X345921142Y-282580771D01*
X346064000Y-282652200D01*
X346135428Y-282723628D01*
X346206857Y-282866485D01*
X346206857Y-283295057D01*
X346135428Y-283437914D01*
X346064000Y-283509342D01*
X345921142Y-283580771D01*
X345635428Y-283580771D01*
X345492571Y-283509342D01*
X347492571Y-282580771D02*
X347492571Y-283580771D01*
X346849714Y-282580771D02*
X346849714Y-283366485D01*
X346921142Y-283509342D01*
X347064000Y-283580771D01*
X347278285Y-283580771D01*
X347421142Y-283509342D01*
X347492571Y-283437914D01*
X348206857Y-282580771D02*
X348206857Y-283580771D01*
X348206857Y-282723628D02*
X348278285Y-282652200D01*
X348421142Y-282580771D01*
X348635428Y-282580771D01*
X348778285Y-282652200D01*
X348849714Y-282795057D01*
X348849714Y-283580771D01*
X349349714Y-282580771D02*
X349921142Y-282580771D01*
X349564000Y-282080771D02*
X349564000Y-283366485D01*
X349635428Y-283509342D01*
X349778285Y-283580771D01*
X349921142Y-283580771D01*
X351064000Y-282580771D02*
X351064000Y-283580771D01*
X350421142Y-282580771D02*
X350421142Y-283366485D01*
X350492571Y-283509342D01*
X350635428Y-283580771D01*
X350849714Y-283580771D01*
X350992571Y-283509342D01*
X351064000Y-283437914D01*
X352564000Y-283580771D02*
X351706857Y-283580771D01*
X352135428Y-283580771D02*
X352135428Y-282080771D01*
X351992571Y-282295057D01*
X351849714Y-282437914D01*
X351706857Y-282509342D01*
X353421142Y-282723628D02*
X353278285Y-282652200D01*
X353206857Y-282580771D01*
X353135428Y-282437914D01*
X353135428Y-282366485D01*
X353206857Y-282223628D01*
X353278285Y-282152200D01*
X353421142Y-282080771D01*
X353706857Y-282080771D01*
X353849714Y-282152200D01*
X353921142Y-282223628D01*
X353992571Y-282366485D01*
X353992571Y-282437914D01*
X353921142Y-282580771D01*
X353849714Y-282652200D01*
X353706857Y-282723628D01*
X353421142Y-282723628D01*
X353278285Y-282795057D01*
X353206857Y-282866485D01*
X353135428Y-283009342D01*
X353135428Y-283295057D01*
X353206857Y-283437914D01*
X353278285Y-283509342D01*
X353421142Y-283580771D01*
X353706857Y-283580771D01*
X353849714Y-283509342D01*
X353921142Y-283437914D01*
X353992571Y-283295057D01*
X353992571Y-283009342D01*
X353921142Y-282866485D01*
X353849714Y-282795057D01*
X353706857Y-282723628D01*
X354635428Y-283437914D02*
X354706857Y-283509342D01*
X354635428Y-283580771D01*
X354564000Y-283509342D01*
X354635428Y-283437914D01*
X354635428Y-283580771D01*
X355635428Y-282080771D02*
X355778285Y-282080771D01*
X355921142Y-282152200D01*
X355992571Y-282223628D01*
X356064000Y-282366485D01*
X356135428Y-282652200D01*
X356135428Y-283009342D01*
X356064000Y-283295057D01*
X355992571Y-283437914D01*
X355921142Y-283509342D01*
X355778285Y-283580771D01*
X355635428Y-283580771D01*
X355492571Y-283509342D01*
X355421142Y-283437914D01*
X355349714Y-283295057D01*
X355278285Y-283009342D01*
X355278285Y-282652200D01*
X355349714Y-282366485D01*
X355421142Y-282223628D01*
X355492571Y-282152200D01*
X355635428Y-282080771D01*
X357421142Y-282580771D02*
X357421142Y-283580771D01*
X357064000Y-282009342D02*
X356706857Y-283080771D01*
X357635428Y-283080771D01*
X358206857Y-283437914D02*
X358278285Y-283509342D01*
X358206857Y-283580771D01*
X358135428Y-283509342D01*
X358206857Y-283437914D01*
X358206857Y-283580771D01*
X359706857Y-283580771D02*
X358849714Y-283580771D01*
X359278285Y-283580771D02*
X359278285Y-282080771D01*
X359135428Y-282295057D01*
X358992571Y-282437914D01*
X358849714Y-282509342D01*
D10*
D11*
X299989000Y-278502200D02*
X407989000Y-278502200D01*
D10*
D12*
X387398285Y-280780771D02*
X386898285Y-280066485D01*
X386541142Y-280780771D02*
X386541142Y-279280771D01*
X387112571Y-279280771D01*
X387255428Y-279352200D01*
X387326857Y-279423628D01*
X387398285Y-279566485D01*
X387398285Y-279780771D01*
X387326857Y-279923628D01*
X387255428Y-279995057D01*
X387112571Y-280066485D01*
X386541142Y-280066485D01*
X388612571Y-280709342D02*
X388469714Y-280780771D01*
X388184000Y-280780771D01*
X388041142Y-280709342D01*
X387969714Y-280566485D01*
X387969714Y-279995057D01*
X388041142Y-279852200D01*
X388184000Y-279780771D01*
X388469714Y-279780771D01*
X388612571Y-279852200D01*
X388684000Y-279995057D01*
X388684000Y-280137914D01*
X387969714Y-280280771D01*
X389184000Y-279780771D02*
X389541142Y-280780771D01*
X389898285Y-279780771D01*
X390469714Y-280637914D02*
X390541142Y-280709342D01*
X390469714Y-280780771D01*
X390398285Y-280709342D01*
X390469714Y-280637914D01*
X390469714Y-280780771D01*
X390469714Y-279852200D02*
X390541142Y-279923628D01*
X390469714Y-279995057D01*
X390398285Y-279923628D01*
X390469714Y-279852200D01*
X390469714Y-279995057D01*
D10*
D11*
X301349714Y-280709342D02*
X301564000Y-280780771D01*
X301921142Y-280780771D01*
X302064000Y-280709342D01*
X302135428Y-280637914D01*
X302206857Y-280495057D01*
X302206857Y-280352200D01*
X302135428Y-280209342D01*
X302064000Y-280137914D01*
X301921142Y-280066485D01*
X301635428Y-279995057D01*
X301492571Y-279923628D01*
X301421142Y-279852200D01*
X301349714Y-279709342D01*
X301349714Y-279566485D01*
X301421142Y-279423628D01*
X301492571Y-279352200D01*
X301635428Y-279280771D01*
X301992571Y-279280771D01*
X302206857Y-279352200D01*
X302849714Y-280780771D02*
X302849714Y-279780771D01*
X302849714Y-279280771D02*
X302778285Y-279352200D01*
X302849714Y-279423628D01*
X302921142Y-279352200D01*
X302849714Y-279280771D01*
X302849714Y-279423628D01*
X303421142Y-279780771D02*
X304206857Y-279780771D01*
X303421142Y-280780771D01*
X304206857Y-280780771D01*
X305349714Y-280709342D02*
X305206857Y-280780771D01*
X304921142Y-280780771D01*
X304778285Y-280709342D01*
X304706857Y-280566485D01*
X304706857Y-279995057D01*
X304778285Y-279852200D01*
X304921142Y-279780771D01*
X305206857Y-279780771D01*
X305349714Y-279852200D01*
X305421142Y-279995057D01*
X305421142Y-280137914D01*
X304706857Y-280280771D01*
X306064000Y-280637914D02*
X306135428Y-280709342D01*
X306064000Y-280780771D01*
X305992571Y-280709342D01*
X306064000Y-280637914D01*
X306064000Y-280780771D01*
X306064000Y-279852200D02*
X306135428Y-279923628D01*
X306064000Y-279995057D01*
X305992571Y-279923628D01*
X306064000Y-279852200D01*
X306064000Y-279995057D01*
X307849714Y-280352200D02*
X308564000Y-280352200D01*
X307706857Y-280780771D02*
X308206857Y-279280771D01*
X308706857Y-280780771D01*
X309064000Y-279280771D02*
X309992571Y-279280771D01*
X309492571Y-279852200D01*
X309706857Y-279852200D01*
X309849714Y-279923628D01*
X309921142Y-279995057D01*
X309992571Y-280137914D01*
X309992571Y-280495057D01*
X309921142Y-280637914D01*
X309849714Y-280709342D01*
X309706857Y-280780771D01*
X309278285Y-280780771D01*
X309135428Y-280709342D01*
X309064000Y-280637914D01*
D10*
D11*
X386421142Y-283580771D02*
X386421142Y-282080771D01*
X387778285Y-283580771D02*
X387778285Y-282080771D01*
X387778285Y-283509342D02*
X387635428Y-283580771D01*
X387349714Y-283580771D01*
X387206857Y-283509342D01*
X387135428Y-283437914D01*
X387064000Y-283295057D01*
X387064000Y-282866485D01*
X387135428Y-282723628D01*
X387206857Y-282652200D01*
X387349714Y-282580771D01*
X387635428Y-282580771D01*
X387778285Y-282652200D01*
X388492571Y-283437914D02*
X388564000Y-283509342D01*
X388492571Y-283580771D01*
X388421142Y-283509342D01*
X388492571Y-283437914D01*
X388492571Y-283580771D01*
X388492571Y-282652200D02*
X388564000Y-282723628D01*
X388492571Y-282795057D01*
X388421142Y-282723628D01*
X388492571Y-282652200D01*
X388492571Y-282795057D01*
X391135428Y-283580771D02*
X390278285Y-283580771D01*
X390706857Y-283580771D02*
X390706857Y-282080771D01*
X390564000Y-282295057D01*
X390421142Y-282437914D01*
X390278285Y-282509342D01*
X392849714Y-282009342D02*
X391564000Y-283937914D01*
X394135428Y-283580771D02*
X393278285Y-283580771D01*
X393706857Y-283580771D02*
X393706857Y-282080771D01*
X393564000Y-282295057D01*
X393421142Y-282437914D01*
X393278285Y-282509342D01*
D10*
D11*
X299989000Y-274502200D02*
X407989000Y-274502200D01*
D10*
D13*
X301701380Y-275206961D02*
X302844238Y-275206961D01*
X302022809Y-277206961D02*
X302272809Y-275206961D01*
X303260904Y-277206961D02*
X303427571Y-275873628D01*
X303510904Y-275206961D02*
X303403761Y-275302200D01*
X303487095Y-275397438D01*
X303594238Y-275302200D01*
X303510904Y-275206961D01*
X303487095Y-275397438D01*
X304094238Y-275873628D02*
X304856142Y-275873628D01*
X304463285Y-275206961D02*
X304249000Y-276921247D01*
X304320428Y-277111723D01*
X304499000Y-277206961D01*
X304689476Y-277206961D01*
X305641857Y-277206961D02*
X305463285Y-277111723D01*
X305391857Y-276921247D01*
X305606142Y-275206961D01*
X307177571Y-277111723D02*
X306975190Y-277206961D01*
X306594238Y-277206961D01*
X306415666Y-277111723D01*
X306344238Y-276921247D01*
X306439476Y-276159342D01*
X306558523Y-275968866D01*
X306760904Y-275873628D01*
X307141857Y-275873628D01*
X307320428Y-275968866D01*
X307391857Y-276159342D01*
X307368047Y-276349819D01*
X306391857Y-276540295D01*
X308141857Y-277016485D02*
X308225190Y-277111723D01*
X308118047Y-277206961D01*
X308034714Y-277111723D01*
X308141857Y-277016485D01*
X308118047Y-277206961D01*
X308272809Y-275968866D02*
X308356142Y-276064104D01*
X308249000Y-276159342D01*
X308165666Y-276064104D01*
X308272809Y-275968866D01*
X308249000Y-276159342D01*
D10*
D11*
X301921142Y-272595057D02*
X301421142Y-272595057D01*
X301421142Y-273380771D02*
X301421142Y-271880771D01*
X302135428Y-271880771D01*
X302706857Y-273380771D02*
X302706857Y-272380771D01*
X302706857Y-271880771D02*
X302635428Y-271952200D01*
X302706857Y-272023628D01*
X302778285Y-271952200D01*
X302706857Y-271880771D01*
X302706857Y-272023628D01*
X303635428Y-273380771D02*
X303492571Y-273309342D01*
X303421142Y-273166485D01*
X303421142Y-271880771D01*
X304778285Y-273309342D02*
X304635428Y-273380771D01*
X304349714Y-273380771D01*
X304206857Y-273309342D01*
X304135428Y-273166485D01*
X304135428Y-272595057D01*
X304206857Y-272452200D01*
X304349714Y-272380771D01*
X304635428Y-272380771D01*
X304778285Y-272452200D01*
X304849714Y-272595057D01*
X304849714Y-272737914D01*
X304135428Y-272880771D01*
X305492571Y-273237914D02*
X305564000Y-273309342D01*
X305492571Y-273380771D01*
X305421142Y-273309342D01*
X305492571Y-273237914D01*
X305492571Y-273380771D01*
X305492571Y-272452200D02*
X305564000Y-272523628D01*
X305492571Y-272595057D01*
X305421142Y-272523628D01*
X305492571Y-272452200D01*
X305492571Y-272595057D01*
X307349714Y-272380771D02*
X307349714Y-273880771D01*
X307349714Y-272452200D02*
X307492571Y-272380771D01*
X307778285Y-272380771D01*
X307921142Y-272452200D01*
X307992571Y-272523628D01*
X308064000Y-272666485D01*
X308064000Y-273095057D01*
X307992571Y-273237914D01*
X307921142Y-273309342D01*
X307778285Y-273380771D01*
X307492571Y-273380771D01*
X307349714Y-273309342D01*
X308706857Y-273380771D02*
X308706857Y-271880771D01*
X309349714Y-273380771D02*
X309349714Y-272595057D01*
X309278285Y-272452200D01*
X309135428Y-272380771D01*
X308921142Y-272380771D01*
X308778285Y-272452200D01*
X308706857Y-272523628D01*
X310635428Y-273309342D02*
X310492571Y-273380771D01*
X310206857Y-273380771D01*
X310064000Y-273309342D01*
X309992571Y-273166485D01*
X309992571Y-272595057D01*
X310064000Y-272452200D01*
X310206857Y-272380771D01*
X310492571Y-272380771D01*
X310635428Y-272452200D01*
X310706857Y-272595057D01*
X310706857Y-272737914D01*
X309992571Y-272880771D01*
X311349714Y-273380771D02*
X311349714Y-272380771D01*
X311349714Y-272666485D02*
X311421142Y-272523628D01*
X311492571Y-272452200D01*
X311635428Y-272380771D01*
X311778285Y-272380771D01*
X312492571Y-273380771D02*
X312349714Y-273309342D01*
X312278285Y-273237914D01*
X312206857Y-273095057D01*
X312206857Y-272666485D01*
X312278285Y-272523628D01*
X312349714Y-272452200D01*
X312492571Y-272380771D01*
X312706857Y-272380771D01*
X312849714Y-272452200D01*
X312921142Y-272523628D01*
X312992571Y-272666485D01*
X312992571Y-273095057D01*
X312921142Y-273237914D01*
X312849714Y-273309342D01*
X312706857Y-273380771D01*
X312492571Y-273380771D01*
X313635428Y-273380771D02*
X313635428Y-272380771D01*
X313635428Y-272523628D02*
X313706857Y-272452200D01*
X313849714Y-272380771D01*
X314064000Y-272380771D01*
X314206857Y-272452200D01*
X314278285Y-272595057D01*
X314278285Y-273380771D01*
X314278285Y-272595057D02*
X314349714Y-272452200D01*
X314492571Y-272380771D01*
X314706857Y-272380771D01*
X314849714Y-272452200D01*
X314921142Y-272595057D01*
X314921142Y-273380771D01*
X315849714Y-273380771D02*
X315706857Y-273309342D01*
X315635428Y-273237914D01*
X315564000Y-273095057D01*
X315564000Y-272666485D01*
X315635428Y-272523628D01*
X315706857Y-272452200D01*
X315849714Y-272380771D01*
X316064000Y-272380771D01*
X316206857Y-272452200D01*
X316278285Y-272523628D01*
X316349714Y-272666485D01*
X316349714Y-273095057D01*
X316278285Y-273237914D01*
X316206857Y-273309342D01*
X316064000Y-273380771D01*
X315849714Y-273380771D01*
X316992571Y-272380771D02*
X316992571Y-273380771D01*
X316992571Y-272523628D02*
X317064000Y-272452200D01*
X317206857Y-272380771D01*
X317421142Y-272380771D01*
X317564000Y-272452200D01*
X317635428Y-272595057D01*
X317635428Y-273380771D01*
X318921142Y-273309342D02*
X318778285Y-273380771D01*
X318492571Y-273380771D01*
X318349714Y-273309342D01*
X318278285Y-273166485D01*
X318278285Y-272595057D01*
X318349714Y-272452200D01*
X318492571Y-272380771D01*
X318778285Y-272380771D01*
X318921142Y-272452200D01*
X318992571Y-272595057D01*
X318992571Y-272737914D01*
X318278285Y-272880771D01*
X319635428Y-273237914D02*
X319706857Y-273309342D01*
X319635428Y-273380771D01*
X319564000Y-273309342D01*
X319635428Y-273237914D01*
X319635428Y-273380771D01*
X320349714Y-273380771D02*
X320349714Y-271880771D01*
X320492571Y-272809342D02*
X320921142Y-273380771D01*
X320921142Y-272380771D02*
X320349714Y-272952200D01*
X321564000Y-273380771D02*
X321564000Y-272380771D01*
X321564000Y-271880771D02*
X321492571Y-271952200D01*
X321564000Y-272023628D01*
X321635428Y-271952200D01*
X321564000Y-271880771D01*
X321564000Y-272023628D01*
X322921142Y-273309342D02*
X322778285Y-273380771D01*
X322492571Y-273380771D01*
X322349714Y-273309342D01*
X322278285Y-273237914D01*
X322206857Y-273095057D01*
X322206857Y-272666485D01*
X322278285Y-272523628D01*
X322349714Y-272452200D01*
X322492571Y-272380771D01*
X322778285Y-272380771D01*
X322921142Y-272452200D01*
X324206857Y-273380771D02*
X324206857Y-272595057D01*
X324135428Y-272452200D01*
X323992571Y-272380771D01*
X323706857Y-272380771D01*
X323564000Y-272452200D01*
X324206857Y-273309342D02*
X324064000Y-273380771D01*
X323706857Y-273380771D01*
X323564000Y-273309342D01*
X323492571Y-273166485D01*
X323492571Y-273023628D01*
X323564000Y-272880771D01*
X323706857Y-272809342D01*
X324064000Y-272809342D01*
X324206857Y-272737914D01*
X325564000Y-273380771D02*
X325564000Y-271880771D01*
X325564000Y-273309342D02*
X325421142Y-273380771D01*
X325135428Y-273380771D01*
X324992571Y-273309342D01*
X324921142Y-273237914D01*
X324849714Y-273095057D01*
X324849714Y-272666485D01*
X324921142Y-272523628D01*
X324992571Y-272452200D01*
X325135428Y-272380771D01*
X325421142Y-272380771D01*
X325564000Y-272452200D01*
X325921142Y-273523628D02*
X327064000Y-273523628D01*
X327421142Y-272380771D02*
X327421142Y-273880771D01*
X327421142Y-272452200D02*
X327564000Y-272380771D01*
X327849714Y-272380771D01*
X327992571Y-272452200D01*
X328064000Y-272523628D01*
X328135428Y-272666485D01*
X328135428Y-273095057D01*
X328064000Y-273237914D01*
X327992571Y-273309342D01*
X327849714Y-273380771D01*
X327564000Y-273380771D01*
X327421142Y-273309342D01*
X329421142Y-273309342D02*
X329278285Y-273380771D01*
X328992571Y-273380771D01*
X328849714Y-273309342D01*
X328778285Y-273237914D01*
X328706857Y-273095057D01*
X328706857Y-272666485D01*
X328778285Y-272523628D01*
X328849714Y-272452200D01*
X328992571Y-272380771D01*
X329278285Y-272380771D01*
X329421142Y-272452200D01*
X330064000Y-273380771D02*
X330064000Y-271880771D01*
X330064000Y-272452200D02*
X330206857Y-272380771D01*
X330492571Y-272380771D01*
X330635428Y-272452200D01*
X330706857Y-272523628D01*
X330778285Y-272666485D01*
X330778285Y-273095057D01*
X330706857Y-273237914D01*
X330635428Y-273309342D01*
X330492571Y-273380771D01*
X330206857Y-273380771D01*
X330064000Y-273309342D01*
D10*
D11*
X299989000Y-268502200D02*
X407989000Y-268502200D01*
D10*
D11*
X301349714Y-270609342D02*
X301564000Y-270680771D01*
X301921142Y-270680771D01*
X302064000Y-270609342D01*
X302135428Y-270537914D01*
X302206857Y-270395057D01*
X302206857Y-270252200D01*
X302135428Y-270109342D01*
X302064000Y-270037914D01*
X301921142Y-269966485D01*
X301635428Y-269895057D01*
X301492571Y-269823628D01*
X301421142Y-269752200D01*
X301349714Y-269609342D01*
X301349714Y-269466485D01*
X301421142Y-269323628D01*
X301492571Y-269252200D01*
X301635428Y-269180771D01*
X301992571Y-269180771D01*
X302206857Y-269252200D01*
X302849714Y-270680771D02*
X302849714Y-269180771D01*
X303492571Y-270680771D02*
X303492571Y-269895057D01*
X303421142Y-269752200D01*
X303278285Y-269680771D01*
X303064000Y-269680771D01*
X302921142Y-269752200D01*
X302849714Y-269823628D01*
X304778285Y-270609342D02*
X304635428Y-270680771D01*
X304349714Y-270680771D01*
X304206857Y-270609342D01*
X304135428Y-270466485D01*
X304135428Y-269895057D01*
X304206857Y-269752200D01*
X304349714Y-269680771D01*
X304635428Y-269680771D01*
X304778285Y-269752200D01*
X304849714Y-269895057D01*
X304849714Y-270037914D01*
X304135428Y-270180771D01*
X306064000Y-270609342D02*
X305921142Y-270680771D01*
X305635428Y-270680771D01*
X305492571Y-270609342D01*
X305421142Y-270466485D01*
X305421142Y-269895057D01*
X305492571Y-269752200D01*
X305635428Y-269680771D01*
X305921142Y-269680771D01*
X306064000Y-269752200D01*
X306135428Y-269895057D01*
X306135428Y-270037914D01*
X305421142Y-270180771D01*
X306564000Y-269680771D02*
X307135428Y-269680771D01*
X306778285Y-269180771D02*
X306778285Y-270466485D01*
X306849714Y-270609342D01*
X306992571Y-270680771D01*
X307135428Y-270680771D01*
X307635428Y-270537914D02*
X307706857Y-270609342D01*
X307635428Y-270680771D01*
X307564000Y-270609342D01*
X307635428Y-270537914D01*
X307635428Y-270680771D01*
X307635428Y-269752200D02*
X307706857Y-269823628D01*
X307635428Y-269895057D01*
X307564000Y-269823628D01*
X307635428Y-269752200D01*
X307635428Y-269895057D01*
D10*
D11*
X319989000Y-278502200D02*
X319989000Y-281502200D01*
D10*
D11*
X383989000Y-278502200D02*
X383989000Y-285002200D01*
D14*
X48010578Y-67766000D02*
X47493422Y-67766000D01*
X48010578Y-66346000D02*
X47493422Y-66346000D01*
X48010578Y-69798000D02*
X47493422Y-69798000D01*
X48010578Y-68378000D02*
X47493422Y-68378000D01*
X48010578Y-71830000D02*
X47493422Y-71830000D01*
X48010578Y-70410000D02*
X47493422Y-70410000D01*
X48010578Y-65734000D02*
X47493422Y-65734000D01*
X48010578Y-64314000D02*
X47493422Y-64314000D01*
X50033422Y-58980000D02*
X50550578Y-58980000D01*
X50033422Y-60400000D02*
X50550578Y-60400000D01*
X50033422Y-61520000D02*
X50550578Y-61520000D01*
X50033422Y-62940000D02*
X50550578Y-62940000D01*
X40930000Y-57388000D02*
X44830000Y-57388000D01*
X40930000Y-55388000D02*
X44830000Y-55388000D01*
X40930000Y-57388000D02*
X40930000Y-55388000D01*
X45430000Y-58690000D02*
X41530000Y-58690000D01*
X45430000Y-60690000D02*
X41530000Y-60690000D01*
X45430000Y-58690000D02*
X45430000Y-60690000D01*
D11*
X158400000Y-137575000D02*
X158400000Y-138850000D01*
X158975000Y-127225000D02*
X158975000Y-127900000D01*
X148625000Y-127225000D02*
X148625000Y-127900000D01*
X148625000Y-137575000D02*
X148625000Y-136900000D01*
X158975000Y-137575000D02*
X158975000Y-136900000D01*
X148625000Y-137575000D02*
X149300000Y-137575000D01*
X148625000Y-127225000D02*
X149300000Y-127225000D01*
X158975000Y-127225000D02*
X158300000Y-127225000D01*
X158975000Y-137575000D02*
X158400000Y-137575000D01*
D14*
X164858578Y-124110000D02*
X164341422Y-124110000D01*
X164858578Y-122690000D02*
X164341422Y-122690000D01*
X164466422Y-137790000D02*
X164983578Y-137790000D01*
X164466422Y-139210000D02*
X164983578Y-139210000D01*
X158283578Y-142110000D02*
X157766422Y-142110000D01*
X158283578Y-140690000D02*
X157766422Y-140690000D01*
X164883578Y-128810000D02*
X164366422Y-128810000D01*
X164883578Y-127390000D02*
X164366422Y-127390000D01*
X164983578Y-135910000D02*
X164466422Y-135910000D01*
X164983578Y-134490000D02*
X164466422Y-134490000D01*
X141766422Y-121190000D02*
X142283578Y-121190000D01*
X141766422Y-122610000D02*
X142283578Y-122610000D01*
X141766422Y-136590000D02*
X142283578Y-136590000D01*
X141766422Y-138010000D02*
X142283578Y-138010000D01*
X141766422Y-139690000D02*
X142283578Y-139690000D01*
X141766422Y-141110000D02*
X142283578Y-141110000D01*
X141766422Y-133690000D02*
X142283578Y-133690000D01*
X141766422Y-135110000D02*
X142283578Y-135110000D01*
X141741422Y-124290000D02*
X142258578Y-124290000D01*
X141741422Y-125710000D02*
X142258578Y-125710000D01*
X143800000Y-127900000D02*
X143800000Y-131900000D01*
X140500000Y-127900000D02*
X143800000Y-127900000D01*
X168290000Y-140270000D02*
X168290000Y-141600000D01*
X169620000Y-140270000D02*
X168290000Y-140270000D01*
X168290000Y-142870000D02*
X168290000Y-145470000D01*
X170890000Y-142870000D02*
X168290000Y-142870000D01*
X170890000Y-140270000D02*
X170890000Y-142870000D01*
X168290000Y-145470000D02*
X176030000Y-145470000D01*
X170890000Y-140270000D02*
X176030000Y-140270000D01*
X176030000Y-140270000D02*
X176030000Y-145470000D01*
X70056250Y-65353125D02*
X70056250Y-61453125D01*
X68056250Y-65353125D02*
X68056250Y-61453125D01*
X70056250Y-65353125D02*
X68056250Y-65353125D01*
X89200000Y-65300000D02*
X89200000Y-61400000D01*
X87200000Y-65300000D02*
X87200000Y-61400000D01*
X89200000Y-65300000D02*
X87200000Y-65300000D01*
X108156250Y-65353125D02*
X108156250Y-61453125D01*
X106156250Y-65353125D02*
X106156250Y-61453125D01*
X108156250Y-65353125D02*
X106156250Y-65353125D01*
X127206250Y-65353125D02*
X127206250Y-61453125D01*
X125206250Y-65353125D02*
X125206250Y-61453125D01*
X127206250Y-65353125D02*
X125206250Y-65353125D01*
X146256250Y-65353125D02*
X146256250Y-61453125D01*
X144256250Y-65353125D02*
X144256250Y-61453125D01*
X146256250Y-65353125D02*
X144256250Y-65353125D01*
X165306250Y-65353125D02*
X165306250Y-61453125D01*
X163306250Y-65353125D02*
X163306250Y-61453125D01*
X165306250Y-65353125D02*
X163306250Y-65353125D01*
X184356250Y-65353125D02*
X184356250Y-61453125D01*
X182356250Y-65353125D02*
X182356250Y-61453125D01*
X184356250Y-65353125D02*
X182356250Y-65353125D01*
X203406250Y-65353125D02*
X203406250Y-61453125D01*
X201406250Y-65353125D02*
X201406250Y-61453125D01*
X203406250Y-65353125D02*
X201406250Y-65353125D01*
X222456250Y-65353125D02*
X222456250Y-61453125D01*
X220456250Y-65353125D02*
X220456250Y-61453125D01*
X222456250Y-65353125D02*
X220456250Y-65353125D01*
X241506250Y-65353125D02*
X241506250Y-61453125D01*
X239506250Y-65353125D02*
X239506250Y-61453125D01*
X241506250Y-65353125D02*
X239506250Y-65353125D01*
X260556250Y-65353125D02*
X260556250Y-61453125D01*
X258556250Y-65353125D02*
X258556250Y-61453125D01*
X260556250Y-65353125D02*
X258556250Y-65353125D01*
X279606250Y-65353125D02*
X279606250Y-61453125D01*
X277606250Y-65353125D02*
X277606250Y-61453125D01*
X279606250Y-65353125D02*
X277606250Y-65353125D01*
X298656250Y-65353125D02*
X298656250Y-61453125D01*
X296656250Y-65353125D02*
X296656250Y-61453125D01*
X298656250Y-65353125D02*
X296656250Y-65353125D01*
X317706250Y-65353125D02*
X317706250Y-61453125D01*
X315706250Y-65353125D02*
X315706250Y-61453125D01*
X317706250Y-65353125D02*
X315706250Y-65353125D01*
X336756250Y-65353125D02*
X336756250Y-61453125D01*
X334756250Y-65353125D02*
X334756250Y-61453125D01*
X336756250Y-65353125D02*
X334756250Y-65353125D01*
X74818750Y-84403125D02*
X74818750Y-80503125D01*
X72818750Y-84403125D02*
X72818750Y-80503125D01*
X74818750Y-84403125D02*
X72818750Y-84403125D01*
X98631250Y-84400000D02*
X98631250Y-80500000D01*
X96631250Y-84400000D02*
X96631250Y-80500000D01*
X98631250Y-84400000D02*
X96631250Y-84400000D01*
X117681250Y-84403125D02*
X117681250Y-80503125D01*
X115681250Y-84403125D02*
X115681250Y-80503125D01*
X117681250Y-84403125D02*
X115681250Y-84403125D01*
X136731250Y-84403125D02*
X136731250Y-80503125D01*
X134731250Y-84403125D02*
X134731250Y-80503125D01*
X136731250Y-84403125D02*
X134731250Y-84403125D01*
X155781250Y-84403125D02*
X155781250Y-80503125D01*
X153781250Y-84403125D02*
X153781250Y-80503125D01*
X155781250Y-84403125D02*
X153781250Y-84403125D01*
X174831250Y-84403125D02*
X174831250Y-80503125D01*
X172831250Y-84403125D02*
X172831250Y-80503125D01*
X174831250Y-84403125D02*
X172831250Y-84403125D01*
X193881250Y-84403125D02*
X193881250Y-80503125D01*
X191881250Y-84403125D02*
X191881250Y-80503125D01*
X193881250Y-84403125D02*
X191881250Y-84403125D01*
X212931250Y-84403125D02*
X212931250Y-80503125D01*
X210931250Y-84403125D02*
X210931250Y-80503125D01*
X212931250Y-84403125D02*
X210931250Y-84403125D01*
X231981250Y-84403125D02*
X231981250Y-80503125D01*
X229981250Y-84403125D02*
X229981250Y-80503125D01*
X231981250Y-84403125D02*
X229981250Y-84403125D01*
X251031250Y-84403125D02*
X251031250Y-80503125D01*
X249031250Y-84403125D02*
X249031250Y-80503125D01*
X251031250Y-84403125D02*
X249031250Y-84403125D01*
X270081250Y-84403125D02*
X270081250Y-80503125D01*
X268081250Y-84403125D02*
X268081250Y-80503125D01*
X270081250Y-84403125D02*
X268081250Y-84403125D01*
X289131250Y-84403125D02*
X289131250Y-80503125D01*
X287131250Y-84403125D02*
X287131250Y-80503125D01*
X289131250Y-84403125D02*
X287131250Y-84403125D01*
X308181250Y-84403125D02*
X308181250Y-80503125D01*
X306181250Y-84403125D02*
X306181250Y-80503125D01*
X308181250Y-84403125D02*
X306181250Y-84403125D01*
X77200000Y-103453125D02*
X77200000Y-99553125D01*
X75200000Y-103453125D02*
X75200000Y-99553125D01*
X77200000Y-103453125D02*
X75200000Y-103453125D01*
X103393750Y-103453125D02*
X103393750Y-99553125D01*
X101393750Y-103453125D02*
X101393750Y-99553125D01*
X103393750Y-103453125D02*
X101393750Y-103453125D01*
X122500000Y-103500000D02*
X122500000Y-99600000D01*
X120500000Y-103500000D02*
X120500000Y-99600000D01*
X122500000Y-103500000D02*
X120500000Y-103500000D01*
X141493750Y-103453125D02*
X141493750Y-99553125D01*
X139493750Y-103453125D02*
X139493750Y-99553125D01*
X141493750Y-103453125D02*
X139493750Y-103453125D01*
X160543750Y-103453125D02*
X160543750Y-99553125D01*
X158543750Y-103453125D02*
X158543750Y-99553125D01*
X160543750Y-103453125D02*
X158543750Y-103453125D01*
X179593750Y-103453125D02*
X179593750Y-99553125D01*
X177593750Y-103453125D02*
X177593750Y-99553125D01*
X179593750Y-103453125D02*
X177593750Y-103453125D01*
X198643750Y-103453125D02*
X198643750Y-99553125D01*
X196643750Y-103453125D02*
X196643750Y-99553125D01*
X198643750Y-103453125D02*
X196643750Y-103453125D01*
X217693750Y-103453125D02*
X217693750Y-99553125D01*
X215693750Y-103453125D02*
X215693750Y-99553125D01*
X217693750Y-103453125D02*
X215693750Y-103453125D01*
X236743750Y-103453125D02*
X236743750Y-99553125D01*
X234743750Y-103453125D02*
X234743750Y-99553125D01*
X236743750Y-103453125D02*
X234743750Y-103453125D01*
X255793750Y-103453125D02*
X255793750Y-99553125D01*
X253793750Y-103453125D02*
X253793750Y-99553125D01*
X255793750Y-103453125D02*
X253793750Y-103453125D01*
X274843750Y-103453125D02*
X274843750Y-99553125D01*
X272843750Y-103453125D02*
X272843750Y-99553125D01*
X274843750Y-103453125D02*
X272843750Y-103453125D01*
X293893750Y-103453125D02*
X293893750Y-99553125D01*
X291893750Y-103453125D02*
X291893750Y-99553125D01*
X293893750Y-103453125D02*
X291893750Y-103453125D01*
X312943750Y-103453125D02*
X312943750Y-99553125D01*
X310943750Y-103453125D02*
X310943750Y-99553125D01*
X312943750Y-103453125D02*
X310943750Y-103453125D01*
X334375000Y-93928125D02*
X334375000Y-90028125D01*
X332375000Y-93928125D02*
X332375000Y-90028125D01*
X334375000Y-93928125D02*
X332375000Y-93928125D01*
X79581250Y-122503125D02*
X79581250Y-118603125D01*
X77581250Y-122503125D02*
X77581250Y-118603125D01*
X79581250Y-122503125D02*
X77581250Y-122503125D01*
X108156250Y-122503125D02*
X108156250Y-118603125D01*
X106156250Y-122503125D02*
X106156250Y-118603125D01*
X108156250Y-122503125D02*
X106156250Y-122503125D01*
X127300000Y-122500000D02*
X127300000Y-118600000D01*
X125300000Y-122500000D02*
X125300000Y-118600000D01*
X127300000Y-122500000D02*
X125300000Y-122500000D01*
X147400000Y-120050000D02*
X147400000Y-116150000D01*
X145400000Y-120050000D02*
X145400000Y-116150000D01*
X147400000Y-120050000D02*
X145400000Y-120050000D01*
X166106250Y-120103125D02*
X166106250Y-116203125D01*
X164106250Y-120103125D02*
X164106250Y-116203125D01*
X166106250Y-120103125D02*
X164106250Y-120103125D01*
X184356250Y-122503125D02*
X184356250Y-118603125D01*
X182356250Y-122503125D02*
X182356250Y-118603125D01*
X184356250Y-122503125D02*
X182356250Y-122503125D01*
X203406250Y-122503125D02*
X203406250Y-118603125D01*
X201406250Y-122503125D02*
X201406250Y-118603125D01*
X203406250Y-122503125D02*
X201406250Y-122503125D01*
X222456250Y-122503125D02*
X222456250Y-118603125D01*
X220456250Y-122503125D02*
X220456250Y-118603125D01*
X222456250Y-122503125D02*
X220456250Y-122503125D01*
X241506250Y-122503125D02*
X241506250Y-118603125D01*
X239506250Y-122503125D02*
X239506250Y-118603125D01*
X241506250Y-122503125D02*
X239506250Y-122503125D01*
X260556250Y-122503125D02*
X260556250Y-118603125D01*
X258556250Y-122503125D02*
X258556250Y-118603125D01*
X260556250Y-122503125D02*
X258556250Y-122503125D01*
X279606250Y-122503125D02*
X279606250Y-118603125D01*
X277606250Y-122503125D02*
X277606250Y-118603125D01*
X279606250Y-122503125D02*
X277606250Y-122503125D01*
X298656250Y-122503125D02*
X298656250Y-118603125D01*
X296656250Y-122503125D02*
X296656250Y-118603125D01*
X298656250Y-122503125D02*
X296656250Y-122503125D01*
X317706250Y-122503125D02*
X317706250Y-118603125D01*
X315706250Y-122503125D02*
X315706250Y-118603125D01*
X317706250Y-122503125D02*
X315706250Y-122503125D01*
X336756250Y-122503125D02*
X336756250Y-118603125D01*
X334756250Y-122503125D02*
X334756250Y-118603125D01*
X336756250Y-122503125D02*
X334756250Y-122503125D01*
X72437500Y-141553125D02*
X72437500Y-137653125D01*
X70437500Y-141553125D02*
X70437500Y-137653125D01*
X72437500Y-141553125D02*
X70437500Y-141553125D01*
X96250000Y-141553125D02*
X96250000Y-137653125D01*
X94250000Y-141553125D02*
X94250000Y-137653125D01*
X96250000Y-141553125D02*
X94250000Y-141553125D01*
X120062500Y-141553125D02*
X120062500Y-137653125D01*
X118062500Y-141553125D02*
X118062500Y-137653125D01*
X120062500Y-141553125D02*
X118062500Y-141553125D01*
X191500000Y-141553125D02*
X191500000Y-137653125D01*
X189500000Y-141553125D02*
X189500000Y-137653125D01*
X191500000Y-141553125D02*
X189500000Y-141553125D01*
X298656250Y-141553125D02*
X298656250Y-137653125D01*
X296656250Y-141553125D02*
X296656250Y-137653125D01*
X298656250Y-141553125D02*
X296656250Y-141553125D01*
X317706250Y-141553125D02*
X317706250Y-137653125D01*
X315706250Y-141553125D02*
X315706250Y-137653125D01*
X317706250Y-141553125D02*
X315706250Y-141553125D01*
X336756250Y-141553125D02*
X336756250Y-137653125D01*
X334756250Y-141553125D02*
X334756250Y-137653125D01*
X336756250Y-141553125D02*
X334756250Y-141553125D01*
X183868333Y-142365000D02*
X183868333Y-143635000D01*
X185075000Y-143565000D02*
X183868333Y-143565000D01*
X185075000Y-143445000D02*
X183868333Y-143445000D01*
X185075000Y-143325000D02*
X183868333Y-143325000D01*
X185075000Y-143205000D02*
X183868333Y-143205000D01*
X185075000Y-143085000D02*
X183868333Y-143085000D01*
X185075000Y-142965000D02*
X183868333Y-142965000D01*
X185075000Y-142845000D02*
X183868333Y-142845000D01*
X185075000Y-142725000D02*
X183868333Y-142725000D01*
X185075000Y-142605000D02*
X183868333Y-142605000D01*
X185075000Y-142485000D02*
X183868333Y-142485000D01*
X181455000Y-142365000D02*
X185075000Y-142365000D01*
X181455000Y-143635000D02*
X181455000Y-142365000D01*
X185075000Y-143635000D02*
X181455000Y-143635000D01*
X185075000Y-142365000D02*
X185075000Y-143635000D01*
X186915000Y-140650000D02*
X186915000Y-142033000D01*
X186915000Y-140650000D02*
X185532000Y-140650000D01*
X179855000Y-143800000D02*
X179855000Y-145110000D01*
X179855000Y-140890000D02*
X179855000Y-142200000D01*
X186675000Y-143800000D02*
X186675000Y-145110000D01*
X186675000Y-140890000D02*
X186675000Y-142200000D01*
X186675000Y-145110000D02*
X179855000Y-145110000D01*
X186675000Y-140890000D02*
X179855000Y-140890000D01*
D10*
X47978190Y-66972666D02*
X47740095Y-66806000D01*
X47978190Y-66686952D02*
X47478190Y-66686952D01*
X47478190Y-66877428D01*
X47502000Y-66925047D01*
X47525809Y-66948857D01*
X47573428Y-66972666D01*
X47644857Y-66972666D01*
X47692476Y-66948857D01*
X47716285Y-66925047D01*
X47740095Y-66877428D01*
X47740095Y-66686952D01*
X47478190Y-67139333D02*
X47478190Y-67472666D01*
X47978190Y-67258380D01*
X47978190Y-69004666D02*
X47740095Y-68838000D01*
X47978190Y-68718952D02*
X47478190Y-68718952D01*
X47478190Y-68909428D01*
X47502000Y-68957047D01*
X47525809Y-68980857D01*
X47573428Y-69004666D01*
X47644857Y-69004666D01*
X47692476Y-68980857D01*
X47716285Y-68957047D01*
X47740095Y-68909428D01*
X47740095Y-68718952D01*
X47478190Y-69433238D02*
X47478190Y-69338000D01*
X47502000Y-69290380D01*
X47525809Y-69266571D01*
X47597238Y-69218952D01*
X47692476Y-69195142D01*
X47882952Y-69195142D01*
X47930571Y-69218952D01*
X47954380Y-69242761D01*
X47978190Y-69290380D01*
X47978190Y-69385619D01*
X47954380Y-69433238D01*
X47930571Y-69457047D01*
X47882952Y-69480857D01*
X47763904Y-69480857D01*
X47716285Y-69457047D01*
X47692476Y-69433238D01*
X47668666Y-69385619D01*
X47668666Y-69290380D01*
X47692476Y-69242761D01*
X47716285Y-69218952D01*
X47763904Y-69195142D01*
X47978190Y-71036666D02*
X47740095Y-70870000D01*
X47978190Y-70750952D02*
X47478190Y-70750952D01*
X47478190Y-70941428D01*
X47502000Y-70989047D01*
X47525809Y-71012857D01*
X47573428Y-71036666D01*
X47644857Y-71036666D01*
X47692476Y-71012857D01*
X47716285Y-70989047D01*
X47740095Y-70941428D01*
X47740095Y-70750952D01*
X47478190Y-71489047D02*
X47478190Y-71250952D01*
X47716285Y-71227142D01*
X47692476Y-71250952D01*
X47668666Y-71298571D01*
X47668666Y-71417619D01*
X47692476Y-71465238D01*
X47716285Y-71489047D01*
X47763904Y-71512857D01*
X47882952Y-71512857D01*
X47930571Y-71489047D01*
X47954380Y-71465238D01*
X47978190Y-71417619D01*
X47978190Y-71298571D01*
X47954380Y-71250952D01*
X47930571Y-71227142D01*
X47978190Y-64940666D02*
X47740095Y-64774000D01*
X47978190Y-64654952D02*
X47478190Y-64654952D01*
X47478190Y-64845428D01*
X47502000Y-64893047D01*
X47525809Y-64916857D01*
X47573428Y-64940666D01*
X47644857Y-64940666D01*
X47692476Y-64916857D01*
X47716285Y-64893047D01*
X47740095Y-64845428D01*
X47740095Y-64654952D01*
X47525809Y-65131142D02*
X47502000Y-65154952D01*
X47478190Y-65202571D01*
X47478190Y-65321619D01*
X47502000Y-65369238D01*
X47525809Y-65393047D01*
X47573428Y-65416857D01*
X47621047Y-65416857D01*
X47692476Y-65393047D01*
X47978190Y-65107333D01*
X47978190Y-65416857D01*
X50518190Y-59606666D02*
X50280095Y-59440000D01*
X50518190Y-59320952D02*
X50018190Y-59320952D01*
X50018190Y-59511428D01*
X50042000Y-59559047D01*
X50065809Y-59582857D01*
X50113428Y-59606666D01*
X50184857Y-59606666D01*
X50232476Y-59582857D01*
X50256285Y-59559047D01*
X50280095Y-59511428D01*
X50280095Y-59320952D01*
X50518190Y-60082857D02*
X50518190Y-59797142D01*
X50518190Y-59940000D02*
X50018190Y-59940000D01*
X50089619Y-59892380D01*
X50137238Y-59844761D01*
X50161047Y-59797142D01*
X50256285Y-62063333D02*
X50256285Y-61896666D01*
X50518190Y-61896666D02*
X50018190Y-61896666D01*
X50018190Y-62134761D01*
X50518190Y-62587142D02*
X50518190Y-62301428D01*
X50518190Y-62444285D02*
X50018190Y-62444285D01*
X50089619Y-62396666D01*
X50137238Y-62349047D01*
X50161047Y-62301428D01*
X43787142Y-54836190D02*
X43787142Y-54336190D01*
X43668095Y-54336190D01*
X43596666Y-54360000D01*
X43549047Y-54407619D01*
X43525238Y-54455238D01*
X43501428Y-54550476D01*
X43501428Y-54621904D01*
X43525238Y-54717142D01*
X43549047Y-54764761D01*
X43596666Y-54812380D01*
X43668095Y-54836190D01*
X43787142Y-54836190D01*
X43072857Y-54336190D02*
X43168095Y-54336190D01*
X43215714Y-54360000D01*
X43239523Y-54383809D01*
X43287142Y-54455238D01*
X43310952Y-54550476D01*
X43310952Y-54740952D01*
X43287142Y-54788571D01*
X43263333Y-54812380D01*
X43215714Y-54836190D01*
X43120476Y-54836190D01*
X43072857Y-54812380D01*
X43049047Y-54788571D01*
X43025238Y-54740952D01*
X43025238Y-54621904D01*
X43049047Y-54574285D01*
X43072857Y-54550476D01*
X43120476Y-54526666D01*
X43215714Y-54526666D01*
X43263333Y-54550476D01*
X43287142Y-54574285D01*
X43310952Y-54621904D01*
X42572857Y-54336190D02*
X42810952Y-54336190D01*
X42834761Y-54574285D01*
X42810952Y-54550476D01*
X42763333Y-54526666D01*
X42644285Y-54526666D01*
X42596666Y-54550476D01*
X42572857Y-54574285D01*
X42549047Y-54621904D01*
X42549047Y-54740952D01*
X42572857Y-54788571D01*
X42596666Y-54812380D01*
X42644285Y-54836190D01*
X42763333Y-54836190D01*
X42810952Y-54812380D01*
X42834761Y-54788571D01*
X43787142Y-58265190D02*
X43787142Y-57765190D01*
X43668095Y-57765190D01*
X43596666Y-57789000D01*
X43549047Y-57836619D01*
X43525238Y-57884238D01*
X43501428Y-57979476D01*
X43501428Y-58050904D01*
X43525238Y-58146142D01*
X43549047Y-58193761D01*
X43596666Y-58241380D01*
X43668095Y-58265190D01*
X43787142Y-58265190D01*
X43072857Y-57765190D02*
X43168095Y-57765190D01*
X43215714Y-57789000D01*
X43239523Y-57812809D01*
X43287142Y-57884238D01*
X43310952Y-57979476D01*
X43310952Y-58169952D01*
X43287142Y-58217571D01*
X43263333Y-58241380D01*
X43215714Y-58265190D01*
X43120476Y-58265190D01*
X43072857Y-58241380D01*
X43049047Y-58217571D01*
X43025238Y-58169952D01*
X43025238Y-58050904D01*
X43049047Y-58003285D01*
X43072857Y-57979476D01*
X43120476Y-57955666D01*
X43215714Y-57955666D01*
X43263333Y-57979476D01*
X43287142Y-58003285D01*
X43310952Y-58050904D01*
X42596666Y-57931857D02*
X42596666Y-58265190D01*
X42715714Y-57741380D02*
X42834761Y-58098523D01*
X42525238Y-58098523D01*
D11*
X162461904Y-131852380D02*
X162461904Y-132661904D01*
X162414285Y-132757142D01*
X162366666Y-132804761D01*
X162271428Y-132852380D01*
X162080952Y-132852380D01*
X161985714Y-132804761D01*
X161938095Y-132757142D01*
X161890476Y-132661904D01*
X161890476Y-131852380D01*
X160890476Y-132852380D02*
X161461904Y-132852380D01*
X161176190Y-132852380D02*
X161176190Y-131852380D01*
X161271428Y-131995238D01*
X161366666Y-132090476D01*
X161461904Y-132138095D01*
X164766666Y-122202380D02*
X165100000Y-121726190D01*
X165338095Y-122202380D02*
X165338095Y-121202380D01*
X164957142Y-121202380D01*
X164861904Y-121250000D01*
X164814285Y-121297619D01*
X164766666Y-121392857D01*
X164766666Y-121535714D01*
X164814285Y-121630952D01*
X164861904Y-121678571D01*
X164957142Y-121726190D01*
X165338095Y-121726190D01*
X163909523Y-121535714D02*
X163909523Y-122202380D01*
X164147619Y-121154761D02*
X164385714Y-121869047D01*
X163766666Y-121869047D01*
X164891666Y-140602380D02*
X165225000Y-140126190D01*
X165463095Y-140602380D02*
X165463095Y-139602380D01*
X165082142Y-139602380D01*
X164986904Y-139650000D01*
X164939285Y-139697619D01*
X164891666Y-139792857D01*
X164891666Y-139935714D01*
X164939285Y-140030952D01*
X164986904Y-140078571D01*
X165082142Y-140126190D01*
X165463095Y-140126190D01*
X164558333Y-139602380D02*
X163939285Y-139602380D01*
X164272619Y-139983333D01*
X164129761Y-139983333D01*
X164034523Y-140030952D01*
X163986904Y-140078571D01*
X163939285Y-140173809D01*
X163939285Y-140411904D01*
X163986904Y-140507142D01*
X164034523Y-140554761D01*
X164129761Y-140602380D01*
X164415476Y-140602380D01*
X164510714Y-140554761D01*
X164558333Y-140507142D01*
X158191666Y-140107142D02*
X158239285Y-140154761D01*
X158382142Y-140202380D01*
X158477380Y-140202380D01*
X158620238Y-140154761D01*
X158715476Y-140059523D01*
X158763095Y-139964285D01*
X158810714Y-139773809D01*
X158810714Y-139630952D01*
X158763095Y-139440476D01*
X158715476Y-139345238D01*
X158620238Y-139250000D01*
X158477380Y-139202380D01*
X158382142Y-139202380D01*
X158239285Y-139250000D01*
X158191666Y-139297619D01*
X157620238Y-139630952D02*
X157715476Y-139583333D01*
X157763095Y-139535714D01*
X157810714Y-139440476D01*
X157810714Y-139392857D01*
X157763095Y-139297619D01*
X157715476Y-139250000D01*
X157620238Y-139202380D01*
X157429761Y-139202380D01*
X157334523Y-139250000D01*
X157286904Y-139297619D01*
X157239285Y-139392857D01*
X157239285Y-139440476D01*
X157286904Y-139535714D01*
X157334523Y-139583333D01*
X157429761Y-139630952D01*
X157620238Y-139630952D01*
X157715476Y-139678571D01*
X157763095Y-139726190D01*
X157810714Y-139821428D01*
X157810714Y-140011904D01*
X157763095Y-140107142D01*
X157715476Y-140154761D01*
X157620238Y-140202380D01*
X157429761Y-140202380D01*
X157334523Y-140154761D01*
X157286904Y-140107142D01*
X157239285Y-140011904D01*
X157239285Y-139821428D01*
X157286904Y-139726190D01*
X157334523Y-139678571D01*
X157429761Y-139630952D01*
X164791666Y-126807142D02*
X164839285Y-126854761D01*
X164982142Y-126902380D01*
X165077380Y-126902380D01*
X165220238Y-126854761D01*
X165315476Y-126759523D01*
X165363095Y-126664285D01*
X165410714Y-126473809D01*
X165410714Y-126330952D01*
X165363095Y-126140476D01*
X165315476Y-126045238D01*
X165220238Y-125950000D01*
X165077380Y-125902380D01*
X164982142Y-125902380D01*
X164839285Y-125950000D01*
X164791666Y-125997619D01*
X164458333Y-125902380D02*
X163791666Y-125902380D01*
X164220238Y-126902380D01*
X164891666Y-133907142D02*
X164939285Y-133954761D01*
X165082142Y-134002380D01*
X165177380Y-134002380D01*
X165320238Y-133954761D01*
X165415476Y-133859523D01*
X165463095Y-133764285D01*
X165510714Y-133573809D01*
X165510714Y-133430952D01*
X165463095Y-133240476D01*
X165415476Y-133145238D01*
X165320238Y-133050000D01*
X165177380Y-133002380D01*
X165082142Y-133002380D01*
X164939285Y-133050000D01*
X164891666Y-133097619D01*
X164034523Y-133002380D02*
X164225000Y-133002380D01*
X164320238Y-133050000D01*
X164367857Y-133097619D01*
X164463095Y-133240476D01*
X164510714Y-133430952D01*
X164510714Y-133811904D01*
X164463095Y-133907142D01*
X164415476Y-133954761D01*
X164320238Y-134002380D01*
X164129761Y-134002380D01*
X164034523Y-133954761D01*
X163986904Y-133907142D01*
X163939285Y-133811904D01*
X163939285Y-133573809D01*
X163986904Y-133478571D01*
X164034523Y-133430952D01*
X164129761Y-133383333D01*
X164320238Y-133383333D01*
X164415476Y-133430952D01*
X164463095Y-133478571D01*
X164510714Y-133573809D01*
X142191666Y-123907142D02*
X142239285Y-123954761D01*
X142382142Y-124002380D01*
X142477380Y-124002380D01*
X142620238Y-123954761D01*
X142715476Y-123859523D01*
X142763095Y-123764285D01*
X142810714Y-123573809D01*
X142810714Y-123430952D01*
X142763095Y-123240476D01*
X142715476Y-123145238D01*
X142620238Y-123050000D01*
X142477380Y-123002380D01*
X142382142Y-123002380D01*
X142239285Y-123050000D01*
X142191666Y-123097619D01*
X141286904Y-123002380D02*
X141763095Y-123002380D01*
X141810714Y-123478571D01*
X141763095Y-123430952D01*
X141667857Y-123383333D01*
X141429761Y-123383333D01*
X141334523Y-123430952D01*
X141286904Y-123478571D01*
X141239285Y-123573809D01*
X141239285Y-123811904D01*
X141286904Y-123907142D01*
X141334523Y-123954761D01*
X141429761Y-124002380D01*
X141667857Y-124002380D01*
X141763095Y-123954761D01*
X141810714Y-123907142D01*
X142191666Y-139307142D02*
X142239285Y-139354761D01*
X142382142Y-139402380D01*
X142477380Y-139402380D01*
X142620238Y-139354761D01*
X142715476Y-139259523D01*
X142763095Y-139164285D01*
X142810714Y-138973809D01*
X142810714Y-138830952D01*
X142763095Y-138640476D01*
X142715476Y-138545238D01*
X142620238Y-138450000D01*
X142477380Y-138402380D01*
X142382142Y-138402380D01*
X142239285Y-138450000D01*
X142191666Y-138497619D01*
X141334523Y-138735714D02*
X141334523Y-139402380D01*
X141572619Y-138354761D02*
X141810714Y-139069047D01*
X141191666Y-139069047D01*
X142191666Y-142407142D02*
X142239285Y-142454761D01*
X142382142Y-142502380D01*
X142477380Y-142502380D01*
X142620238Y-142454761D01*
X142715476Y-142359523D01*
X142763095Y-142264285D01*
X142810714Y-142073809D01*
X142810714Y-141930952D01*
X142763095Y-141740476D01*
X142715476Y-141645238D01*
X142620238Y-141550000D01*
X142477380Y-141502380D01*
X142382142Y-141502380D01*
X142239285Y-141550000D01*
X142191666Y-141597619D01*
X141858333Y-141502380D02*
X141239285Y-141502380D01*
X141572619Y-141883333D01*
X141429761Y-141883333D01*
X141334523Y-141930952D01*
X141286904Y-141978571D01*
X141239285Y-142073809D01*
X141239285Y-142311904D01*
X141286904Y-142407142D01*
X141334523Y-142454761D01*
X141429761Y-142502380D01*
X141715476Y-142502380D01*
X141810714Y-142454761D01*
X141858333Y-142407142D01*
X142191666Y-136407142D02*
X142239285Y-136454761D01*
X142382142Y-136502380D01*
X142477380Y-136502380D01*
X142620238Y-136454761D01*
X142715476Y-136359523D01*
X142763095Y-136264285D01*
X142810714Y-136073809D01*
X142810714Y-135930952D01*
X142763095Y-135740476D01*
X142715476Y-135645238D01*
X142620238Y-135550000D01*
X142477380Y-135502380D01*
X142382142Y-135502380D01*
X142239285Y-135550000D01*
X142191666Y-135597619D01*
X141810714Y-135597619D02*
X141763095Y-135550000D01*
X141667857Y-135502380D01*
X141429761Y-135502380D01*
X141334523Y-135550000D01*
X141286904Y-135597619D01*
X141239285Y-135692857D01*
X141239285Y-135788095D01*
X141286904Y-135930952D01*
X141858333Y-136502380D01*
X141239285Y-136502380D01*
X142166666Y-127007142D02*
X142214285Y-127054761D01*
X142357142Y-127102380D01*
X142452380Y-127102380D01*
X142595238Y-127054761D01*
X142690476Y-126959523D01*
X142738095Y-126864285D01*
X142785714Y-126673809D01*
X142785714Y-126530952D01*
X142738095Y-126340476D01*
X142690476Y-126245238D01*
X142595238Y-126150000D01*
X142452380Y-126102380D01*
X142357142Y-126102380D01*
X142214285Y-126150000D01*
X142166666Y-126197619D01*
X141214285Y-127102380D02*
X141785714Y-127102380D01*
X141500000Y-127102380D02*
X141500000Y-126102380D01*
X141595238Y-126245238D01*
X141690476Y-126340476D01*
X141785714Y-126388095D01*
X139676190Y-129423809D02*
X140152380Y-129423809D01*
X139152380Y-129090476D02*
X139676190Y-129423809D01*
X139152380Y-129757142D01*
X140152380Y-130614285D02*
X140152380Y-130042857D01*
X140152380Y-130328571D02*
X139152380Y-130328571D01*
X139295238Y-130233333D01*
X139390476Y-130138095D01*
X139438095Y-130042857D01*
X184570535Y-139231630D02*
X184570535Y-138231630D01*
X183999107Y-139231630D02*
X184427678Y-138660202D01*
X183999107Y-138231630D02*
X184570535Y-138803059D01*
X183141964Y-138231630D02*
X183332440Y-138231630D01*
X183427678Y-138279250D01*
X183475297Y-138326869D01*
X183570535Y-138469726D01*
X183618154Y-138660202D01*
X183618154Y-139041154D01*
X183570535Y-139136392D01*
X183522916Y-139184011D01*
X183427678Y-139231630D01*
X183237202Y-139231630D01*
X183141964Y-139184011D01*
X183094345Y-139136392D01*
X183046726Y-139041154D01*
X183046726Y-138803059D01*
X183094345Y-138707821D01*
X183141964Y-138660202D01*
X183237202Y-138612583D01*
X183427678Y-138612583D01*
X183522916Y-138660202D01*
X183570535Y-138707821D01*
X183618154Y-138803059D01*
X182427678Y-138231630D02*
X182332440Y-138231630D01*
X182237202Y-138279250D01*
X182189583Y-138326869D01*
X182141964Y-138422107D01*
X182094345Y-138612583D01*
X182094345Y-138850678D01*
X182141964Y-139041154D01*
X182189583Y-139136392D01*
X182237202Y-139184011D01*
X182332440Y-139231630D01*
X182427678Y-139231630D01*
X182522916Y-139184011D01*
X182570535Y-139136392D01*
X182618154Y-139041154D01*
X182665773Y-138850678D01*
X182665773Y-138612583D01*
X182618154Y-138422107D01*
X182570535Y-138326869D01*
X182522916Y-138279250D01*
X182427678Y-138231630D01*
X167742380Y-142131904D02*
X166742380Y-142131904D01*
X166742380Y-142512857D01*
X166790000Y-142608095D01*
X166837619Y-142655714D01*
X166932857Y-142703333D01*
X167075714Y-142703333D01*
X167170952Y-142655714D01*
X167218571Y-142608095D01*
X167266190Y-142512857D01*
X167266190Y-142131904D01*
X167742380Y-143655714D02*
X167742380Y-143084285D01*
X167742380Y-143370000D02*
X166742380Y-143370000D01*
X166885238Y-143274761D01*
X166980476Y-143179523D01*
X167028095Y-143084285D01*
X291726785Y-63031630D02*
X291726785Y-62031630D01*
X291155357Y-63031630D02*
X291583928Y-62460202D01*
X291155357Y-62031630D02*
X291726785Y-62603059D01*
X290202976Y-63031630D02*
X290774404Y-63031630D01*
X290488690Y-63031630D02*
X290488690Y-62031630D01*
X290583928Y-62174488D01*
X290679166Y-62269726D01*
X290774404Y-62317345D01*
X289869642Y-62031630D02*
X289250595Y-62031630D01*
X289583928Y-62412583D01*
X289441071Y-62412583D01*
X289345833Y-62460202D01*
X289298214Y-62507821D01*
X289250595Y-62603059D01*
X289250595Y-62841154D01*
X289298214Y-62936392D01*
X289345833Y-62984011D01*
X289441071Y-63031630D01*
X289726785Y-63031630D01*
X289822023Y-62984011D01*
X289869642Y-62936392D01*
X72651785Y-120181630D02*
X72651785Y-119181630D01*
X72080357Y-120181630D02*
X72508928Y-119610202D01*
X72080357Y-119181630D02*
X72651785Y-119753059D01*
X71223214Y-119514964D02*
X71223214Y-120181630D01*
X71461309Y-119134011D02*
X71699404Y-119848297D01*
X71080357Y-119848297D01*
X70794642Y-119181630D02*
X70175595Y-119181630D01*
X70508928Y-119562583D01*
X70366071Y-119562583D01*
X70270833Y-119610202D01*
X70223214Y-119657821D01*
X70175595Y-119753059D01*
X70175595Y-119991154D01*
X70223214Y-120086392D01*
X70270833Y-120134011D01*
X70366071Y-120181630D01*
X70651785Y-120181630D01*
X70747023Y-120134011D01*
X70794642Y-120086392D01*
X113133035Y-139231630D02*
X113133035Y-138231630D01*
X112561607Y-139231630D02*
X112990178Y-138660202D01*
X112561607Y-138231630D02*
X113133035Y-138803059D01*
X111656845Y-138231630D02*
X112133035Y-138231630D01*
X112180654Y-138707821D01*
X112133035Y-138660202D01*
X112037797Y-138612583D01*
X111799702Y-138612583D01*
X111704464Y-138660202D01*
X111656845Y-138707821D01*
X111609226Y-138803059D01*
X111609226Y-139041154D01*
X111656845Y-139136392D01*
X111704464Y-139184011D01*
X111799702Y-139231630D01*
X112037797Y-139231630D01*
X112133035Y-139184011D01*
X112180654Y-139136392D01*
X111133035Y-139231630D02*
X110942559Y-139231630D01*
X110847321Y-139184011D01*
X110799702Y-139136392D01*
X110704464Y-138993535D01*
X110656845Y-138803059D01*
X110656845Y-138422107D01*
X110704464Y-138326869D01*
X110752083Y-138279250D01*
X110847321Y-138231630D01*
X111037797Y-138231630D01*
X111133035Y-138279250D01*
X111180654Y-138326869D01*
X111228273Y-138422107D01*
X111228273Y-138660202D01*
X111180654Y-138755440D01*
X111133035Y-138803059D01*
X111037797Y-138850678D01*
X110847321Y-138850678D01*
X110752083Y-138803059D01*
X110704464Y-138755440D01*
X110656845Y-138660202D01*
X89320535Y-139231630D02*
X89320535Y-138231630D01*
X88749107Y-139231630D02*
X89177678Y-138660202D01*
X88749107Y-138231630D02*
X89320535Y-138803059D01*
X87844345Y-138231630D02*
X88320535Y-138231630D01*
X88368154Y-138707821D01*
X88320535Y-138660202D01*
X88225297Y-138612583D01*
X87987202Y-138612583D01*
X87891964Y-138660202D01*
X87844345Y-138707821D01*
X87796726Y-138803059D01*
X87796726Y-139041154D01*
X87844345Y-139136392D01*
X87891964Y-139184011D01*
X87987202Y-139231630D01*
X88225297Y-139231630D01*
X88320535Y-139184011D01*
X88368154Y-139136392D01*
X87225297Y-138660202D02*
X87320535Y-138612583D01*
X87368154Y-138564964D01*
X87415773Y-138469726D01*
X87415773Y-138422107D01*
X87368154Y-138326869D01*
X87320535Y-138279250D01*
X87225297Y-138231630D01*
X87034821Y-138231630D01*
X86939583Y-138279250D01*
X86891964Y-138326869D01*
X86844345Y-138422107D01*
X86844345Y-138469726D01*
X86891964Y-138564964D01*
X86939583Y-138612583D01*
X87034821Y-138660202D01*
X87225297Y-138660202D01*
X87320535Y-138707821D01*
X87368154Y-138755440D01*
X87415773Y-138850678D01*
X87415773Y-139041154D01*
X87368154Y-139136392D01*
X87320535Y-139184011D01*
X87225297Y-139231630D01*
X87034821Y-139231630D01*
X86939583Y-139184011D01*
X86891964Y-139136392D01*
X86844345Y-139041154D01*
X86844345Y-138850678D01*
X86891964Y-138755440D01*
X86939583Y-138707821D01*
X87034821Y-138660202D01*
X65508035Y-139231630D02*
X65508035Y-138231630D01*
X64936607Y-139231630D02*
X65365178Y-138660202D01*
X64936607Y-138231630D02*
X65508035Y-138803059D01*
X64031845Y-138231630D02*
X64508035Y-138231630D01*
X64555654Y-138707821D01*
X64508035Y-138660202D01*
X64412797Y-138612583D01*
X64174702Y-138612583D01*
X64079464Y-138660202D01*
X64031845Y-138707821D01*
X63984226Y-138803059D01*
X63984226Y-139041154D01*
X64031845Y-139136392D01*
X64079464Y-139184011D01*
X64174702Y-139231630D01*
X64412797Y-139231630D01*
X64508035Y-139184011D01*
X64555654Y-139136392D01*
X63650892Y-138231630D02*
X62984226Y-138231630D01*
X63412797Y-139231630D01*
X329826785Y-120181630D02*
X329826785Y-119181630D01*
X329255357Y-120181630D02*
X329683928Y-119610202D01*
X329255357Y-119181630D02*
X329826785Y-119753059D01*
X328350595Y-119181630D02*
X328826785Y-119181630D01*
X328874404Y-119657821D01*
X328826785Y-119610202D01*
X328731547Y-119562583D01*
X328493452Y-119562583D01*
X328398214Y-119610202D01*
X328350595Y-119657821D01*
X328302976Y-119753059D01*
X328302976Y-119991154D01*
X328350595Y-120086392D01*
X328398214Y-120134011D01*
X328493452Y-120181630D01*
X328731547Y-120181630D01*
X328826785Y-120134011D01*
X328874404Y-120086392D01*
X327445833Y-119181630D02*
X327636309Y-119181630D01*
X327731547Y-119229250D01*
X327779166Y-119276869D01*
X327874404Y-119419726D01*
X327922023Y-119610202D01*
X327922023Y-119991154D01*
X327874404Y-120086392D01*
X327826785Y-120134011D01*
X327731547Y-120181630D01*
X327541071Y-120181630D01*
X327445833Y-120134011D01*
X327398214Y-120086392D01*
X327350595Y-119991154D01*
X327350595Y-119753059D01*
X327398214Y-119657821D01*
X327445833Y-119610202D01*
X327541071Y-119562583D01*
X327731547Y-119562583D01*
X327826785Y-119610202D01*
X327874404Y-119657821D01*
X327922023Y-119753059D01*
X71508630Y-62365029D02*
X70508630Y-62365029D01*
X70508630Y-62603125D01*
X70556250Y-62745982D01*
X70651488Y-62841220D01*
X70746726Y-62888839D01*
X70937202Y-62936458D01*
X71080059Y-62936458D01*
X71270535Y-62888839D01*
X71365773Y-62841220D01*
X71461011Y-62745982D01*
X71508630Y-62603125D01*
X71508630Y-62365029D01*
X71508630Y-63888839D02*
X71508630Y-63317410D01*
X71508630Y-63603125D02*
X70508630Y-63603125D01*
X70651488Y-63507886D01*
X70746726Y-63412648D01*
X70794345Y-63317410D01*
X90652380Y-62311904D02*
X89652380Y-62311904D01*
X89652380Y-62550000D01*
X89700000Y-62692857D01*
X89795238Y-62788095D01*
X89890476Y-62835714D01*
X90080952Y-62883333D01*
X90223809Y-62883333D01*
X90414285Y-62835714D01*
X90509523Y-62788095D01*
X90604761Y-62692857D01*
X90652380Y-62550000D01*
X90652380Y-62311904D01*
X89747619Y-63264285D02*
X89700000Y-63311904D01*
X89652380Y-63407142D01*
X89652380Y-63645238D01*
X89700000Y-63740476D01*
X89747619Y-63788095D01*
X89842857Y-63835714D01*
X89938095Y-63835714D01*
X90080952Y-63788095D01*
X90652380Y-63216666D01*
X90652380Y-63835714D01*
X109608630Y-62365029D02*
X108608630Y-62365029D01*
X108608630Y-62603125D01*
X108656250Y-62745982D01*
X108751488Y-62841220D01*
X108846726Y-62888839D01*
X109037202Y-62936458D01*
X109180059Y-62936458D01*
X109370535Y-62888839D01*
X109465773Y-62841220D01*
X109561011Y-62745982D01*
X109608630Y-62603125D01*
X109608630Y-62365029D01*
X108608630Y-63269791D02*
X108608630Y-63888839D01*
X108989583Y-63555505D01*
X108989583Y-63698363D01*
X109037202Y-63793601D01*
X109084821Y-63841220D01*
X109180059Y-63888839D01*
X109418154Y-63888839D01*
X109513392Y-63841220D01*
X109561011Y-63793601D01*
X109608630Y-63698363D01*
X109608630Y-63412648D01*
X109561011Y-63317410D01*
X109513392Y-63269791D01*
X128658630Y-62365029D02*
X127658630Y-62365029D01*
X127658630Y-62603125D01*
X127706250Y-62745982D01*
X127801488Y-62841220D01*
X127896726Y-62888839D01*
X128087202Y-62936458D01*
X128230059Y-62936458D01*
X128420535Y-62888839D01*
X128515773Y-62841220D01*
X128611011Y-62745982D01*
X128658630Y-62603125D01*
X128658630Y-62365029D01*
X127991964Y-63793601D02*
X128658630Y-63793601D01*
X127611011Y-63555505D02*
X128325297Y-63317410D01*
X128325297Y-63936458D01*
X147708630Y-62365029D02*
X146708630Y-62365029D01*
X146708630Y-62603125D01*
X146756250Y-62745982D01*
X146851488Y-62841220D01*
X146946726Y-62888839D01*
X147137202Y-62936458D01*
X147280059Y-62936458D01*
X147470535Y-62888839D01*
X147565773Y-62841220D01*
X147661011Y-62745982D01*
X147708630Y-62603125D01*
X147708630Y-62365029D01*
X146708630Y-63841220D02*
X146708630Y-63365029D01*
X147184821Y-63317410D01*
X147137202Y-63365029D01*
X147089583Y-63460267D01*
X147089583Y-63698363D01*
X147137202Y-63793601D01*
X147184821Y-63841220D01*
X147280059Y-63888839D01*
X147518154Y-63888839D01*
X147613392Y-63841220D01*
X147661011Y-63793601D01*
X147708630Y-63698363D01*
X147708630Y-63460267D01*
X147661011Y-63365029D01*
X147613392Y-63317410D01*
X166758630Y-62365029D02*
X165758630Y-62365029D01*
X165758630Y-62603125D01*
X165806250Y-62745982D01*
X165901488Y-62841220D01*
X165996726Y-62888839D01*
X166187202Y-62936458D01*
X166330059Y-62936458D01*
X166520535Y-62888839D01*
X166615773Y-62841220D01*
X166711011Y-62745982D01*
X166758630Y-62603125D01*
X166758630Y-62365029D01*
X165758630Y-63793601D02*
X165758630Y-63603125D01*
X165806250Y-63507886D01*
X165853869Y-63460267D01*
X165996726Y-63365029D01*
X166187202Y-63317410D01*
X166568154Y-63317410D01*
X166663392Y-63365029D01*
X166711011Y-63412648D01*
X166758630Y-63507886D01*
X166758630Y-63698363D01*
X166711011Y-63793601D01*
X166663392Y-63841220D01*
X166568154Y-63888839D01*
X166330059Y-63888839D01*
X166234821Y-63841220D01*
X166187202Y-63793601D01*
X166139583Y-63698363D01*
X166139583Y-63507886D01*
X166187202Y-63412648D01*
X166234821Y-63365029D01*
X166330059Y-63317410D01*
X185808630Y-62365029D02*
X184808630Y-62365029D01*
X184808630Y-62603125D01*
X184856250Y-62745982D01*
X184951488Y-62841220D01*
X185046726Y-62888839D01*
X185237202Y-62936458D01*
X185380059Y-62936458D01*
X185570535Y-62888839D01*
X185665773Y-62841220D01*
X185761011Y-62745982D01*
X185808630Y-62603125D01*
X185808630Y-62365029D01*
X184808630Y-63269791D02*
X184808630Y-63936458D01*
X185808630Y-63507886D01*
X204858630Y-62365029D02*
X203858630Y-62365029D01*
X203858630Y-62603125D01*
X203906250Y-62745982D01*
X204001488Y-62841220D01*
X204096726Y-62888839D01*
X204287202Y-62936458D01*
X204430059Y-62936458D01*
X204620535Y-62888839D01*
X204715773Y-62841220D01*
X204811011Y-62745982D01*
X204858630Y-62603125D01*
X204858630Y-62365029D01*
X204287202Y-63507886D02*
X204239583Y-63412648D01*
X204191964Y-63365029D01*
X204096726Y-63317410D01*
X204049107Y-63317410D01*
X203953869Y-63365029D01*
X203906250Y-63412648D01*
X203858630Y-63507886D01*
X203858630Y-63698363D01*
X203906250Y-63793601D01*
X203953869Y-63841220D01*
X204049107Y-63888839D01*
X204096726Y-63888839D01*
X204191964Y-63841220D01*
X204239583Y-63793601D01*
X204287202Y-63698363D01*
X204287202Y-63507886D01*
X204334821Y-63412648D01*
X204382440Y-63365029D01*
X204477678Y-63317410D01*
X204668154Y-63317410D01*
X204763392Y-63365029D01*
X204811011Y-63412648D01*
X204858630Y-63507886D01*
X204858630Y-63698363D01*
X204811011Y-63793601D01*
X204763392Y-63841220D01*
X204668154Y-63888839D01*
X204477678Y-63888839D01*
X204382440Y-63841220D01*
X204334821Y-63793601D01*
X204287202Y-63698363D01*
X223908630Y-62365029D02*
X222908630Y-62365029D01*
X222908630Y-62603125D01*
X222956250Y-62745982D01*
X223051488Y-62841220D01*
X223146726Y-62888839D01*
X223337202Y-62936458D01*
X223480059Y-62936458D01*
X223670535Y-62888839D01*
X223765773Y-62841220D01*
X223861011Y-62745982D01*
X223908630Y-62603125D01*
X223908630Y-62365029D01*
X223908630Y-63412648D02*
X223908630Y-63603125D01*
X223861011Y-63698363D01*
X223813392Y-63745982D01*
X223670535Y-63841220D01*
X223480059Y-63888839D01*
X223099107Y-63888839D01*
X223003869Y-63841220D01*
X222956250Y-63793601D01*
X222908630Y-63698363D01*
X222908630Y-63507886D01*
X222956250Y-63412648D01*
X223003869Y-63365029D01*
X223099107Y-63317410D01*
X223337202Y-63317410D01*
X223432440Y-63365029D01*
X223480059Y-63412648D01*
X223527678Y-63507886D01*
X223527678Y-63698363D01*
X223480059Y-63793601D01*
X223432440Y-63841220D01*
X223337202Y-63888839D01*
X242958630Y-61888839D02*
X241958630Y-61888839D01*
X241958630Y-62126934D01*
X242006250Y-62269791D01*
X242101488Y-62365029D01*
X242196726Y-62412648D01*
X242387202Y-62460267D01*
X242530059Y-62460267D01*
X242720535Y-62412648D01*
X242815773Y-62365029D01*
X242911011Y-62269791D01*
X242958630Y-62126934D01*
X242958630Y-61888839D01*
X242958630Y-63412648D02*
X242958630Y-62841220D01*
X242958630Y-63126934D02*
X241958630Y-63126934D01*
X242101488Y-63031696D01*
X242196726Y-62936458D01*
X242244345Y-62841220D01*
X241958630Y-64031696D02*
X241958630Y-64126934D01*
X242006250Y-64222172D01*
X242053869Y-64269791D01*
X242149107Y-64317410D01*
X242339583Y-64365029D01*
X242577678Y-64365029D01*
X242768154Y-64317410D01*
X242863392Y-64269791D01*
X242911011Y-64222172D01*
X242958630Y-64126934D01*
X242958630Y-64031696D01*
X242911011Y-63936458D01*
X242863392Y-63888839D01*
X242768154Y-63841220D01*
X242577678Y-63793601D01*
X242339583Y-63793601D01*
X242149107Y-63841220D01*
X242053869Y-63888839D01*
X242006250Y-63936458D01*
X241958630Y-64031696D01*
X262008630Y-61888839D02*
X261008630Y-61888839D01*
X261008630Y-62126934D01*
X261056250Y-62269791D01*
X261151488Y-62365029D01*
X261246726Y-62412648D01*
X261437202Y-62460267D01*
X261580059Y-62460267D01*
X261770535Y-62412648D01*
X261865773Y-62365029D01*
X261961011Y-62269791D01*
X262008630Y-62126934D01*
X262008630Y-61888839D01*
X262008630Y-63412648D02*
X262008630Y-62841220D01*
X262008630Y-63126934D02*
X261008630Y-63126934D01*
X261151488Y-63031696D01*
X261246726Y-62936458D01*
X261294345Y-62841220D01*
X262008630Y-64365029D02*
X262008630Y-63793601D01*
X262008630Y-64079315D02*
X261008630Y-64079315D01*
X261151488Y-63984077D01*
X261246726Y-63888839D01*
X261294345Y-63793601D01*
X281058630Y-61888839D02*
X280058630Y-61888839D01*
X280058630Y-62126934D01*
X280106250Y-62269791D01*
X280201488Y-62365029D01*
X280296726Y-62412648D01*
X280487202Y-62460267D01*
X280630059Y-62460267D01*
X280820535Y-62412648D01*
X280915773Y-62365029D01*
X281011011Y-62269791D01*
X281058630Y-62126934D01*
X281058630Y-61888839D01*
X281058630Y-63412648D02*
X281058630Y-62841220D01*
X281058630Y-63126934D02*
X280058630Y-63126934D01*
X280201488Y-63031696D01*
X280296726Y-62936458D01*
X280344345Y-62841220D01*
X280153869Y-63793601D02*
X280106250Y-63841220D01*
X280058630Y-63936458D01*
X280058630Y-64174553D01*
X280106250Y-64269791D01*
X280153869Y-64317410D01*
X280249107Y-64365029D01*
X280344345Y-64365029D01*
X280487202Y-64317410D01*
X281058630Y-63745982D01*
X281058630Y-64365029D01*
X300108630Y-61888839D02*
X299108630Y-61888839D01*
X299108630Y-62126934D01*
X299156250Y-62269791D01*
X299251488Y-62365029D01*
X299346726Y-62412648D01*
X299537202Y-62460267D01*
X299680059Y-62460267D01*
X299870535Y-62412648D01*
X299965773Y-62365029D01*
X300061011Y-62269791D01*
X300108630Y-62126934D01*
X300108630Y-61888839D01*
X300108630Y-63412648D02*
X300108630Y-62841220D01*
X300108630Y-63126934D02*
X299108630Y-63126934D01*
X299251488Y-63031696D01*
X299346726Y-62936458D01*
X299394345Y-62841220D01*
X299108630Y-63745982D02*
X299108630Y-64365029D01*
X299489583Y-64031696D01*
X299489583Y-64174553D01*
X299537202Y-64269791D01*
X299584821Y-64317410D01*
X299680059Y-64365029D01*
X299918154Y-64365029D01*
X300013392Y-64317410D01*
X300061011Y-64269791D01*
X300108630Y-64174553D01*
X300108630Y-63888839D01*
X300061011Y-63793601D01*
X300013392Y-63745982D01*
X319158630Y-61888839D02*
X318158630Y-61888839D01*
X318158630Y-62126934D01*
X318206250Y-62269791D01*
X318301488Y-62365029D01*
X318396726Y-62412648D01*
X318587202Y-62460267D01*
X318730059Y-62460267D01*
X318920535Y-62412648D01*
X319015773Y-62365029D01*
X319111011Y-62269791D01*
X319158630Y-62126934D01*
X319158630Y-61888839D01*
X319158630Y-63412648D02*
X319158630Y-62841220D01*
X319158630Y-63126934D02*
X318158630Y-63126934D01*
X318301488Y-63031696D01*
X318396726Y-62936458D01*
X318444345Y-62841220D01*
X318491964Y-64269791D02*
X319158630Y-64269791D01*
X318111011Y-64031696D02*
X318825297Y-63793601D01*
X318825297Y-64412648D01*
X338208630Y-61888839D02*
X337208630Y-61888839D01*
X337208630Y-62126934D01*
X337256250Y-62269791D01*
X337351488Y-62365029D01*
X337446726Y-62412648D01*
X337637202Y-62460267D01*
X337780059Y-62460267D01*
X337970535Y-62412648D01*
X338065773Y-62365029D01*
X338161011Y-62269791D01*
X338208630Y-62126934D01*
X338208630Y-61888839D01*
X338208630Y-63412648D02*
X338208630Y-62841220D01*
X338208630Y-63126934D02*
X337208630Y-63126934D01*
X337351488Y-63031696D01*
X337446726Y-62936458D01*
X337494345Y-62841220D01*
X337208630Y-64317410D02*
X337208630Y-63841220D01*
X337684821Y-63793601D01*
X337637202Y-63841220D01*
X337589583Y-63936458D01*
X337589583Y-64174553D01*
X337637202Y-64269791D01*
X337684821Y-64317410D01*
X337780059Y-64365029D01*
X338018154Y-64365029D01*
X338113392Y-64317410D01*
X338161011Y-64269791D01*
X338208630Y-64174553D01*
X338208630Y-63936458D01*
X338161011Y-63841220D01*
X338113392Y-63793601D01*
X76271130Y-80938839D02*
X75271130Y-80938839D01*
X75271130Y-81176934D01*
X75318750Y-81319791D01*
X75413988Y-81415029D01*
X75509226Y-81462648D01*
X75699702Y-81510267D01*
X75842559Y-81510267D01*
X76033035Y-81462648D01*
X76128273Y-81415029D01*
X76223511Y-81319791D01*
X76271130Y-81176934D01*
X76271130Y-80938839D01*
X76271130Y-82462648D02*
X76271130Y-81891220D01*
X76271130Y-82176934D02*
X75271130Y-82176934D01*
X75413988Y-82081696D01*
X75509226Y-81986458D01*
X75556845Y-81891220D01*
X75271130Y-83319791D02*
X75271130Y-83129315D01*
X75318750Y-83034077D01*
X75366369Y-82986458D01*
X75509226Y-82891220D01*
X75699702Y-82843601D01*
X76080654Y-82843601D01*
X76175892Y-82891220D01*
X76223511Y-82938839D01*
X76271130Y-83034077D01*
X76271130Y-83224553D01*
X76223511Y-83319791D01*
X76175892Y-83367410D01*
X76080654Y-83415029D01*
X75842559Y-83415029D01*
X75747321Y-83367410D01*
X75699702Y-83319791D01*
X75652083Y-83224553D01*
X75652083Y-83034077D01*
X75699702Y-82938839D01*
X75747321Y-82891220D01*
X75842559Y-82843601D01*
X100083630Y-80935714D02*
X99083630Y-80935714D01*
X99083630Y-81173809D01*
X99131250Y-81316666D01*
X99226488Y-81411904D01*
X99321726Y-81459523D01*
X99512202Y-81507142D01*
X99655059Y-81507142D01*
X99845535Y-81459523D01*
X99940773Y-81411904D01*
X100036011Y-81316666D01*
X100083630Y-81173809D01*
X100083630Y-80935714D01*
X100083630Y-82459523D02*
X100083630Y-81888095D01*
X100083630Y-82173809D02*
X99083630Y-82173809D01*
X99226488Y-82078571D01*
X99321726Y-81983333D01*
X99369345Y-81888095D01*
X99083630Y-82792857D02*
X99083630Y-83459523D01*
X100083630Y-83030952D01*
X119133630Y-80938839D02*
X118133630Y-80938839D01*
X118133630Y-81176934D01*
X118181250Y-81319791D01*
X118276488Y-81415029D01*
X118371726Y-81462648D01*
X118562202Y-81510267D01*
X118705059Y-81510267D01*
X118895535Y-81462648D01*
X118990773Y-81415029D01*
X119086011Y-81319791D01*
X119133630Y-81176934D01*
X119133630Y-80938839D01*
X119133630Y-82462648D02*
X119133630Y-81891220D01*
X119133630Y-82176934D02*
X118133630Y-82176934D01*
X118276488Y-82081696D01*
X118371726Y-81986458D01*
X118419345Y-81891220D01*
X118562202Y-83034077D02*
X118514583Y-82938839D01*
X118466964Y-82891220D01*
X118371726Y-82843601D01*
X118324107Y-82843601D01*
X118228869Y-82891220D01*
X118181250Y-82938839D01*
X118133630Y-83034077D01*
X118133630Y-83224553D01*
X118181250Y-83319791D01*
X118228869Y-83367410D01*
X118324107Y-83415029D01*
X118371726Y-83415029D01*
X118466964Y-83367410D01*
X118514583Y-83319791D01*
X118562202Y-83224553D01*
X118562202Y-83034077D01*
X118609821Y-82938839D01*
X118657440Y-82891220D01*
X118752678Y-82843601D01*
X118943154Y-82843601D01*
X119038392Y-82891220D01*
X119086011Y-82938839D01*
X119133630Y-83034077D01*
X119133630Y-83224553D01*
X119086011Y-83319791D01*
X119038392Y-83367410D01*
X118943154Y-83415029D01*
X118752678Y-83415029D01*
X118657440Y-83367410D01*
X118609821Y-83319791D01*
X118562202Y-83224553D01*
X138183630Y-80938839D02*
X137183630Y-80938839D01*
X137183630Y-81176934D01*
X137231250Y-81319791D01*
X137326488Y-81415029D01*
X137421726Y-81462648D01*
X137612202Y-81510267D01*
X137755059Y-81510267D01*
X137945535Y-81462648D01*
X138040773Y-81415029D01*
X138136011Y-81319791D01*
X138183630Y-81176934D01*
X138183630Y-80938839D01*
X138183630Y-82462648D02*
X138183630Y-81891220D01*
X138183630Y-82176934D02*
X137183630Y-82176934D01*
X137326488Y-82081696D01*
X137421726Y-81986458D01*
X137469345Y-81891220D01*
X138183630Y-82938839D02*
X138183630Y-83129315D01*
X138136011Y-83224553D01*
X138088392Y-83272172D01*
X137945535Y-83367410D01*
X137755059Y-83415029D01*
X137374107Y-83415029D01*
X137278869Y-83367410D01*
X137231250Y-83319791D01*
X137183630Y-83224553D01*
X137183630Y-83034077D01*
X137231250Y-82938839D01*
X137278869Y-82891220D01*
X137374107Y-82843601D01*
X137612202Y-82843601D01*
X137707440Y-82891220D01*
X137755059Y-82938839D01*
X137802678Y-83034077D01*
X137802678Y-83224553D01*
X137755059Y-83319791D01*
X137707440Y-83367410D01*
X137612202Y-83415029D01*
X157233630Y-80938839D02*
X156233630Y-80938839D01*
X156233630Y-81176934D01*
X156281250Y-81319791D01*
X156376488Y-81415029D01*
X156471726Y-81462648D01*
X156662202Y-81510267D01*
X156805059Y-81510267D01*
X156995535Y-81462648D01*
X157090773Y-81415029D01*
X157186011Y-81319791D01*
X157233630Y-81176934D01*
X157233630Y-80938839D01*
X156328869Y-81891220D02*
X156281250Y-81938839D01*
X156233630Y-82034077D01*
X156233630Y-82272172D01*
X156281250Y-82367410D01*
X156328869Y-82415029D01*
X156424107Y-82462648D01*
X156519345Y-82462648D01*
X156662202Y-82415029D01*
X157233630Y-81843601D01*
X157233630Y-82462648D01*
X156233630Y-83081696D02*
X156233630Y-83176934D01*
X156281250Y-83272172D01*
X156328869Y-83319791D01*
X156424107Y-83367410D01*
X156614583Y-83415029D01*
X156852678Y-83415029D01*
X157043154Y-83367410D01*
X157138392Y-83319791D01*
X157186011Y-83272172D01*
X157233630Y-83176934D01*
X157233630Y-83081696D01*
X157186011Y-82986458D01*
X157138392Y-82938839D01*
X157043154Y-82891220D01*
X156852678Y-82843601D01*
X156614583Y-82843601D01*
X156424107Y-82891220D01*
X156328869Y-82938839D01*
X156281250Y-82986458D01*
X156233630Y-83081696D01*
X176283630Y-80938839D02*
X175283630Y-80938839D01*
X175283630Y-81176934D01*
X175331250Y-81319791D01*
X175426488Y-81415029D01*
X175521726Y-81462648D01*
X175712202Y-81510267D01*
X175855059Y-81510267D01*
X176045535Y-81462648D01*
X176140773Y-81415029D01*
X176236011Y-81319791D01*
X176283630Y-81176934D01*
X176283630Y-80938839D01*
X175378869Y-81891220D02*
X175331250Y-81938839D01*
X175283630Y-82034077D01*
X175283630Y-82272172D01*
X175331250Y-82367410D01*
X175378869Y-82415029D01*
X175474107Y-82462648D01*
X175569345Y-82462648D01*
X175712202Y-82415029D01*
X176283630Y-81843601D01*
X176283630Y-82462648D01*
X176283630Y-83415029D02*
X176283630Y-82843601D01*
X176283630Y-83129315D02*
X175283630Y-83129315D01*
X175426488Y-83034077D01*
X175521726Y-82938839D01*
X175569345Y-82843601D01*
X195333630Y-80938839D02*
X194333630Y-80938839D01*
X194333630Y-81176934D01*
X194381250Y-81319791D01*
X194476488Y-81415029D01*
X194571726Y-81462648D01*
X194762202Y-81510267D01*
X194905059Y-81510267D01*
X195095535Y-81462648D01*
X195190773Y-81415029D01*
X195286011Y-81319791D01*
X195333630Y-81176934D01*
X195333630Y-80938839D01*
X194428869Y-81891220D02*
X194381250Y-81938839D01*
X194333630Y-82034077D01*
X194333630Y-82272172D01*
X194381250Y-82367410D01*
X194428869Y-82415029D01*
X194524107Y-82462648D01*
X194619345Y-82462648D01*
X194762202Y-82415029D01*
X195333630Y-81843601D01*
X195333630Y-82462648D01*
X194428869Y-82843601D02*
X194381250Y-82891220D01*
X194333630Y-82986458D01*
X194333630Y-83224553D01*
X194381250Y-83319791D01*
X194428869Y-83367410D01*
X194524107Y-83415029D01*
X194619345Y-83415029D01*
X194762202Y-83367410D01*
X195333630Y-82795982D01*
X195333630Y-83415029D01*
X214383630Y-80938839D02*
X213383630Y-80938839D01*
X213383630Y-81176934D01*
X213431250Y-81319791D01*
X213526488Y-81415029D01*
X213621726Y-81462648D01*
X213812202Y-81510267D01*
X213955059Y-81510267D01*
X214145535Y-81462648D01*
X214240773Y-81415029D01*
X214336011Y-81319791D01*
X214383630Y-81176934D01*
X214383630Y-80938839D01*
X213478869Y-81891220D02*
X213431250Y-81938839D01*
X213383630Y-82034077D01*
X213383630Y-82272172D01*
X213431250Y-82367410D01*
X213478869Y-82415029D01*
X213574107Y-82462648D01*
X213669345Y-82462648D01*
X213812202Y-82415029D01*
X214383630Y-81843601D01*
X214383630Y-82462648D01*
X213383630Y-82795982D02*
X213383630Y-83415029D01*
X213764583Y-83081696D01*
X213764583Y-83224553D01*
X213812202Y-83319791D01*
X213859821Y-83367410D01*
X213955059Y-83415029D01*
X214193154Y-83415029D01*
X214288392Y-83367410D01*
X214336011Y-83319791D01*
X214383630Y-83224553D01*
X214383630Y-82938839D01*
X214336011Y-82843601D01*
X214288392Y-82795982D01*
X233433630Y-80938839D02*
X232433630Y-80938839D01*
X232433630Y-81176934D01*
X232481250Y-81319791D01*
X232576488Y-81415029D01*
X232671726Y-81462648D01*
X232862202Y-81510267D01*
X233005059Y-81510267D01*
X233195535Y-81462648D01*
X233290773Y-81415029D01*
X233386011Y-81319791D01*
X233433630Y-81176934D01*
X233433630Y-80938839D01*
X232528869Y-81891220D02*
X232481250Y-81938839D01*
X232433630Y-82034077D01*
X232433630Y-82272172D01*
X232481250Y-82367410D01*
X232528869Y-82415029D01*
X232624107Y-82462648D01*
X232719345Y-82462648D01*
X232862202Y-82415029D01*
X233433630Y-81843601D01*
X233433630Y-82462648D01*
X232766964Y-83319791D02*
X233433630Y-83319791D01*
X232386011Y-83081696D02*
X233100297Y-82843601D01*
X233100297Y-83462648D01*
X252483630Y-80938839D02*
X251483630Y-80938839D01*
X251483630Y-81176934D01*
X251531250Y-81319791D01*
X251626488Y-81415029D01*
X251721726Y-81462648D01*
X251912202Y-81510267D01*
X252055059Y-81510267D01*
X252245535Y-81462648D01*
X252340773Y-81415029D01*
X252436011Y-81319791D01*
X252483630Y-81176934D01*
X252483630Y-80938839D01*
X251578869Y-81891220D02*
X251531250Y-81938839D01*
X251483630Y-82034077D01*
X251483630Y-82272172D01*
X251531250Y-82367410D01*
X251578869Y-82415029D01*
X251674107Y-82462648D01*
X251769345Y-82462648D01*
X251912202Y-82415029D01*
X252483630Y-81843601D01*
X252483630Y-82462648D01*
X251483630Y-83367410D02*
X251483630Y-82891220D01*
X251959821Y-82843601D01*
X251912202Y-82891220D01*
X251864583Y-82986458D01*
X251864583Y-83224553D01*
X251912202Y-83319791D01*
X251959821Y-83367410D01*
X252055059Y-83415029D01*
X252293154Y-83415029D01*
X252388392Y-83367410D01*
X252436011Y-83319791D01*
X252483630Y-83224553D01*
X252483630Y-82986458D01*
X252436011Y-82891220D01*
X252388392Y-82843601D01*
X271533630Y-80938839D02*
X270533630Y-80938839D01*
X270533630Y-81176934D01*
X270581250Y-81319791D01*
X270676488Y-81415029D01*
X270771726Y-81462648D01*
X270962202Y-81510267D01*
X271105059Y-81510267D01*
X271295535Y-81462648D01*
X271390773Y-81415029D01*
X271486011Y-81319791D01*
X271533630Y-81176934D01*
X271533630Y-80938839D01*
X270628869Y-81891220D02*
X270581250Y-81938839D01*
X270533630Y-82034077D01*
X270533630Y-82272172D01*
X270581250Y-82367410D01*
X270628869Y-82415029D01*
X270724107Y-82462648D01*
X270819345Y-82462648D01*
X270962202Y-82415029D01*
X271533630Y-81843601D01*
X271533630Y-82462648D01*
X270533630Y-83319791D02*
X270533630Y-83129315D01*
X270581250Y-83034077D01*
X270628869Y-82986458D01*
X270771726Y-82891220D01*
X270962202Y-82843601D01*
X271343154Y-82843601D01*
X271438392Y-82891220D01*
X271486011Y-82938839D01*
X271533630Y-83034077D01*
X271533630Y-83224553D01*
X271486011Y-83319791D01*
X271438392Y-83367410D01*
X271343154Y-83415029D01*
X271105059Y-83415029D01*
X271009821Y-83367410D01*
X270962202Y-83319791D01*
X270914583Y-83224553D01*
X270914583Y-83034077D01*
X270962202Y-82938839D01*
X271009821Y-82891220D01*
X271105059Y-82843601D01*
X290583630Y-80938839D02*
X289583630Y-80938839D01*
X289583630Y-81176934D01*
X289631250Y-81319791D01*
X289726488Y-81415029D01*
X289821726Y-81462648D01*
X290012202Y-81510267D01*
X290155059Y-81510267D01*
X290345535Y-81462648D01*
X290440773Y-81415029D01*
X290536011Y-81319791D01*
X290583630Y-81176934D01*
X290583630Y-80938839D01*
X289678869Y-81891220D02*
X289631250Y-81938839D01*
X289583630Y-82034077D01*
X289583630Y-82272172D01*
X289631250Y-82367410D01*
X289678869Y-82415029D01*
X289774107Y-82462648D01*
X289869345Y-82462648D01*
X290012202Y-82415029D01*
X290583630Y-81843601D01*
X290583630Y-82462648D01*
X289583630Y-82795982D02*
X289583630Y-83462648D01*
X290583630Y-83034077D01*
X309633630Y-80938839D02*
X308633630Y-80938839D01*
X308633630Y-81176934D01*
X308681250Y-81319791D01*
X308776488Y-81415029D01*
X308871726Y-81462648D01*
X309062202Y-81510267D01*
X309205059Y-81510267D01*
X309395535Y-81462648D01*
X309490773Y-81415029D01*
X309586011Y-81319791D01*
X309633630Y-81176934D01*
X309633630Y-80938839D01*
X308728869Y-81891220D02*
X308681250Y-81938839D01*
X308633630Y-82034077D01*
X308633630Y-82272172D01*
X308681250Y-82367410D01*
X308728869Y-82415029D01*
X308824107Y-82462648D01*
X308919345Y-82462648D01*
X309062202Y-82415029D01*
X309633630Y-81843601D01*
X309633630Y-82462648D01*
X309062202Y-83034077D02*
X309014583Y-82938839D01*
X308966964Y-82891220D01*
X308871726Y-82843601D01*
X308824107Y-82843601D01*
X308728869Y-82891220D01*
X308681250Y-82938839D01*
X308633630Y-83034077D01*
X308633630Y-83224553D01*
X308681250Y-83319791D01*
X308728869Y-83367410D01*
X308824107Y-83415029D01*
X308871726Y-83415029D01*
X308966964Y-83367410D01*
X309014583Y-83319791D01*
X309062202Y-83224553D01*
X309062202Y-83034077D01*
X309109821Y-82938839D01*
X309157440Y-82891220D01*
X309252678Y-82843601D01*
X309443154Y-82843601D01*
X309538392Y-82891220D01*
X309586011Y-82938839D01*
X309633630Y-83034077D01*
X309633630Y-83224553D01*
X309586011Y-83319791D01*
X309538392Y-83367410D01*
X309443154Y-83415029D01*
X309252678Y-83415029D01*
X309157440Y-83367410D01*
X309109821Y-83319791D01*
X309062202Y-83224553D01*
X78652380Y-99988839D02*
X77652380Y-99988839D01*
X77652380Y-100226934D01*
X77700000Y-100369791D01*
X77795238Y-100465029D01*
X77890476Y-100512648D01*
X78080952Y-100560267D01*
X78223809Y-100560267D01*
X78414285Y-100512648D01*
X78509523Y-100465029D01*
X78604761Y-100369791D01*
X78652380Y-100226934D01*
X78652380Y-99988839D01*
X77747619Y-100941220D02*
X77700000Y-100988839D01*
X77652380Y-101084077D01*
X77652380Y-101322172D01*
X77700000Y-101417410D01*
X77747619Y-101465029D01*
X77842857Y-101512648D01*
X77938095Y-101512648D01*
X78080952Y-101465029D01*
X78652380Y-100893601D01*
X78652380Y-101512648D01*
X78652380Y-101988839D02*
X78652380Y-102179315D01*
X78604761Y-102274553D01*
X78557142Y-102322172D01*
X78414285Y-102417410D01*
X78223809Y-102465029D01*
X77842857Y-102465029D01*
X77747619Y-102417410D01*
X77700000Y-102369791D01*
X77652380Y-102274553D01*
X77652380Y-102084077D01*
X77700000Y-101988839D01*
X77747619Y-101941220D01*
X77842857Y-101893601D01*
X78080952Y-101893601D01*
X78176190Y-101941220D01*
X78223809Y-101988839D01*
X78271428Y-102084077D01*
X78271428Y-102274553D01*
X78223809Y-102369791D01*
X78176190Y-102417410D01*
X78080952Y-102465029D01*
X104846130Y-99988839D02*
X103846130Y-99988839D01*
X103846130Y-100226934D01*
X103893750Y-100369791D01*
X103988988Y-100465029D01*
X104084226Y-100512648D01*
X104274702Y-100560267D01*
X104417559Y-100560267D01*
X104608035Y-100512648D01*
X104703273Y-100465029D01*
X104798511Y-100369791D01*
X104846130Y-100226934D01*
X104846130Y-99988839D01*
X103846130Y-100893601D02*
X103846130Y-101512648D01*
X104227083Y-101179315D01*
X104227083Y-101322172D01*
X104274702Y-101417410D01*
X104322321Y-101465029D01*
X104417559Y-101512648D01*
X104655654Y-101512648D01*
X104750892Y-101465029D01*
X104798511Y-101417410D01*
X104846130Y-101322172D01*
X104846130Y-101036458D01*
X104798511Y-100941220D01*
X104750892Y-100893601D01*
X103846130Y-102131696D02*
X103846130Y-102226934D01*
X103893750Y-102322172D01*
X103941369Y-102369791D01*
X104036607Y-102417410D01*
X104227083Y-102465029D01*
X104465178Y-102465029D01*
X104655654Y-102417410D01*
X104750892Y-102369791D01*
X104798511Y-102322172D01*
X104846130Y-102226934D01*
X104846130Y-102131696D01*
X104798511Y-102036458D01*
X104750892Y-101988839D01*
X104655654Y-101941220D01*
X104465178Y-101893601D01*
X104227083Y-101893601D01*
X104036607Y-101941220D01*
X103941369Y-101988839D01*
X103893750Y-102036458D01*
X103846130Y-102131696D01*
X123952380Y-100035714D02*
X122952380Y-100035714D01*
X122952380Y-100273809D01*
X123000000Y-100416666D01*
X123095238Y-100511904D01*
X123190476Y-100559523D01*
X123380952Y-100607142D01*
X123523809Y-100607142D01*
X123714285Y-100559523D01*
X123809523Y-100511904D01*
X123904761Y-100416666D01*
X123952380Y-100273809D01*
X123952380Y-100035714D01*
X122952380Y-100940476D02*
X122952380Y-101559523D01*
X123333333Y-101226190D01*
X123333333Y-101369047D01*
X123380952Y-101464285D01*
X123428571Y-101511904D01*
X123523809Y-101559523D01*
X123761904Y-101559523D01*
X123857142Y-101511904D01*
X123904761Y-101464285D01*
X123952380Y-101369047D01*
X123952380Y-101083333D01*
X123904761Y-100988095D01*
X123857142Y-100940476D01*
X123952380Y-102511904D02*
X123952380Y-101940476D01*
X123952380Y-102226190D02*
X122952380Y-102226190D01*
X123095238Y-102130952D01*
X123190476Y-102035714D01*
X123238095Y-101940476D01*
X142946130Y-99988839D02*
X141946130Y-99988839D01*
X141946130Y-100226934D01*
X141993750Y-100369791D01*
X142088988Y-100465029D01*
X142184226Y-100512648D01*
X142374702Y-100560267D01*
X142517559Y-100560267D01*
X142708035Y-100512648D01*
X142803273Y-100465029D01*
X142898511Y-100369791D01*
X142946130Y-100226934D01*
X142946130Y-99988839D01*
X141946130Y-100893601D02*
X141946130Y-101512648D01*
X142327083Y-101179315D01*
X142327083Y-101322172D01*
X142374702Y-101417410D01*
X142422321Y-101465029D01*
X142517559Y-101512648D01*
X142755654Y-101512648D01*
X142850892Y-101465029D01*
X142898511Y-101417410D01*
X142946130Y-101322172D01*
X142946130Y-101036458D01*
X142898511Y-100941220D01*
X142850892Y-100893601D01*
X142041369Y-101893601D02*
X141993750Y-101941220D01*
X141946130Y-102036458D01*
X141946130Y-102274553D01*
X141993750Y-102369791D01*
X142041369Y-102417410D01*
X142136607Y-102465029D01*
X142231845Y-102465029D01*
X142374702Y-102417410D01*
X142946130Y-101845982D01*
X142946130Y-102465029D01*
X161996130Y-99988839D02*
X160996130Y-99988839D01*
X160996130Y-100226934D01*
X161043750Y-100369791D01*
X161138988Y-100465029D01*
X161234226Y-100512648D01*
X161424702Y-100560267D01*
X161567559Y-100560267D01*
X161758035Y-100512648D01*
X161853273Y-100465029D01*
X161948511Y-100369791D01*
X161996130Y-100226934D01*
X161996130Y-99988839D01*
X160996130Y-100893601D02*
X160996130Y-101512648D01*
X161377083Y-101179315D01*
X161377083Y-101322172D01*
X161424702Y-101417410D01*
X161472321Y-101465029D01*
X161567559Y-101512648D01*
X161805654Y-101512648D01*
X161900892Y-101465029D01*
X161948511Y-101417410D01*
X161996130Y-101322172D01*
X161996130Y-101036458D01*
X161948511Y-100941220D01*
X161900892Y-100893601D01*
X160996130Y-101845982D02*
X160996130Y-102465029D01*
X161377083Y-102131696D01*
X161377083Y-102274553D01*
X161424702Y-102369791D01*
X161472321Y-102417410D01*
X161567559Y-102465029D01*
X161805654Y-102465029D01*
X161900892Y-102417410D01*
X161948511Y-102369791D01*
X161996130Y-102274553D01*
X161996130Y-101988839D01*
X161948511Y-101893601D01*
X161900892Y-101845982D01*
X181046130Y-99988839D02*
X180046130Y-99988839D01*
X180046130Y-100226934D01*
X180093750Y-100369791D01*
X180188988Y-100465029D01*
X180284226Y-100512648D01*
X180474702Y-100560267D01*
X180617559Y-100560267D01*
X180808035Y-100512648D01*
X180903273Y-100465029D01*
X180998511Y-100369791D01*
X181046130Y-100226934D01*
X181046130Y-99988839D01*
X180046130Y-100893601D02*
X180046130Y-101512648D01*
X180427083Y-101179315D01*
X180427083Y-101322172D01*
X180474702Y-101417410D01*
X180522321Y-101465029D01*
X180617559Y-101512648D01*
X180855654Y-101512648D01*
X180950892Y-101465029D01*
X180998511Y-101417410D01*
X181046130Y-101322172D01*
X181046130Y-101036458D01*
X180998511Y-100941220D01*
X180950892Y-100893601D01*
X180379464Y-102369791D02*
X181046130Y-102369791D01*
X179998511Y-102131696D02*
X180712797Y-101893601D01*
X180712797Y-102512648D01*
X200096130Y-99988839D02*
X199096130Y-99988839D01*
X199096130Y-100226934D01*
X199143750Y-100369791D01*
X199238988Y-100465029D01*
X199334226Y-100512648D01*
X199524702Y-100560267D01*
X199667559Y-100560267D01*
X199858035Y-100512648D01*
X199953273Y-100465029D01*
X200048511Y-100369791D01*
X200096130Y-100226934D01*
X200096130Y-99988839D01*
X199096130Y-100893601D02*
X199096130Y-101512648D01*
X199477083Y-101179315D01*
X199477083Y-101322172D01*
X199524702Y-101417410D01*
X199572321Y-101465029D01*
X199667559Y-101512648D01*
X199905654Y-101512648D01*
X200000892Y-101465029D01*
X200048511Y-101417410D01*
X200096130Y-101322172D01*
X200096130Y-101036458D01*
X200048511Y-100941220D01*
X200000892Y-100893601D01*
X199096130Y-102417410D02*
X199096130Y-101941220D01*
X199572321Y-101893601D01*
X199524702Y-101941220D01*
X199477083Y-102036458D01*
X199477083Y-102274553D01*
X199524702Y-102369791D01*
X199572321Y-102417410D01*
X199667559Y-102465029D01*
X199905654Y-102465029D01*
X200000892Y-102417410D01*
X200048511Y-102369791D01*
X200096130Y-102274553D01*
X200096130Y-102036458D01*
X200048511Y-101941220D01*
X200000892Y-101893601D01*
X219146130Y-99988839D02*
X218146130Y-99988839D01*
X218146130Y-100226934D01*
X218193750Y-100369791D01*
X218288988Y-100465029D01*
X218384226Y-100512648D01*
X218574702Y-100560267D01*
X218717559Y-100560267D01*
X218908035Y-100512648D01*
X219003273Y-100465029D01*
X219098511Y-100369791D01*
X219146130Y-100226934D01*
X219146130Y-99988839D01*
X218146130Y-100893601D02*
X218146130Y-101512648D01*
X218527083Y-101179315D01*
X218527083Y-101322172D01*
X218574702Y-101417410D01*
X218622321Y-101465029D01*
X218717559Y-101512648D01*
X218955654Y-101512648D01*
X219050892Y-101465029D01*
X219098511Y-101417410D01*
X219146130Y-101322172D01*
X219146130Y-101036458D01*
X219098511Y-100941220D01*
X219050892Y-100893601D01*
X218146130Y-102369791D02*
X218146130Y-102179315D01*
X218193750Y-102084077D01*
X218241369Y-102036458D01*
X218384226Y-101941220D01*
X218574702Y-101893601D01*
X218955654Y-101893601D01*
X219050892Y-101941220D01*
X219098511Y-101988839D01*
X219146130Y-102084077D01*
X219146130Y-102274553D01*
X219098511Y-102369791D01*
X219050892Y-102417410D01*
X218955654Y-102465029D01*
X218717559Y-102465029D01*
X218622321Y-102417410D01*
X218574702Y-102369791D01*
X218527083Y-102274553D01*
X218527083Y-102084077D01*
X218574702Y-101988839D01*
X218622321Y-101941220D01*
X218717559Y-101893601D01*
X238196130Y-99988839D02*
X237196130Y-99988839D01*
X237196130Y-100226934D01*
X237243750Y-100369791D01*
X237338988Y-100465029D01*
X237434226Y-100512648D01*
X237624702Y-100560267D01*
X237767559Y-100560267D01*
X237958035Y-100512648D01*
X238053273Y-100465029D01*
X238148511Y-100369791D01*
X238196130Y-100226934D01*
X238196130Y-99988839D01*
X237196130Y-100893601D02*
X237196130Y-101512648D01*
X237577083Y-101179315D01*
X237577083Y-101322172D01*
X237624702Y-101417410D01*
X237672321Y-101465029D01*
X237767559Y-101512648D01*
X238005654Y-101512648D01*
X238100892Y-101465029D01*
X238148511Y-101417410D01*
X238196130Y-101322172D01*
X238196130Y-101036458D01*
X238148511Y-100941220D01*
X238100892Y-100893601D01*
X237196130Y-101845982D02*
X237196130Y-102512648D01*
X238196130Y-102084077D01*
X257246130Y-99988839D02*
X256246130Y-99988839D01*
X256246130Y-100226934D01*
X256293750Y-100369791D01*
X256388988Y-100465029D01*
X256484226Y-100512648D01*
X256674702Y-100560267D01*
X256817559Y-100560267D01*
X257008035Y-100512648D01*
X257103273Y-100465029D01*
X257198511Y-100369791D01*
X257246130Y-100226934D01*
X257246130Y-99988839D01*
X256246130Y-100893601D02*
X256246130Y-101512648D01*
X256627083Y-101179315D01*
X256627083Y-101322172D01*
X256674702Y-101417410D01*
X256722321Y-101465029D01*
X256817559Y-101512648D01*
X257055654Y-101512648D01*
X257150892Y-101465029D01*
X257198511Y-101417410D01*
X257246130Y-101322172D01*
X257246130Y-101036458D01*
X257198511Y-100941220D01*
X257150892Y-100893601D01*
X256674702Y-102084077D02*
X256627083Y-101988839D01*
X256579464Y-101941220D01*
X256484226Y-101893601D01*
X256436607Y-101893601D01*
X256341369Y-101941220D01*
X256293750Y-101988839D01*
X256246130Y-102084077D01*
X256246130Y-102274553D01*
X256293750Y-102369791D01*
X256341369Y-102417410D01*
X256436607Y-102465029D01*
X256484226Y-102465029D01*
X256579464Y-102417410D01*
X256627083Y-102369791D01*
X256674702Y-102274553D01*
X256674702Y-102084077D01*
X256722321Y-101988839D01*
X256769940Y-101941220D01*
X256865178Y-101893601D01*
X257055654Y-101893601D01*
X257150892Y-101941220D01*
X257198511Y-101988839D01*
X257246130Y-102084077D01*
X257246130Y-102274553D01*
X257198511Y-102369791D01*
X257150892Y-102417410D01*
X257055654Y-102465029D01*
X256865178Y-102465029D01*
X256769940Y-102417410D01*
X256722321Y-102369791D01*
X256674702Y-102274553D01*
X276296130Y-99988839D02*
X275296130Y-99988839D01*
X275296130Y-100226934D01*
X275343750Y-100369791D01*
X275438988Y-100465029D01*
X275534226Y-100512648D01*
X275724702Y-100560267D01*
X275867559Y-100560267D01*
X276058035Y-100512648D01*
X276153273Y-100465029D01*
X276248511Y-100369791D01*
X276296130Y-100226934D01*
X276296130Y-99988839D01*
X275296130Y-100893601D02*
X275296130Y-101512648D01*
X275677083Y-101179315D01*
X275677083Y-101322172D01*
X275724702Y-101417410D01*
X275772321Y-101465029D01*
X275867559Y-101512648D01*
X276105654Y-101512648D01*
X276200892Y-101465029D01*
X276248511Y-101417410D01*
X276296130Y-101322172D01*
X276296130Y-101036458D01*
X276248511Y-100941220D01*
X276200892Y-100893601D01*
X276296130Y-101988839D02*
X276296130Y-102179315D01*
X276248511Y-102274553D01*
X276200892Y-102322172D01*
X276058035Y-102417410D01*
X275867559Y-102465029D01*
X275486607Y-102465029D01*
X275391369Y-102417410D01*
X275343750Y-102369791D01*
X275296130Y-102274553D01*
X275296130Y-102084077D01*
X275343750Y-101988839D01*
X275391369Y-101941220D01*
X275486607Y-101893601D01*
X275724702Y-101893601D01*
X275819940Y-101941220D01*
X275867559Y-101988839D01*
X275915178Y-102084077D01*
X275915178Y-102274553D01*
X275867559Y-102369791D01*
X275819940Y-102417410D01*
X275724702Y-102465029D01*
X295346130Y-99988839D02*
X294346130Y-99988839D01*
X294346130Y-100226934D01*
X294393750Y-100369791D01*
X294488988Y-100465029D01*
X294584226Y-100512648D01*
X294774702Y-100560267D01*
X294917559Y-100560267D01*
X295108035Y-100512648D01*
X295203273Y-100465029D01*
X295298511Y-100369791D01*
X295346130Y-100226934D01*
X295346130Y-99988839D01*
X294679464Y-101417410D02*
X295346130Y-101417410D01*
X294298511Y-101179315D02*
X295012797Y-100941220D01*
X295012797Y-101560267D01*
X294346130Y-102131696D02*
X294346130Y-102226934D01*
X294393750Y-102322172D01*
X294441369Y-102369791D01*
X294536607Y-102417410D01*
X294727083Y-102465029D01*
X294965178Y-102465029D01*
X295155654Y-102417410D01*
X295250892Y-102369791D01*
X295298511Y-102322172D01*
X295346130Y-102226934D01*
X295346130Y-102131696D01*
X295298511Y-102036458D01*
X295250892Y-101988839D01*
X295155654Y-101941220D01*
X294965178Y-101893601D01*
X294727083Y-101893601D01*
X294536607Y-101941220D01*
X294441369Y-101988839D01*
X294393750Y-102036458D01*
X294346130Y-102131696D01*
X314396130Y-99988839D02*
X313396130Y-99988839D01*
X313396130Y-100226934D01*
X313443750Y-100369791D01*
X313538988Y-100465029D01*
X313634226Y-100512648D01*
X313824702Y-100560267D01*
X313967559Y-100560267D01*
X314158035Y-100512648D01*
X314253273Y-100465029D01*
X314348511Y-100369791D01*
X314396130Y-100226934D01*
X314396130Y-99988839D01*
X313729464Y-101417410D02*
X314396130Y-101417410D01*
X313348511Y-101179315D02*
X314062797Y-100941220D01*
X314062797Y-101560267D01*
X314396130Y-102465029D02*
X314396130Y-101893601D01*
X314396130Y-102179315D02*
X313396130Y-102179315D01*
X313538988Y-102084077D01*
X313634226Y-101988839D01*
X313681845Y-101893601D01*
X335827380Y-90463839D02*
X334827380Y-90463839D01*
X334827380Y-90701934D01*
X334875000Y-90844791D01*
X334970238Y-90940029D01*
X335065476Y-90987648D01*
X335255952Y-91035267D01*
X335398809Y-91035267D01*
X335589285Y-90987648D01*
X335684523Y-90940029D01*
X335779761Y-90844791D01*
X335827380Y-90701934D01*
X335827380Y-90463839D01*
X335160714Y-91892410D02*
X335827380Y-91892410D01*
X334779761Y-91654315D02*
X335494047Y-91416220D01*
X335494047Y-92035267D01*
X334922619Y-92368601D02*
X334875000Y-92416220D01*
X334827380Y-92511458D01*
X334827380Y-92749553D01*
X334875000Y-92844791D01*
X334922619Y-92892410D01*
X335017857Y-92940029D01*
X335113095Y-92940029D01*
X335255952Y-92892410D01*
X335827380Y-92320982D01*
X335827380Y-92940029D01*
X81033630Y-119038839D02*
X80033630Y-119038839D01*
X80033630Y-119276934D01*
X80081250Y-119419791D01*
X80176488Y-119515029D01*
X80271726Y-119562648D01*
X80462202Y-119610267D01*
X80605059Y-119610267D01*
X80795535Y-119562648D01*
X80890773Y-119515029D01*
X80986011Y-119419791D01*
X81033630Y-119276934D01*
X81033630Y-119038839D01*
X80366964Y-120467410D02*
X81033630Y-120467410D01*
X79986011Y-120229315D02*
X80700297Y-119991220D01*
X80700297Y-120610267D01*
X80033630Y-120895982D02*
X80033630Y-121515029D01*
X80414583Y-121181696D01*
X80414583Y-121324553D01*
X80462202Y-121419791D01*
X80509821Y-121467410D01*
X80605059Y-121515029D01*
X80843154Y-121515029D01*
X80938392Y-121467410D01*
X80986011Y-121419791D01*
X81033630Y-121324553D01*
X81033630Y-121038839D01*
X80986011Y-120943601D01*
X80938392Y-120895982D01*
X109608630Y-119038839D02*
X108608630Y-119038839D01*
X108608630Y-119276934D01*
X108656250Y-119419791D01*
X108751488Y-119515029D01*
X108846726Y-119562648D01*
X109037202Y-119610267D01*
X109180059Y-119610267D01*
X109370535Y-119562648D01*
X109465773Y-119515029D01*
X109561011Y-119419791D01*
X109608630Y-119276934D01*
X109608630Y-119038839D01*
X108941964Y-120467410D02*
X109608630Y-120467410D01*
X108561011Y-120229315D02*
X109275297Y-119991220D01*
X109275297Y-120610267D01*
X108941964Y-121419791D02*
X109608630Y-121419791D01*
X108561011Y-121181696D02*
X109275297Y-120943601D01*
X109275297Y-121562648D01*
X128752380Y-119035714D02*
X127752380Y-119035714D01*
X127752380Y-119273809D01*
X127800000Y-119416666D01*
X127895238Y-119511904D01*
X127990476Y-119559523D01*
X128180952Y-119607142D01*
X128323809Y-119607142D01*
X128514285Y-119559523D01*
X128609523Y-119511904D01*
X128704761Y-119416666D01*
X128752380Y-119273809D01*
X128752380Y-119035714D01*
X128085714Y-120464285D02*
X128752380Y-120464285D01*
X127704761Y-120226190D02*
X128419047Y-119988095D01*
X128419047Y-120607142D01*
X127752380Y-121464285D02*
X127752380Y-120988095D01*
X128228571Y-120940476D01*
X128180952Y-120988095D01*
X128133333Y-121083333D01*
X128133333Y-121321428D01*
X128180952Y-121416666D01*
X128228571Y-121464285D01*
X128323809Y-121511904D01*
X128561904Y-121511904D01*
X128657142Y-121464285D01*
X128704761Y-121416666D01*
X128752380Y-121321428D01*
X128752380Y-121083333D01*
X128704761Y-120988095D01*
X128657142Y-120940476D01*
X148852380Y-116585714D02*
X147852380Y-116585714D01*
X147852380Y-116823809D01*
X147900000Y-116966666D01*
X147995238Y-117061904D01*
X148090476Y-117109523D01*
X148280952Y-117157142D01*
X148423809Y-117157142D01*
X148614285Y-117109523D01*
X148709523Y-117061904D01*
X148804761Y-116966666D01*
X148852380Y-116823809D01*
X148852380Y-116585714D01*
X148185714Y-118014285D02*
X148852380Y-118014285D01*
X147804761Y-117776190D02*
X148519047Y-117538095D01*
X148519047Y-118157142D01*
X147852380Y-118966666D02*
X147852380Y-118776190D01*
X147900000Y-118680952D01*
X147947619Y-118633333D01*
X148090476Y-118538095D01*
X148280952Y-118490476D01*
X148661904Y-118490476D01*
X148757142Y-118538095D01*
X148804761Y-118585714D01*
X148852380Y-118680952D01*
X148852380Y-118871428D01*
X148804761Y-118966666D01*
X148757142Y-119014285D01*
X148661904Y-119061904D01*
X148423809Y-119061904D01*
X148328571Y-119014285D01*
X148280952Y-118966666D01*
X148233333Y-118871428D01*
X148233333Y-118680952D01*
X148280952Y-118585714D01*
X148328571Y-118538095D01*
X148423809Y-118490476D01*
X167558630Y-116638839D02*
X166558630Y-116638839D01*
X166558630Y-116876934D01*
X166606250Y-117019791D01*
X166701488Y-117115029D01*
X166796726Y-117162648D01*
X166987202Y-117210267D01*
X167130059Y-117210267D01*
X167320535Y-117162648D01*
X167415773Y-117115029D01*
X167511011Y-117019791D01*
X167558630Y-116876934D01*
X167558630Y-116638839D01*
X166891964Y-118067410D02*
X167558630Y-118067410D01*
X166511011Y-117829315D02*
X167225297Y-117591220D01*
X167225297Y-118210267D01*
X166558630Y-118495982D02*
X166558630Y-119162648D01*
X167558630Y-118734077D01*
X185808630Y-119038839D02*
X184808630Y-119038839D01*
X184808630Y-119276934D01*
X184856250Y-119419791D01*
X184951488Y-119515029D01*
X185046726Y-119562648D01*
X185237202Y-119610267D01*
X185380059Y-119610267D01*
X185570535Y-119562648D01*
X185665773Y-119515029D01*
X185761011Y-119419791D01*
X185808630Y-119276934D01*
X185808630Y-119038839D01*
X185141964Y-120467410D02*
X185808630Y-120467410D01*
X184761011Y-120229315D02*
X185475297Y-119991220D01*
X185475297Y-120610267D01*
X185237202Y-121134077D02*
X185189583Y-121038839D01*
X185141964Y-120991220D01*
X185046726Y-120943601D01*
X184999107Y-120943601D01*
X184903869Y-120991220D01*
X184856250Y-121038839D01*
X184808630Y-121134077D01*
X184808630Y-121324553D01*
X184856250Y-121419791D01*
X184903869Y-121467410D01*
X184999107Y-121515029D01*
X185046726Y-121515029D01*
X185141964Y-121467410D01*
X185189583Y-121419791D01*
X185237202Y-121324553D01*
X185237202Y-121134077D01*
X185284821Y-121038839D01*
X185332440Y-120991220D01*
X185427678Y-120943601D01*
X185618154Y-120943601D01*
X185713392Y-120991220D01*
X185761011Y-121038839D01*
X185808630Y-121134077D01*
X185808630Y-121324553D01*
X185761011Y-121419791D01*
X185713392Y-121467410D01*
X185618154Y-121515029D01*
X185427678Y-121515029D01*
X185332440Y-121467410D01*
X185284821Y-121419791D01*
X185237202Y-121324553D01*
X204858630Y-119038839D02*
X203858630Y-119038839D01*
X203858630Y-119276934D01*
X203906250Y-119419791D01*
X204001488Y-119515029D01*
X204096726Y-119562648D01*
X204287202Y-119610267D01*
X204430059Y-119610267D01*
X204620535Y-119562648D01*
X204715773Y-119515029D01*
X204811011Y-119419791D01*
X204858630Y-119276934D01*
X204858630Y-119038839D01*
X204191964Y-120467410D02*
X204858630Y-120467410D01*
X203811011Y-120229315D02*
X204525297Y-119991220D01*
X204525297Y-120610267D01*
X204858630Y-121038839D02*
X204858630Y-121229315D01*
X204811011Y-121324553D01*
X204763392Y-121372172D01*
X204620535Y-121467410D01*
X204430059Y-121515029D01*
X204049107Y-121515029D01*
X203953869Y-121467410D01*
X203906250Y-121419791D01*
X203858630Y-121324553D01*
X203858630Y-121134077D01*
X203906250Y-121038839D01*
X203953869Y-120991220D01*
X204049107Y-120943601D01*
X204287202Y-120943601D01*
X204382440Y-120991220D01*
X204430059Y-121038839D01*
X204477678Y-121134077D01*
X204477678Y-121324553D01*
X204430059Y-121419791D01*
X204382440Y-121467410D01*
X204287202Y-121515029D01*
X223908630Y-119038839D02*
X222908630Y-119038839D01*
X222908630Y-119276934D01*
X222956250Y-119419791D01*
X223051488Y-119515029D01*
X223146726Y-119562648D01*
X223337202Y-119610267D01*
X223480059Y-119610267D01*
X223670535Y-119562648D01*
X223765773Y-119515029D01*
X223861011Y-119419791D01*
X223908630Y-119276934D01*
X223908630Y-119038839D01*
X222908630Y-120515029D02*
X222908630Y-120038839D01*
X223384821Y-119991220D01*
X223337202Y-120038839D01*
X223289583Y-120134077D01*
X223289583Y-120372172D01*
X223337202Y-120467410D01*
X223384821Y-120515029D01*
X223480059Y-120562648D01*
X223718154Y-120562648D01*
X223813392Y-120515029D01*
X223861011Y-120467410D01*
X223908630Y-120372172D01*
X223908630Y-120134077D01*
X223861011Y-120038839D01*
X223813392Y-119991220D01*
X222908630Y-121181696D02*
X222908630Y-121276934D01*
X222956250Y-121372172D01*
X223003869Y-121419791D01*
X223099107Y-121467410D01*
X223289583Y-121515029D01*
X223527678Y-121515029D01*
X223718154Y-121467410D01*
X223813392Y-121419791D01*
X223861011Y-121372172D01*
X223908630Y-121276934D01*
X223908630Y-121181696D01*
X223861011Y-121086458D01*
X223813392Y-121038839D01*
X223718154Y-120991220D01*
X223527678Y-120943601D01*
X223289583Y-120943601D01*
X223099107Y-120991220D01*
X223003869Y-121038839D01*
X222956250Y-121086458D01*
X222908630Y-121181696D01*
X242958630Y-119038839D02*
X241958630Y-119038839D01*
X241958630Y-119276934D01*
X242006250Y-119419791D01*
X242101488Y-119515029D01*
X242196726Y-119562648D01*
X242387202Y-119610267D01*
X242530059Y-119610267D01*
X242720535Y-119562648D01*
X242815773Y-119515029D01*
X242911011Y-119419791D01*
X242958630Y-119276934D01*
X242958630Y-119038839D01*
X241958630Y-120515029D02*
X241958630Y-120038839D01*
X242434821Y-119991220D01*
X242387202Y-120038839D01*
X242339583Y-120134077D01*
X242339583Y-120372172D01*
X242387202Y-120467410D01*
X242434821Y-120515029D01*
X242530059Y-120562648D01*
X242768154Y-120562648D01*
X242863392Y-120515029D01*
X242911011Y-120467410D01*
X242958630Y-120372172D01*
X242958630Y-120134077D01*
X242911011Y-120038839D01*
X242863392Y-119991220D01*
X242958630Y-121515029D02*
X242958630Y-120943601D01*
X242958630Y-121229315D02*
X241958630Y-121229315D01*
X242101488Y-121134077D01*
X242196726Y-121038839D01*
X242244345Y-120943601D01*
X262008630Y-119038839D02*
X261008630Y-119038839D01*
X261008630Y-119276934D01*
X261056250Y-119419791D01*
X261151488Y-119515029D01*
X261246726Y-119562648D01*
X261437202Y-119610267D01*
X261580059Y-119610267D01*
X261770535Y-119562648D01*
X261865773Y-119515029D01*
X261961011Y-119419791D01*
X262008630Y-119276934D01*
X262008630Y-119038839D01*
X261008630Y-120515029D02*
X261008630Y-120038839D01*
X261484821Y-119991220D01*
X261437202Y-120038839D01*
X261389583Y-120134077D01*
X261389583Y-120372172D01*
X261437202Y-120467410D01*
X261484821Y-120515029D01*
X261580059Y-120562648D01*
X261818154Y-120562648D01*
X261913392Y-120515029D01*
X261961011Y-120467410D01*
X262008630Y-120372172D01*
X262008630Y-120134077D01*
X261961011Y-120038839D01*
X261913392Y-119991220D01*
X261103869Y-120943601D02*
X261056250Y-120991220D01*
X261008630Y-121086458D01*
X261008630Y-121324553D01*
X261056250Y-121419791D01*
X261103869Y-121467410D01*
X261199107Y-121515029D01*
X261294345Y-121515029D01*
X261437202Y-121467410D01*
X262008630Y-120895982D01*
X262008630Y-121515029D01*
X281058630Y-119038839D02*
X280058630Y-119038839D01*
X280058630Y-119276934D01*
X280106250Y-119419791D01*
X280201488Y-119515029D01*
X280296726Y-119562648D01*
X280487202Y-119610267D01*
X280630059Y-119610267D01*
X280820535Y-119562648D01*
X280915773Y-119515029D01*
X281011011Y-119419791D01*
X281058630Y-119276934D01*
X281058630Y-119038839D01*
X280058630Y-120515029D02*
X280058630Y-120038839D01*
X280534821Y-119991220D01*
X280487202Y-120038839D01*
X280439583Y-120134077D01*
X280439583Y-120372172D01*
X280487202Y-120467410D01*
X280534821Y-120515029D01*
X280630059Y-120562648D01*
X280868154Y-120562648D01*
X280963392Y-120515029D01*
X281011011Y-120467410D01*
X281058630Y-120372172D01*
X281058630Y-120134077D01*
X281011011Y-120038839D01*
X280963392Y-119991220D01*
X280058630Y-120895982D02*
X280058630Y-121515029D01*
X280439583Y-121181696D01*
X280439583Y-121324553D01*
X280487202Y-121419791D01*
X280534821Y-121467410D01*
X280630059Y-121515029D01*
X280868154Y-121515029D01*
X280963392Y-121467410D01*
X281011011Y-121419791D01*
X281058630Y-121324553D01*
X281058630Y-121038839D01*
X281011011Y-120943601D01*
X280963392Y-120895982D01*
X300108630Y-119038839D02*
X299108630Y-119038839D01*
X299108630Y-119276934D01*
X299156250Y-119419791D01*
X299251488Y-119515029D01*
X299346726Y-119562648D01*
X299537202Y-119610267D01*
X299680059Y-119610267D01*
X299870535Y-119562648D01*
X299965773Y-119515029D01*
X300061011Y-119419791D01*
X300108630Y-119276934D01*
X300108630Y-119038839D01*
X299108630Y-120515029D02*
X299108630Y-120038839D01*
X299584821Y-119991220D01*
X299537202Y-120038839D01*
X299489583Y-120134077D01*
X299489583Y-120372172D01*
X299537202Y-120467410D01*
X299584821Y-120515029D01*
X299680059Y-120562648D01*
X299918154Y-120562648D01*
X300013392Y-120515029D01*
X300061011Y-120467410D01*
X300108630Y-120372172D01*
X300108630Y-120134077D01*
X300061011Y-120038839D01*
X300013392Y-119991220D01*
X299441964Y-121419791D02*
X300108630Y-121419791D01*
X299061011Y-121181696D02*
X299775297Y-120943601D01*
X299775297Y-121562648D01*
X319158630Y-119038839D02*
X318158630Y-119038839D01*
X318158630Y-119276934D01*
X318206250Y-119419791D01*
X318301488Y-119515029D01*
X318396726Y-119562648D01*
X318587202Y-119610267D01*
X318730059Y-119610267D01*
X318920535Y-119562648D01*
X319015773Y-119515029D01*
X319111011Y-119419791D01*
X319158630Y-119276934D01*
X319158630Y-119038839D01*
X318158630Y-120515029D02*
X318158630Y-120038839D01*
X318634821Y-119991220D01*
X318587202Y-120038839D01*
X318539583Y-120134077D01*
X318539583Y-120372172D01*
X318587202Y-120467410D01*
X318634821Y-120515029D01*
X318730059Y-120562648D01*
X318968154Y-120562648D01*
X319063392Y-120515029D01*
X319111011Y-120467410D01*
X319158630Y-120372172D01*
X319158630Y-120134077D01*
X319111011Y-120038839D01*
X319063392Y-119991220D01*
X318158630Y-121467410D02*
X318158630Y-120991220D01*
X318634821Y-120943601D01*
X318587202Y-120991220D01*
X318539583Y-121086458D01*
X318539583Y-121324553D01*
X318587202Y-121419791D01*
X318634821Y-121467410D01*
X318730059Y-121515029D01*
X318968154Y-121515029D01*
X319063392Y-121467410D01*
X319111011Y-121419791D01*
X319158630Y-121324553D01*
X319158630Y-121086458D01*
X319111011Y-120991220D01*
X319063392Y-120943601D01*
X338208630Y-119038839D02*
X337208630Y-119038839D01*
X337208630Y-119276934D01*
X337256250Y-119419791D01*
X337351488Y-119515029D01*
X337446726Y-119562648D01*
X337637202Y-119610267D01*
X337780059Y-119610267D01*
X337970535Y-119562648D01*
X338065773Y-119515029D01*
X338161011Y-119419791D01*
X338208630Y-119276934D01*
X338208630Y-119038839D01*
X337208630Y-120515029D02*
X337208630Y-120038839D01*
X337684821Y-119991220D01*
X337637202Y-120038839D01*
X337589583Y-120134077D01*
X337589583Y-120372172D01*
X337637202Y-120467410D01*
X337684821Y-120515029D01*
X337780059Y-120562648D01*
X338018154Y-120562648D01*
X338113392Y-120515029D01*
X338161011Y-120467410D01*
X338208630Y-120372172D01*
X338208630Y-120134077D01*
X338161011Y-120038839D01*
X338113392Y-119991220D01*
X337208630Y-121419791D02*
X337208630Y-121229315D01*
X337256250Y-121134077D01*
X337303869Y-121086458D01*
X337446726Y-120991220D01*
X337637202Y-120943601D01*
X338018154Y-120943601D01*
X338113392Y-120991220D01*
X338161011Y-121038839D01*
X338208630Y-121134077D01*
X338208630Y-121324553D01*
X338161011Y-121419791D01*
X338113392Y-121467410D01*
X338018154Y-121515029D01*
X337780059Y-121515029D01*
X337684821Y-121467410D01*
X337637202Y-121419791D01*
X337589583Y-121324553D01*
X337589583Y-121134077D01*
X337637202Y-121038839D01*
X337684821Y-120991220D01*
X337780059Y-120943601D01*
X73889880Y-138088839D02*
X72889880Y-138088839D01*
X72889880Y-138326934D01*
X72937500Y-138469791D01*
X73032738Y-138565029D01*
X73127976Y-138612648D01*
X73318452Y-138660267D01*
X73461309Y-138660267D01*
X73651785Y-138612648D01*
X73747023Y-138565029D01*
X73842261Y-138469791D01*
X73889880Y-138326934D01*
X73889880Y-138088839D01*
X72889880Y-139565029D02*
X72889880Y-139088839D01*
X73366071Y-139041220D01*
X73318452Y-139088839D01*
X73270833Y-139184077D01*
X73270833Y-139422172D01*
X73318452Y-139517410D01*
X73366071Y-139565029D01*
X73461309Y-139612648D01*
X73699404Y-139612648D01*
X73794642Y-139565029D01*
X73842261Y-139517410D01*
X73889880Y-139422172D01*
X73889880Y-139184077D01*
X73842261Y-139088839D01*
X73794642Y-139041220D01*
X72889880Y-139945982D02*
X72889880Y-140612648D01*
X73889880Y-140184077D01*
X97702380Y-138088839D02*
X96702380Y-138088839D01*
X96702380Y-138326934D01*
X96750000Y-138469791D01*
X96845238Y-138565029D01*
X96940476Y-138612648D01*
X97130952Y-138660267D01*
X97273809Y-138660267D01*
X97464285Y-138612648D01*
X97559523Y-138565029D01*
X97654761Y-138469791D01*
X97702380Y-138326934D01*
X97702380Y-138088839D01*
X96702380Y-139565029D02*
X96702380Y-139088839D01*
X97178571Y-139041220D01*
X97130952Y-139088839D01*
X97083333Y-139184077D01*
X97083333Y-139422172D01*
X97130952Y-139517410D01*
X97178571Y-139565029D01*
X97273809Y-139612648D01*
X97511904Y-139612648D01*
X97607142Y-139565029D01*
X97654761Y-139517410D01*
X97702380Y-139422172D01*
X97702380Y-139184077D01*
X97654761Y-139088839D01*
X97607142Y-139041220D01*
X97130952Y-140184077D02*
X97083333Y-140088839D01*
X97035714Y-140041220D01*
X96940476Y-139993601D01*
X96892857Y-139993601D01*
X96797619Y-140041220D01*
X96750000Y-140088839D01*
X96702380Y-140184077D01*
X96702380Y-140374553D01*
X96750000Y-140469791D01*
X96797619Y-140517410D01*
X96892857Y-140565029D01*
X96940476Y-140565029D01*
X97035714Y-140517410D01*
X97083333Y-140469791D01*
X97130952Y-140374553D01*
X97130952Y-140184077D01*
X97178571Y-140088839D01*
X97226190Y-140041220D01*
X97321428Y-139993601D01*
X97511904Y-139993601D01*
X97607142Y-140041220D01*
X97654761Y-140088839D01*
X97702380Y-140184077D01*
X97702380Y-140374553D01*
X97654761Y-140469791D01*
X97607142Y-140517410D01*
X97511904Y-140565029D01*
X97321428Y-140565029D01*
X97226190Y-140517410D01*
X97178571Y-140469791D01*
X97130952Y-140374553D01*
X121514880Y-138088839D02*
X120514880Y-138088839D01*
X120514880Y-138326934D01*
X120562500Y-138469791D01*
X120657738Y-138565029D01*
X120752976Y-138612648D01*
X120943452Y-138660267D01*
X121086309Y-138660267D01*
X121276785Y-138612648D01*
X121372023Y-138565029D01*
X121467261Y-138469791D01*
X121514880Y-138326934D01*
X121514880Y-138088839D01*
X120514880Y-139565029D02*
X120514880Y-139088839D01*
X120991071Y-139041220D01*
X120943452Y-139088839D01*
X120895833Y-139184077D01*
X120895833Y-139422172D01*
X120943452Y-139517410D01*
X120991071Y-139565029D01*
X121086309Y-139612648D01*
X121324404Y-139612648D01*
X121419642Y-139565029D01*
X121467261Y-139517410D01*
X121514880Y-139422172D01*
X121514880Y-139184077D01*
X121467261Y-139088839D01*
X121419642Y-139041220D01*
X121514880Y-140088839D02*
X121514880Y-140279315D01*
X121467261Y-140374553D01*
X121419642Y-140422172D01*
X121276785Y-140517410D01*
X121086309Y-140565029D01*
X120705357Y-140565029D01*
X120610119Y-140517410D01*
X120562500Y-140469791D01*
X120514880Y-140374553D01*
X120514880Y-140184077D01*
X120562500Y-140088839D01*
X120610119Y-140041220D01*
X120705357Y-139993601D01*
X120943452Y-139993601D01*
X121038690Y-140041220D01*
X121086309Y-140088839D01*
X121133928Y-140184077D01*
X121133928Y-140374553D01*
X121086309Y-140469791D01*
X121038690Y-140517410D01*
X120943452Y-140565029D01*
X192952380Y-138088839D02*
X191952380Y-138088839D01*
X191952380Y-138326934D01*
X192000000Y-138469791D01*
X192095238Y-138565029D01*
X192190476Y-138612648D01*
X192380952Y-138660267D01*
X192523809Y-138660267D01*
X192714285Y-138612648D01*
X192809523Y-138565029D01*
X192904761Y-138469791D01*
X192952380Y-138326934D01*
X192952380Y-138088839D01*
X191952380Y-139517410D02*
X191952380Y-139326934D01*
X192000000Y-139231696D01*
X192047619Y-139184077D01*
X192190476Y-139088839D01*
X192380952Y-139041220D01*
X192761904Y-139041220D01*
X192857142Y-139088839D01*
X192904761Y-139136458D01*
X192952380Y-139231696D01*
X192952380Y-139422172D01*
X192904761Y-139517410D01*
X192857142Y-139565029D01*
X192761904Y-139612648D01*
X192523809Y-139612648D01*
X192428571Y-139565029D01*
X192380952Y-139517410D01*
X192333333Y-139422172D01*
X192333333Y-139231696D01*
X192380952Y-139136458D01*
X192428571Y-139088839D01*
X192523809Y-139041220D01*
X191952380Y-140231696D02*
X191952380Y-140326934D01*
X192000000Y-140422172D01*
X192047619Y-140469791D01*
X192142857Y-140517410D01*
X192333333Y-140565029D01*
X192571428Y-140565029D01*
X192761904Y-140517410D01*
X192857142Y-140469791D01*
X192904761Y-140422172D01*
X192952380Y-140326934D01*
X192952380Y-140231696D01*
X192904761Y-140136458D01*
X192857142Y-140088839D01*
X192761904Y-140041220D01*
X192571428Y-139993601D01*
X192333333Y-139993601D01*
X192142857Y-140041220D01*
X192047619Y-140088839D01*
X192000000Y-140136458D01*
X191952380Y-140231696D01*
X300108630Y-138088839D02*
X299108630Y-138088839D01*
X299108630Y-138326934D01*
X299156250Y-138469791D01*
X299251488Y-138565029D01*
X299346726Y-138612648D01*
X299537202Y-138660267D01*
X299680059Y-138660267D01*
X299870535Y-138612648D01*
X299965773Y-138565029D01*
X300061011Y-138469791D01*
X300108630Y-138326934D01*
X300108630Y-138088839D01*
X299108630Y-139517410D02*
X299108630Y-139326934D01*
X299156250Y-139231696D01*
X299203869Y-139184077D01*
X299346726Y-139088839D01*
X299537202Y-139041220D01*
X299918154Y-139041220D01*
X300013392Y-139088839D01*
X300061011Y-139136458D01*
X300108630Y-139231696D01*
X300108630Y-139422172D01*
X300061011Y-139517410D01*
X300013392Y-139565029D01*
X299918154Y-139612648D01*
X299680059Y-139612648D01*
X299584821Y-139565029D01*
X299537202Y-139517410D01*
X299489583Y-139422172D01*
X299489583Y-139231696D01*
X299537202Y-139136458D01*
X299584821Y-139088839D01*
X299680059Y-139041220D01*
X300108630Y-140565029D02*
X300108630Y-139993601D01*
X300108630Y-140279315D02*
X299108630Y-140279315D01*
X299251488Y-140184077D01*
X299346726Y-140088839D01*
X299394345Y-139993601D01*
X319158630Y-138088839D02*
X318158630Y-138088839D01*
X318158630Y-138326934D01*
X318206250Y-138469791D01*
X318301488Y-138565029D01*
X318396726Y-138612648D01*
X318587202Y-138660267D01*
X318730059Y-138660267D01*
X318920535Y-138612648D01*
X319015773Y-138565029D01*
X319111011Y-138469791D01*
X319158630Y-138326934D01*
X319158630Y-138088839D01*
X318158630Y-139517410D02*
X318158630Y-139326934D01*
X318206250Y-139231696D01*
X318253869Y-139184077D01*
X318396726Y-139088839D01*
X318587202Y-139041220D01*
X318968154Y-139041220D01*
X319063392Y-139088839D01*
X319111011Y-139136458D01*
X319158630Y-139231696D01*
X319158630Y-139422172D01*
X319111011Y-139517410D01*
X319063392Y-139565029D01*
X318968154Y-139612648D01*
X318730059Y-139612648D01*
X318634821Y-139565029D01*
X318587202Y-139517410D01*
X318539583Y-139422172D01*
X318539583Y-139231696D01*
X318587202Y-139136458D01*
X318634821Y-139088839D01*
X318730059Y-139041220D01*
X318253869Y-139993601D02*
X318206250Y-140041220D01*
X318158630Y-140136458D01*
X318158630Y-140374553D01*
X318206250Y-140469791D01*
X318253869Y-140517410D01*
X318349107Y-140565029D01*
X318444345Y-140565029D01*
X318587202Y-140517410D01*
X319158630Y-139945982D01*
X319158630Y-140565029D01*
X338208630Y-138088839D02*
X337208630Y-138088839D01*
X337208630Y-138326934D01*
X337256250Y-138469791D01*
X337351488Y-138565029D01*
X337446726Y-138612648D01*
X337637202Y-138660267D01*
X337780059Y-138660267D01*
X337970535Y-138612648D01*
X338065773Y-138565029D01*
X338161011Y-138469791D01*
X338208630Y-138326934D01*
X338208630Y-138088839D01*
X337208630Y-139517410D02*
X337208630Y-139326934D01*
X337256250Y-139231696D01*
X337303869Y-139184077D01*
X337446726Y-139088839D01*
X337637202Y-139041220D01*
X338018154Y-139041220D01*
X338113392Y-139088839D01*
X338161011Y-139136458D01*
X338208630Y-139231696D01*
X338208630Y-139422172D01*
X338161011Y-139517410D01*
X338113392Y-139565029D01*
X338018154Y-139612648D01*
X337780059Y-139612648D01*
X337684821Y-139565029D01*
X337637202Y-139517410D01*
X337589583Y-139422172D01*
X337589583Y-139231696D01*
X337637202Y-139136458D01*
X337684821Y-139088839D01*
X337780059Y-139041220D01*
X337208630Y-139945982D02*
X337208630Y-140565029D01*
X337589583Y-140231696D01*
X337589583Y-140374553D01*
X337637202Y-140469791D01*
X337684821Y-140517410D01*
X337780059Y-140565029D01*
X338018154Y-140565029D01*
X338113392Y-140517410D01*
X338161011Y-140469791D01*
X338208630Y-140374553D01*
X338208630Y-140088839D01*
X338161011Y-139993601D01*
X338113392Y-139945982D01*
X62650595Y-63031630D02*
X62650595Y-62031630D01*
X62079166Y-63031630D02*
X62507738Y-62460202D01*
X62079166Y-62031630D02*
X62650595Y-62603059D01*
X61126785Y-63031630D02*
X61698214Y-63031630D01*
X61412500Y-63031630D02*
X61412500Y-62031630D01*
X61507738Y-62174488D01*
X61602976Y-62269726D01*
X61698214Y-62317345D01*
X81700595Y-63031630D02*
X81700595Y-62031630D01*
X81129166Y-63031630D02*
X81557738Y-62460202D01*
X81129166Y-62031630D02*
X81700595Y-62603059D01*
X80748214Y-62126869D02*
X80700595Y-62079250D01*
X80605357Y-62031630D01*
X80367261Y-62031630D01*
X80272023Y-62079250D01*
X80224404Y-62126869D01*
X80176785Y-62222107D01*
X80176785Y-62317345D01*
X80224404Y-62460202D01*
X80795833Y-63031630D01*
X80176785Y-63031630D01*
X100750595Y-63031630D02*
X100750595Y-62031630D01*
X100179166Y-63031630D02*
X100607738Y-62460202D01*
X100179166Y-62031630D02*
X100750595Y-62603059D01*
X99845833Y-62031630D02*
X99226785Y-62031630D01*
X99560119Y-62412583D01*
X99417261Y-62412583D01*
X99322023Y-62460202D01*
X99274404Y-62507821D01*
X99226785Y-62603059D01*
X99226785Y-62841154D01*
X99274404Y-62936392D01*
X99322023Y-62984011D01*
X99417261Y-63031630D01*
X99702976Y-63031630D01*
X99798214Y-62984011D01*
X99845833Y-62936392D01*
X119800595Y-63031630D02*
X119800595Y-62031630D01*
X119229166Y-63031630D02*
X119657738Y-62460202D01*
X119229166Y-62031630D02*
X119800595Y-62603059D01*
X118372023Y-62364964D02*
X118372023Y-63031630D01*
X118610119Y-61984011D02*
X118848214Y-62698297D01*
X118229166Y-62698297D01*
X138850595Y-63031630D02*
X138850595Y-62031630D01*
X138279166Y-63031630D02*
X138707738Y-62460202D01*
X138279166Y-62031630D02*
X138850595Y-62603059D01*
X137374404Y-62031630D02*
X137850595Y-62031630D01*
X137898214Y-62507821D01*
X137850595Y-62460202D01*
X137755357Y-62412583D01*
X137517261Y-62412583D01*
X137422023Y-62460202D01*
X137374404Y-62507821D01*
X137326785Y-62603059D01*
X137326785Y-62841154D01*
X137374404Y-62936392D01*
X137422023Y-62984011D01*
X137517261Y-63031630D01*
X137755357Y-63031630D01*
X137850595Y-62984011D01*
X137898214Y-62936392D01*
X157900595Y-63031630D02*
X157900595Y-62031630D01*
X157329166Y-63031630D02*
X157757738Y-62460202D01*
X157329166Y-62031630D02*
X157900595Y-62603059D01*
X156472023Y-62031630D02*
X156662500Y-62031630D01*
X156757738Y-62079250D01*
X156805357Y-62126869D01*
X156900595Y-62269726D01*
X156948214Y-62460202D01*
X156948214Y-62841154D01*
X156900595Y-62936392D01*
X156852976Y-62984011D01*
X156757738Y-63031630D01*
X156567261Y-63031630D01*
X156472023Y-62984011D01*
X156424404Y-62936392D01*
X156376785Y-62841154D01*
X156376785Y-62603059D01*
X156424404Y-62507821D01*
X156472023Y-62460202D01*
X156567261Y-62412583D01*
X156757738Y-62412583D01*
X156852976Y-62460202D01*
X156900595Y-62507821D01*
X156948214Y-62603059D01*
X176950595Y-63031630D02*
X176950595Y-62031630D01*
X176379166Y-63031630D02*
X176807738Y-62460202D01*
X176379166Y-62031630D02*
X176950595Y-62603059D01*
X176045833Y-62031630D02*
X175379166Y-62031630D01*
X175807738Y-63031630D01*
X196000595Y-63031630D02*
X196000595Y-62031630D01*
X195429166Y-63031630D02*
X195857738Y-62460202D01*
X195429166Y-62031630D02*
X196000595Y-62603059D01*
X194857738Y-62460202D02*
X194952976Y-62412583D01*
X195000595Y-62364964D01*
X195048214Y-62269726D01*
X195048214Y-62222107D01*
X195000595Y-62126869D01*
X194952976Y-62079250D01*
X194857738Y-62031630D01*
X194667261Y-62031630D01*
X194572023Y-62079250D01*
X194524404Y-62126869D01*
X194476785Y-62222107D01*
X194476785Y-62269726D01*
X194524404Y-62364964D01*
X194572023Y-62412583D01*
X194667261Y-62460202D01*
X194857738Y-62460202D01*
X194952976Y-62507821D01*
X195000595Y-62555440D01*
X195048214Y-62650678D01*
X195048214Y-62841154D01*
X195000595Y-62936392D01*
X194952976Y-62984011D01*
X194857738Y-63031630D01*
X194667261Y-63031630D01*
X194572023Y-62984011D01*
X194524404Y-62936392D01*
X194476785Y-62841154D01*
X194476785Y-62650678D01*
X194524404Y-62555440D01*
X194572023Y-62507821D01*
X194667261Y-62460202D01*
X215050595Y-63031630D02*
X215050595Y-62031630D01*
X214479166Y-63031630D02*
X214907738Y-62460202D01*
X214479166Y-62031630D02*
X215050595Y-62603059D01*
X214002976Y-63031630D02*
X213812500Y-63031630D01*
X213717261Y-62984011D01*
X213669642Y-62936392D01*
X213574404Y-62793535D01*
X213526785Y-62603059D01*
X213526785Y-62222107D01*
X213574404Y-62126869D01*
X213622023Y-62079250D01*
X213717261Y-62031630D01*
X213907738Y-62031630D01*
X214002976Y-62079250D01*
X214050595Y-62126869D01*
X214098214Y-62222107D01*
X214098214Y-62460202D01*
X214050595Y-62555440D01*
X214002976Y-62603059D01*
X213907738Y-62650678D01*
X213717261Y-62650678D01*
X213622023Y-62603059D01*
X213574404Y-62555440D01*
X213526785Y-62460202D01*
X234576785Y-63031630D02*
X234576785Y-62031630D01*
X234005357Y-63031630D02*
X234433928Y-62460202D01*
X234005357Y-62031630D02*
X234576785Y-62603059D01*
X233052976Y-63031630D02*
X233624404Y-63031630D01*
X233338690Y-63031630D02*
X233338690Y-62031630D01*
X233433928Y-62174488D01*
X233529166Y-62269726D01*
X233624404Y-62317345D01*
X232433928Y-62031630D02*
X232338690Y-62031630D01*
X232243452Y-62079250D01*
X232195833Y-62126869D01*
X232148214Y-62222107D01*
X232100595Y-62412583D01*
X232100595Y-62650678D01*
X232148214Y-62841154D01*
X232195833Y-62936392D01*
X232243452Y-62984011D01*
X232338690Y-63031630D01*
X232433928Y-63031630D01*
X232529166Y-62984011D01*
X232576785Y-62936392D01*
X232624404Y-62841154D01*
X232672023Y-62650678D01*
X232672023Y-62412583D01*
X232624404Y-62222107D01*
X232576785Y-62126869D01*
X232529166Y-62079250D01*
X232433928Y-62031630D01*
X253626785Y-63031630D02*
X253626785Y-62031630D01*
X253055357Y-63031630D02*
X253483928Y-62460202D01*
X253055357Y-62031630D02*
X253626785Y-62603059D01*
X252102976Y-63031630D02*
X252674404Y-63031630D01*
X252388690Y-63031630D02*
X252388690Y-62031630D01*
X252483928Y-62174488D01*
X252579166Y-62269726D01*
X252674404Y-62317345D01*
X251150595Y-63031630D02*
X251722023Y-63031630D01*
X251436309Y-63031630D02*
X251436309Y-62031630D01*
X251531547Y-62174488D01*
X251626785Y-62269726D01*
X251722023Y-62317345D01*
X272676785Y-63031630D02*
X272676785Y-62031630D01*
X272105357Y-63031630D02*
X272533928Y-62460202D01*
X272105357Y-62031630D02*
X272676785Y-62603059D01*
X271152976Y-63031630D02*
X271724404Y-63031630D01*
X271438690Y-63031630D02*
X271438690Y-62031630D01*
X271533928Y-62174488D01*
X271629166Y-62269726D01*
X271724404Y-62317345D01*
X270772023Y-62126869D02*
X270724404Y-62079250D01*
X270629166Y-62031630D01*
X270391071Y-62031630D01*
X270295833Y-62079250D01*
X270248214Y-62126869D01*
X270200595Y-62222107D01*
X270200595Y-62317345D01*
X270248214Y-62460202D01*
X270819642Y-63031630D01*
X270200595Y-63031630D01*
X310776785Y-63031630D02*
X310776785Y-62031630D01*
X310205357Y-63031630D02*
X310633928Y-62460202D01*
X310205357Y-62031630D02*
X310776785Y-62603059D01*
X309252976Y-63031630D02*
X309824404Y-63031630D01*
X309538690Y-63031630D02*
X309538690Y-62031630D01*
X309633928Y-62174488D01*
X309729166Y-62269726D01*
X309824404Y-62317345D01*
X308395833Y-62364964D02*
X308395833Y-63031630D01*
X308633928Y-61984011D02*
X308872023Y-62698297D01*
X308252976Y-62698297D01*
X329826785Y-63031630D02*
X329826785Y-62031630D01*
X329255357Y-63031630D02*
X329683928Y-62460202D01*
X329255357Y-62031630D02*
X329826785Y-62603059D01*
X328302976Y-63031630D02*
X328874404Y-63031630D01*
X328588690Y-63031630D02*
X328588690Y-62031630D01*
X328683928Y-62174488D01*
X328779166Y-62269726D01*
X328874404Y-62317345D01*
X327398214Y-62031630D02*
X327874404Y-62031630D01*
X327922023Y-62507821D01*
X327874404Y-62460202D01*
X327779166Y-62412583D01*
X327541071Y-62412583D01*
X327445833Y-62460202D01*
X327398214Y-62507821D01*
X327350595Y-62603059D01*
X327350595Y-62841154D01*
X327398214Y-62936392D01*
X327445833Y-62984011D01*
X327541071Y-63031630D01*
X327779166Y-63031630D01*
X327874404Y-62984011D01*
X327922023Y-62936392D01*
X67889285Y-82081630D02*
X67889285Y-81081630D01*
X67317857Y-82081630D02*
X67746428Y-81510202D01*
X67317857Y-81081630D02*
X67889285Y-81653059D01*
X66365476Y-82081630D02*
X66936904Y-82081630D01*
X66651190Y-82081630D02*
X66651190Y-81081630D01*
X66746428Y-81224488D01*
X66841666Y-81319726D01*
X66936904Y-81367345D01*
X65508333Y-81081630D02*
X65698809Y-81081630D01*
X65794047Y-81129250D01*
X65841666Y-81176869D01*
X65936904Y-81319726D01*
X65984523Y-81510202D01*
X65984523Y-81891154D01*
X65936904Y-81986392D01*
X65889285Y-82034011D01*
X65794047Y-82081630D01*
X65603571Y-82081630D01*
X65508333Y-82034011D01*
X65460714Y-81986392D01*
X65413095Y-81891154D01*
X65413095Y-81653059D01*
X65460714Y-81557821D01*
X65508333Y-81510202D01*
X65603571Y-81462583D01*
X65794047Y-81462583D01*
X65889285Y-81510202D01*
X65936904Y-81557821D01*
X65984523Y-81653059D01*
X91701785Y-82081630D02*
X91701785Y-81081630D01*
X91130357Y-82081630D02*
X91558928Y-81510202D01*
X91130357Y-81081630D02*
X91701785Y-81653059D01*
X90177976Y-82081630D02*
X90749404Y-82081630D01*
X90463690Y-82081630D02*
X90463690Y-81081630D01*
X90558928Y-81224488D01*
X90654166Y-81319726D01*
X90749404Y-81367345D01*
X89844642Y-81081630D02*
X89177976Y-81081630D01*
X89606547Y-82081630D01*
X110751785Y-82081630D02*
X110751785Y-81081630D01*
X110180357Y-82081630D02*
X110608928Y-81510202D01*
X110180357Y-81081630D02*
X110751785Y-81653059D01*
X109227976Y-82081630D02*
X109799404Y-82081630D01*
X109513690Y-82081630D02*
X109513690Y-81081630D01*
X109608928Y-81224488D01*
X109704166Y-81319726D01*
X109799404Y-81367345D01*
X108656547Y-81510202D02*
X108751785Y-81462583D01*
X108799404Y-81414964D01*
X108847023Y-81319726D01*
X108847023Y-81272107D01*
X108799404Y-81176869D01*
X108751785Y-81129250D01*
X108656547Y-81081630D01*
X108466071Y-81081630D01*
X108370833Y-81129250D01*
X108323214Y-81176869D01*
X108275595Y-81272107D01*
X108275595Y-81319726D01*
X108323214Y-81414964D01*
X108370833Y-81462583D01*
X108466071Y-81510202D01*
X108656547Y-81510202D01*
X108751785Y-81557821D01*
X108799404Y-81605440D01*
X108847023Y-81700678D01*
X108847023Y-81891154D01*
X108799404Y-81986392D01*
X108751785Y-82034011D01*
X108656547Y-82081630D01*
X108466071Y-82081630D01*
X108370833Y-82034011D01*
X108323214Y-81986392D01*
X108275595Y-81891154D01*
X108275595Y-81700678D01*
X108323214Y-81605440D01*
X108370833Y-81557821D01*
X108466071Y-81510202D01*
X129801785Y-82081630D02*
X129801785Y-81081630D01*
X129230357Y-82081630D02*
X129658928Y-81510202D01*
X129230357Y-81081630D02*
X129801785Y-81653059D01*
X128277976Y-82081630D02*
X128849404Y-82081630D01*
X128563690Y-82081630D02*
X128563690Y-81081630D01*
X128658928Y-81224488D01*
X128754166Y-81319726D01*
X128849404Y-81367345D01*
X127801785Y-82081630D02*
X127611309Y-82081630D01*
X127516071Y-82034011D01*
X127468452Y-81986392D01*
X127373214Y-81843535D01*
X127325595Y-81653059D01*
X127325595Y-81272107D01*
X127373214Y-81176869D01*
X127420833Y-81129250D01*
X127516071Y-81081630D01*
X127706547Y-81081630D01*
X127801785Y-81129250D01*
X127849404Y-81176869D01*
X127897023Y-81272107D01*
X127897023Y-81510202D01*
X127849404Y-81605440D01*
X127801785Y-81653059D01*
X127706547Y-81700678D01*
X127516071Y-81700678D01*
X127420833Y-81653059D01*
X127373214Y-81605440D01*
X127325595Y-81510202D01*
X148851785Y-82081630D02*
X148851785Y-81081630D01*
X148280357Y-82081630D02*
X148708928Y-81510202D01*
X148280357Y-81081630D02*
X148851785Y-81653059D01*
X147899404Y-81176869D02*
X147851785Y-81129250D01*
X147756547Y-81081630D01*
X147518452Y-81081630D01*
X147423214Y-81129250D01*
X147375595Y-81176869D01*
X147327976Y-81272107D01*
X147327976Y-81367345D01*
X147375595Y-81510202D01*
X147947023Y-82081630D01*
X147327976Y-82081630D01*
X146708928Y-81081630D02*
X146613690Y-81081630D01*
X146518452Y-81129250D01*
X146470833Y-81176869D01*
X146423214Y-81272107D01*
X146375595Y-81462583D01*
X146375595Y-81700678D01*
X146423214Y-81891154D01*
X146470833Y-81986392D01*
X146518452Y-82034011D01*
X146613690Y-82081630D01*
X146708928Y-82081630D01*
X146804166Y-82034011D01*
X146851785Y-81986392D01*
X146899404Y-81891154D01*
X146947023Y-81700678D01*
X146947023Y-81462583D01*
X146899404Y-81272107D01*
X146851785Y-81176869D01*
X146804166Y-81129250D01*
X146708928Y-81081630D01*
X167901785Y-82081630D02*
X167901785Y-81081630D01*
X167330357Y-82081630D02*
X167758928Y-81510202D01*
X167330357Y-81081630D02*
X167901785Y-81653059D01*
X166949404Y-81176869D02*
X166901785Y-81129250D01*
X166806547Y-81081630D01*
X166568452Y-81081630D01*
X166473214Y-81129250D01*
X166425595Y-81176869D01*
X166377976Y-81272107D01*
X166377976Y-81367345D01*
X166425595Y-81510202D01*
X166997023Y-82081630D01*
X166377976Y-82081630D01*
X165425595Y-82081630D02*
X165997023Y-82081630D01*
X165711309Y-82081630D02*
X165711309Y-81081630D01*
X165806547Y-81224488D01*
X165901785Y-81319726D01*
X165997023Y-81367345D01*
X186951785Y-82081630D02*
X186951785Y-81081630D01*
X186380357Y-82081630D02*
X186808928Y-81510202D01*
X186380357Y-81081630D02*
X186951785Y-81653059D01*
X185999404Y-81176869D02*
X185951785Y-81129250D01*
X185856547Y-81081630D01*
X185618452Y-81081630D01*
X185523214Y-81129250D01*
X185475595Y-81176869D01*
X185427976Y-81272107D01*
X185427976Y-81367345D01*
X185475595Y-81510202D01*
X186047023Y-82081630D01*
X185427976Y-82081630D01*
X185047023Y-81176869D02*
X184999404Y-81129250D01*
X184904166Y-81081630D01*
X184666071Y-81081630D01*
X184570833Y-81129250D01*
X184523214Y-81176869D01*
X184475595Y-81272107D01*
X184475595Y-81367345D01*
X184523214Y-81510202D01*
X185094642Y-82081630D01*
X184475595Y-82081630D01*
X206001785Y-82081630D02*
X206001785Y-81081630D01*
X205430357Y-82081630D02*
X205858928Y-81510202D01*
X205430357Y-81081630D02*
X206001785Y-81653059D01*
X205049404Y-81176869D02*
X205001785Y-81129250D01*
X204906547Y-81081630D01*
X204668452Y-81081630D01*
X204573214Y-81129250D01*
X204525595Y-81176869D01*
X204477976Y-81272107D01*
X204477976Y-81367345D01*
X204525595Y-81510202D01*
X205097023Y-82081630D01*
X204477976Y-82081630D01*
X204144642Y-81081630D02*
X203525595Y-81081630D01*
X203858928Y-81462583D01*
X203716071Y-81462583D01*
X203620833Y-81510202D01*
X203573214Y-81557821D01*
X203525595Y-81653059D01*
X203525595Y-81891154D01*
X203573214Y-81986392D01*
X203620833Y-82034011D01*
X203716071Y-82081630D01*
X204001785Y-82081630D01*
X204097023Y-82034011D01*
X204144642Y-81986392D01*
X225051785Y-82081630D02*
X225051785Y-81081630D01*
X224480357Y-82081630D02*
X224908928Y-81510202D01*
X224480357Y-81081630D02*
X225051785Y-81653059D01*
X224099404Y-81176869D02*
X224051785Y-81129250D01*
X223956547Y-81081630D01*
X223718452Y-81081630D01*
X223623214Y-81129250D01*
X223575595Y-81176869D01*
X223527976Y-81272107D01*
X223527976Y-81367345D01*
X223575595Y-81510202D01*
X224147023Y-82081630D01*
X223527976Y-82081630D01*
X222670833Y-81414964D02*
X222670833Y-82081630D01*
X222908928Y-81034011D02*
X223147023Y-81748297D01*
X222527976Y-81748297D01*
X244101785Y-82081630D02*
X244101785Y-81081630D01*
X243530357Y-82081630D02*
X243958928Y-81510202D01*
X243530357Y-81081630D02*
X244101785Y-81653059D01*
X243149404Y-81176869D02*
X243101785Y-81129250D01*
X243006547Y-81081630D01*
X242768452Y-81081630D01*
X242673214Y-81129250D01*
X242625595Y-81176869D01*
X242577976Y-81272107D01*
X242577976Y-81367345D01*
X242625595Y-81510202D01*
X243197023Y-82081630D01*
X242577976Y-82081630D01*
X241673214Y-81081630D02*
X242149404Y-81081630D01*
X242197023Y-81557821D01*
X242149404Y-81510202D01*
X242054166Y-81462583D01*
X241816071Y-81462583D01*
X241720833Y-81510202D01*
X241673214Y-81557821D01*
X241625595Y-81653059D01*
X241625595Y-81891154D01*
X241673214Y-81986392D01*
X241720833Y-82034011D01*
X241816071Y-82081630D01*
X242054166Y-82081630D01*
X242149404Y-82034011D01*
X242197023Y-81986392D01*
X263151785Y-82081630D02*
X263151785Y-81081630D01*
X262580357Y-82081630D02*
X263008928Y-81510202D01*
X262580357Y-81081630D02*
X263151785Y-81653059D01*
X262199404Y-81176869D02*
X262151785Y-81129250D01*
X262056547Y-81081630D01*
X261818452Y-81081630D01*
X261723214Y-81129250D01*
X261675595Y-81176869D01*
X261627976Y-81272107D01*
X261627976Y-81367345D01*
X261675595Y-81510202D01*
X262247023Y-82081630D01*
X261627976Y-82081630D01*
X260770833Y-81081630D02*
X260961309Y-81081630D01*
X261056547Y-81129250D01*
X261104166Y-81176869D01*
X261199404Y-81319726D01*
X261247023Y-81510202D01*
X261247023Y-81891154D01*
X261199404Y-81986392D01*
X261151785Y-82034011D01*
X261056547Y-82081630D01*
X260866071Y-82081630D01*
X260770833Y-82034011D01*
X260723214Y-81986392D01*
X260675595Y-81891154D01*
X260675595Y-81653059D01*
X260723214Y-81557821D01*
X260770833Y-81510202D01*
X260866071Y-81462583D01*
X261056547Y-81462583D01*
X261151785Y-81510202D01*
X261199404Y-81557821D01*
X261247023Y-81653059D01*
X282201785Y-82081630D02*
X282201785Y-81081630D01*
X281630357Y-82081630D02*
X282058928Y-81510202D01*
X281630357Y-81081630D02*
X282201785Y-81653059D01*
X281249404Y-81176869D02*
X281201785Y-81129250D01*
X281106547Y-81081630D01*
X280868452Y-81081630D01*
X280773214Y-81129250D01*
X280725595Y-81176869D01*
X280677976Y-81272107D01*
X280677976Y-81367345D01*
X280725595Y-81510202D01*
X281297023Y-82081630D01*
X280677976Y-82081630D01*
X280344642Y-81081630D02*
X279677976Y-81081630D01*
X280106547Y-82081630D01*
X301251785Y-82081630D02*
X301251785Y-81081630D01*
X300680357Y-82081630D02*
X301108928Y-81510202D01*
X300680357Y-81081630D02*
X301251785Y-81653059D01*
X300299404Y-81176869D02*
X300251785Y-81129250D01*
X300156547Y-81081630D01*
X299918452Y-81081630D01*
X299823214Y-81129250D01*
X299775595Y-81176869D01*
X299727976Y-81272107D01*
X299727976Y-81367345D01*
X299775595Y-81510202D01*
X300347023Y-82081630D01*
X299727976Y-82081630D01*
X299156547Y-81510202D02*
X299251785Y-81462583D01*
X299299404Y-81414964D01*
X299347023Y-81319726D01*
X299347023Y-81272107D01*
X299299404Y-81176869D01*
X299251785Y-81129250D01*
X299156547Y-81081630D01*
X298966071Y-81081630D01*
X298870833Y-81129250D01*
X298823214Y-81176869D01*
X298775595Y-81272107D01*
X298775595Y-81319726D01*
X298823214Y-81414964D01*
X298870833Y-81462583D01*
X298966071Y-81510202D01*
X299156547Y-81510202D01*
X299251785Y-81557821D01*
X299299404Y-81605440D01*
X299347023Y-81700678D01*
X299347023Y-81891154D01*
X299299404Y-81986392D01*
X299251785Y-82034011D01*
X299156547Y-82081630D01*
X298966071Y-82081630D01*
X298870833Y-82034011D01*
X298823214Y-81986392D01*
X298775595Y-81891154D01*
X298775595Y-81700678D01*
X298823214Y-81605440D01*
X298870833Y-81557821D01*
X298966071Y-81510202D01*
X70270535Y-101131630D02*
X70270535Y-100131630D01*
X69699107Y-101131630D02*
X70127678Y-100560202D01*
X69699107Y-100131630D02*
X70270535Y-100703059D01*
X69318154Y-100226869D02*
X69270535Y-100179250D01*
X69175297Y-100131630D01*
X68937202Y-100131630D01*
X68841964Y-100179250D01*
X68794345Y-100226869D01*
X68746726Y-100322107D01*
X68746726Y-100417345D01*
X68794345Y-100560202D01*
X69365773Y-101131630D01*
X68746726Y-101131630D01*
X68270535Y-101131630D02*
X68080059Y-101131630D01*
X67984821Y-101084011D01*
X67937202Y-101036392D01*
X67841964Y-100893535D01*
X67794345Y-100703059D01*
X67794345Y-100322107D01*
X67841964Y-100226869D01*
X67889583Y-100179250D01*
X67984821Y-100131630D01*
X68175297Y-100131630D01*
X68270535Y-100179250D01*
X68318154Y-100226869D01*
X68365773Y-100322107D01*
X68365773Y-100560202D01*
X68318154Y-100655440D01*
X68270535Y-100703059D01*
X68175297Y-100750678D01*
X67984821Y-100750678D01*
X67889583Y-100703059D01*
X67841964Y-100655440D01*
X67794345Y-100560202D01*
X96464285Y-101131630D02*
X96464285Y-100131630D01*
X95892857Y-101131630D02*
X96321428Y-100560202D01*
X95892857Y-100131630D02*
X96464285Y-100703059D01*
X95559523Y-100131630D02*
X94940476Y-100131630D01*
X95273809Y-100512583D01*
X95130952Y-100512583D01*
X95035714Y-100560202D01*
X94988095Y-100607821D01*
X94940476Y-100703059D01*
X94940476Y-100941154D01*
X94988095Y-101036392D01*
X95035714Y-101084011D01*
X95130952Y-101131630D01*
X95416666Y-101131630D01*
X95511904Y-101084011D01*
X95559523Y-101036392D01*
X94321428Y-100131630D02*
X94226190Y-100131630D01*
X94130952Y-100179250D01*
X94083333Y-100226869D01*
X94035714Y-100322107D01*
X93988095Y-100512583D01*
X93988095Y-100750678D01*
X94035714Y-100941154D01*
X94083333Y-101036392D01*
X94130952Y-101084011D01*
X94226190Y-101131630D01*
X94321428Y-101131630D01*
X94416666Y-101084011D01*
X94464285Y-101036392D01*
X94511904Y-100941154D01*
X94559523Y-100750678D01*
X94559523Y-100512583D01*
X94511904Y-100322107D01*
X94464285Y-100226869D01*
X94416666Y-100179250D01*
X94321428Y-100131630D01*
X115514285Y-101131630D02*
X115514285Y-100131630D01*
X114942857Y-101131630D02*
X115371428Y-100560202D01*
X114942857Y-100131630D02*
X115514285Y-100703059D01*
X114609523Y-100131630D02*
X113990476Y-100131630D01*
X114323809Y-100512583D01*
X114180952Y-100512583D01*
X114085714Y-100560202D01*
X114038095Y-100607821D01*
X113990476Y-100703059D01*
X113990476Y-100941154D01*
X114038095Y-101036392D01*
X114085714Y-101084011D01*
X114180952Y-101131630D01*
X114466666Y-101131630D01*
X114561904Y-101084011D01*
X114609523Y-101036392D01*
X113038095Y-101131630D02*
X113609523Y-101131630D01*
X113323809Y-101131630D02*
X113323809Y-100131630D01*
X113419047Y-100274488D01*
X113514285Y-100369726D01*
X113609523Y-100417345D01*
X134564285Y-101131630D02*
X134564285Y-100131630D01*
X133992857Y-101131630D02*
X134421428Y-100560202D01*
X133992857Y-100131630D02*
X134564285Y-100703059D01*
X133659523Y-100131630D02*
X133040476Y-100131630D01*
X133373809Y-100512583D01*
X133230952Y-100512583D01*
X133135714Y-100560202D01*
X133088095Y-100607821D01*
X133040476Y-100703059D01*
X133040476Y-100941154D01*
X133088095Y-101036392D01*
X133135714Y-101084011D01*
X133230952Y-101131630D01*
X133516666Y-101131630D01*
X133611904Y-101084011D01*
X133659523Y-101036392D01*
X132659523Y-100226869D02*
X132611904Y-100179250D01*
X132516666Y-100131630D01*
X132278571Y-100131630D01*
X132183333Y-100179250D01*
X132135714Y-100226869D01*
X132088095Y-100322107D01*
X132088095Y-100417345D01*
X132135714Y-100560202D01*
X132707142Y-101131630D01*
X132088095Y-101131630D01*
X153614285Y-101131630D02*
X153614285Y-100131630D01*
X153042857Y-101131630D02*
X153471428Y-100560202D01*
X153042857Y-100131630D02*
X153614285Y-100703059D01*
X152709523Y-100131630D02*
X152090476Y-100131630D01*
X152423809Y-100512583D01*
X152280952Y-100512583D01*
X152185714Y-100560202D01*
X152138095Y-100607821D01*
X152090476Y-100703059D01*
X152090476Y-100941154D01*
X152138095Y-101036392D01*
X152185714Y-101084011D01*
X152280952Y-101131630D01*
X152566666Y-101131630D01*
X152661904Y-101084011D01*
X152709523Y-101036392D01*
X151757142Y-100131630D02*
X151138095Y-100131630D01*
X151471428Y-100512583D01*
X151328571Y-100512583D01*
X151233333Y-100560202D01*
X151185714Y-100607821D01*
X151138095Y-100703059D01*
X151138095Y-100941154D01*
X151185714Y-101036392D01*
X151233333Y-101084011D01*
X151328571Y-101131630D01*
X151614285Y-101131630D01*
X151709523Y-101084011D01*
X151757142Y-101036392D01*
X172664285Y-101131630D02*
X172664285Y-100131630D01*
X172092857Y-101131630D02*
X172521428Y-100560202D01*
X172092857Y-100131630D02*
X172664285Y-100703059D01*
X171759523Y-100131630D02*
X171140476Y-100131630D01*
X171473809Y-100512583D01*
X171330952Y-100512583D01*
X171235714Y-100560202D01*
X171188095Y-100607821D01*
X171140476Y-100703059D01*
X171140476Y-100941154D01*
X171188095Y-101036392D01*
X171235714Y-101084011D01*
X171330952Y-101131630D01*
X171616666Y-101131630D01*
X171711904Y-101084011D01*
X171759523Y-101036392D01*
X170283333Y-100464964D02*
X170283333Y-101131630D01*
X170521428Y-100084011D02*
X170759523Y-100798297D01*
X170140476Y-100798297D01*
X191714285Y-101131630D02*
X191714285Y-100131630D01*
X191142857Y-101131630D02*
X191571428Y-100560202D01*
X191142857Y-100131630D02*
X191714285Y-100703059D01*
X190809523Y-100131630D02*
X190190476Y-100131630D01*
X190523809Y-100512583D01*
X190380952Y-100512583D01*
X190285714Y-100560202D01*
X190238095Y-100607821D01*
X190190476Y-100703059D01*
X190190476Y-100941154D01*
X190238095Y-101036392D01*
X190285714Y-101084011D01*
X190380952Y-101131630D01*
X190666666Y-101131630D01*
X190761904Y-101084011D01*
X190809523Y-101036392D01*
X189285714Y-100131630D02*
X189761904Y-100131630D01*
X189809523Y-100607821D01*
X189761904Y-100560202D01*
X189666666Y-100512583D01*
X189428571Y-100512583D01*
X189333333Y-100560202D01*
X189285714Y-100607821D01*
X189238095Y-100703059D01*
X189238095Y-100941154D01*
X189285714Y-101036392D01*
X189333333Y-101084011D01*
X189428571Y-101131630D01*
X189666666Y-101131630D01*
X189761904Y-101084011D01*
X189809523Y-101036392D01*
X210764285Y-101131630D02*
X210764285Y-100131630D01*
X210192857Y-101131630D02*
X210621428Y-100560202D01*
X210192857Y-100131630D02*
X210764285Y-100703059D01*
X209859523Y-100131630D02*
X209240476Y-100131630D01*
X209573809Y-100512583D01*
X209430952Y-100512583D01*
X209335714Y-100560202D01*
X209288095Y-100607821D01*
X209240476Y-100703059D01*
X209240476Y-100941154D01*
X209288095Y-101036392D01*
X209335714Y-101084011D01*
X209430952Y-101131630D01*
X209716666Y-101131630D01*
X209811904Y-101084011D01*
X209859523Y-101036392D01*
X208383333Y-100131630D02*
X208573809Y-100131630D01*
X208669047Y-100179250D01*
X208716666Y-100226869D01*
X208811904Y-100369726D01*
X208859523Y-100560202D01*
X208859523Y-100941154D01*
X208811904Y-101036392D01*
X208764285Y-101084011D01*
X208669047Y-101131630D01*
X208478571Y-101131630D01*
X208383333Y-101084011D01*
X208335714Y-101036392D01*
X208288095Y-100941154D01*
X208288095Y-100703059D01*
X208335714Y-100607821D01*
X208383333Y-100560202D01*
X208478571Y-100512583D01*
X208669047Y-100512583D01*
X208764285Y-100560202D01*
X208811904Y-100607821D01*
X208859523Y-100703059D01*
X229814285Y-101131630D02*
X229814285Y-100131630D01*
X229242857Y-101131630D02*
X229671428Y-100560202D01*
X229242857Y-100131630D02*
X229814285Y-100703059D01*
X228909523Y-100131630D02*
X228290476Y-100131630D01*
X228623809Y-100512583D01*
X228480952Y-100512583D01*
X228385714Y-100560202D01*
X228338095Y-100607821D01*
X228290476Y-100703059D01*
X228290476Y-100941154D01*
X228338095Y-101036392D01*
X228385714Y-101084011D01*
X228480952Y-101131630D01*
X228766666Y-101131630D01*
X228861904Y-101084011D01*
X228909523Y-101036392D01*
X227957142Y-100131630D02*
X227290476Y-100131630D01*
X227719047Y-101131630D01*
X248864285Y-101131630D02*
X248864285Y-100131630D01*
X248292857Y-101131630D02*
X248721428Y-100560202D01*
X248292857Y-100131630D02*
X248864285Y-100703059D01*
X247959523Y-100131630D02*
X247340476Y-100131630D01*
X247673809Y-100512583D01*
X247530952Y-100512583D01*
X247435714Y-100560202D01*
X247388095Y-100607821D01*
X247340476Y-100703059D01*
X247340476Y-100941154D01*
X247388095Y-101036392D01*
X247435714Y-101084011D01*
X247530952Y-101131630D01*
X247816666Y-101131630D01*
X247911904Y-101084011D01*
X247959523Y-101036392D01*
X246769047Y-100560202D02*
X246864285Y-100512583D01*
X246911904Y-100464964D01*
X246959523Y-100369726D01*
X246959523Y-100322107D01*
X246911904Y-100226869D01*
X246864285Y-100179250D01*
X246769047Y-100131630D01*
X246578571Y-100131630D01*
X246483333Y-100179250D01*
X246435714Y-100226869D01*
X246388095Y-100322107D01*
X246388095Y-100369726D01*
X246435714Y-100464964D01*
X246483333Y-100512583D01*
X246578571Y-100560202D01*
X246769047Y-100560202D01*
X246864285Y-100607821D01*
X246911904Y-100655440D01*
X246959523Y-100750678D01*
X246959523Y-100941154D01*
X246911904Y-101036392D01*
X246864285Y-101084011D01*
X246769047Y-101131630D01*
X246578571Y-101131630D01*
X246483333Y-101084011D01*
X246435714Y-101036392D01*
X246388095Y-100941154D01*
X246388095Y-100750678D01*
X246435714Y-100655440D01*
X246483333Y-100607821D01*
X246578571Y-100560202D01*
X267914285Y-101131630D02*
X267914285Y-100131630D01*
X267342857Y-101131630D02*
X267771428Y-100560202D01*
X267342857Y-100131630D02*
X267914285Y-100703059D01*
X267009523Y-100131630D02*
X266390476Y-100131630D01*
X266723809Y-100512583D01*
X266580952Y-100512583D01*
X266485714Y-100560202D01*
X266438095Y-100607821D01*
X266390476Y-100703059D01*
X266390476Y-100941154D01*
X266438095Y-101036392D01*
X266485714Y-101084011D01*
X266580952Y-101131630D01*
X266866666Y-101131630D01*
X266961904Y-101084011D01*
X267009523Y-101036392D01*
X265914285Y-101131630D02*
X265723809Y-101131630D01*
X265628571Y-101084011D01*
X265580952Y-101036392D01*
X265485714Y-100893535D01*
X265438095Y-100703059D01*
X265438095Y-100322107D01*
X265485714Y-100226869D01*
X265533333Y-100179250D01*
X265628571Y-100131630D01*
X265819047Y-100131630D01*
X265914285Y-100179250D01*
X265961904Y-100226869D01*
X266009523Y-100322107D01*
X266009523Y-100560202D01*
X265961904Y-100655440D01*
X265914285Y-100703059D01*
X265819047Y-100750678D01*
X265628571Y-100750678D01*
X265533333Y-100703059D01*
X265485714Y-100655440D01*
X265438095Y-100560202D01*
X286964285Y-101131630D02*
X286964285Y-100131630D01*
X286392857Y-101131630D02*
X286821428Y-100560202D01*
X286392857Y-100131630D02*
X286964285Y-100703059D01*
X285535714Y-100464964D02*
X285535714Y-101131630D01*
X285773809Y-100084011D02*
X286011904Y-100798297D01*
X285392857Y-100798297D01*
X284821428Y-100131630D02*
X284726190Y-100131630D01*
X284630952Y-100179250D01*
X284583333Y-100226869D01*
X284535714Y-100322107D01*
X284488095Y-100512583D01*
X284488095Y-100750678D01*
X284535714Y-100941154D01*
X284583333Y-101036392D01*
X284630952Y-101084011D01*
X284726190Y-101131630D01*
X284821428Y-101131630D01*
X284916666Y-101084011D01*
X284964285Y-101036392D01*
X285011904Y-100941154D01*
X285059523Y-100750678D01*
X285059523Y-100512583D01*
X285011904Y-100322107D01*
X284964285Y-100226869D01*
X284916666Y-100179250D01*
X284821428Y-100131630D01*
X306014285Y-101131630D02*
X306014285Y-100131630D01*
X305442857Y-101131630D02*
X305871428Y-100560202D01*
X305442857Y-100131630D02*
X306014285Y-100703059D01*
X304585714Y-100464964D02*
X304585714Y-101131630D01*
X304823809Y-100084011D02*
X305061904Y-100798297D01*
X304442857Y-100798297D01*
X303538095Y-101131630D02*
X304109523Y-101131630D01*
X303823809Y-101131630D02*
X303823809Y-100131630D01*
X303919047Y-100274488D01*
X304014285Y-100369726D01*
X304109523Y-100417345D01*
X327445535Y-91733630D02*
X327445535Y-90733630D01*
X326874107Y-91733630D02*
X327302678Y-91162202D01*
X326874107Y-90733630D02*
X327445535Y-91305059D01*
X326016964Y-91066964D02*
X326016964Y-91733630D01*
X326255059Y-90686011D02*
X326493154Y-91400297D01*
X325874107Y-91400297D01*
X325540773Y-90828869D02*
X325493154Y-90781250D01*
X325397916Y-90733630D01*
X325159821Y-90733630D01*
X325064583Y-90781250D01*
X325016964Y-90828869D01*
X324969345Y-90924107D01*
X324969345Y-91019345D01*
X325016964Y-91162202D01*
X325588392Y-91733630D01*
X324969345Y-91733630D01*
X101168035Y-120181630D02*
X101168035Y-119181630D01*
X100596607Y-120181630D02*
X101025178Y-119610202D01*
X100596607Y-119181630D02*
X101168035Y-119753059D01*
X99739464Y-119514964D02*
X99739464Y-120181630D01*
X99977559Y-119134011D02*
X100215654Y-119848297D01*
X99596607Y-119848297D01*
X98787083Y-119514964D02*
X98787083Y-120181630D01*
X99025178Y-119134011D02*
X99263273Y-119848297D01*
X98644226Y-119848297D01*
X120276785Y-120181630D02*
X120276785Y-119181630D01*
X119705357Y-120181630D02*
X120133928Y-119610202D01*
X119705357Y-119181630D02*
X120276785Y-119753059D01*
X118848214Y-119514964D02*
X118848214Y-120181630D01*
X119086309Y-119134011D02*
X119324404Y-119848297D01*
X118705357Y-119848297D01*
X117848214Y-119181630D02*
X118324404Y-119181630D01*
X118372023Y-119657821D01*
X118324404Y-119610202D01*
X118229166Y-119562583D01*
X117991071Y-119562583D01*
X117895833Y-119610202D01*
X117848214Y-119657821D01*
X117800595Y-119753059D01*
X117800595Y-119991154D01*
X117848214Y-120086392D01*
X117895833Y-120134011D01*
X117991071Y-120181630D01*
X118229166Y-120181630D01*
X118324404Y-120134011D01*
X118372023Y-120086392D01*
X139326785Y-120181630D02*
X139326785Y-119181630D01*
X138755357Y-120181630D02*
X139183928Y-119610202D01*
X138755357Y-119181630D02*
X139326785Y-119753059D01*
X137898214Y-119514964D02*
X137898214Y-120181630D01*
X138136309Y-119134011D02*
X138374404Y-119848297D01*
X137755357Y-119848297D01*
X136945833Y-119181630D02*
X137136309Y-119181630D01*
X137231547Y-119229250D01*
X137279166Y-119276869D01*
X137374404Y-119419726D01*
X137422023Y-119610202D01*
X137422023Y-119991154D01*
X137374404Y-120086392D01*
X137326785Y-120134011D01*
X137231547Y-120181630D01*
X137041071Y-120181630D01*
X136945833Y-120134011D01*
X136898214Y-120086392D01*
X136850595Y-119991154D01*
X136850595Y-119753059D01*
X136898214Y-119657821D01*
X136945833Y-119610202D01*
X137041071Y-119562583D01*
X137231547Y-119562583D01*
X137326785Y-119610202D01*
X137374404Y-119657821D01*
X137422023Y-119753059D01*
X158376785Y-120181630D02*
X158376785Y-119181630D01*
X157805357Y-120181630D02*
X158233928Y-119610202D01*
X157805357Y-119181630D02*
X158376785Y-119753059D01*
X156948214Y-119514964D02*
X156948214Y-120181630D01*
X157186309Y-119134011D02*
X157424404Y-119848297D01*
X156805357Y-119848297D01*
X156519642Y-119181630D02*
X155852976Y-119181630D01*
X156281547Y-120181630D01*
X177426785Y-120181630D02*
X177426785Y-119181630D01*
X176855357Y-120181630D02*
X177283928Y-119610202D01*
X176855357Y-119181630D02*
X177426785Y-119753059D01*
X175998214Y-119514964D02*
X175998214Y-120181630D01*
X176236309Y-119134011D02*
X176474404Y-119848297D01*
X175855357Y-119848297D01*
X175331547Y-119610202D02*
X175426785Y-119562583D01*
X175474404Y-119514964D01*
X175522023Y-119419726D01*
X175522023Y-119372107D01*
X175474404Y-119276869D01*
X175426785Y-119229250D01*
X175331547Y-119181630D01*
X175141071Y-119181630D01*
X175045833Y-119229250D01*
X174998214Y-119276869D01*
X174950595Y-119372107D01*
X174950595Y-119419726D01*
X174998214Y-119514964D01*
X175045833Y-119562583D01*
X175141071Y-119610202D01*
X175331547Y-119610202D01*
X175426785Y-119657821D01*
X175474404Y-119705440D01*
X175522023Y-119800678D01*
X175522023Y-119991154D01*
X175474404Y-120086392D01*
X175426785Y-120134011D01*
X175331547Y-120181630D01*
X175141071Y-120181630D01*
X175045833Y-120134011D01*
X174998214Y-120086392D01*
X174950595Y-119991154D01*
X174950595Y-119800678D01*
X174998214Y-119705440D01*
X175045833Y-119657821D01*
X175141071Y-119610202D01*
X196476785Y-120181630D02*
X196476785Y-119181630D01*
X195905357Y-120181630D02*
X196333928Y-119610202D01*
X195905357Y-119181630D02*
X196476785Y-119753059D01*
X195048214Y-119514964D02*
X195048214Y-120181630D01*
X195286309Y-119134011D02*
X195524404Y-119848297D01*
X194905357Y-119848297D01*
X194476785Y-120181630D02*
X194286309Y-120181630D01*
X194191071Y-120134011D01*
X194143452Y-120086392D01*
X194048214Y-119943535D01*
X194000595Y-119753059D01*
X194000595Y-119372107D01*
X194048214Y-119276869D01*
X194095833Y-119229250D01*
X194191071Y-119181630D01*
X194381547Y-119181630D01*
X194476785Y-119229250D01*
X194524404Y-119276869D01*
X194572023Y-119372107D01*
X194572023Y-119610202D01*
X194524404Y-119705440D01*
X194476785Y-119753059D01*
X194381547Y-119800678D01*
X194191071Y-119800678D01*
X194095833Y-119753059D01*
X194048214Y-119705440D01*
X194000595Y-119610202D01*
X215526785Y-120181630D02*
X215526785Y-119181630D01*
X214955357Y-120181630D02*
X215383928Y-119610202D01*
X214955357Y-119181630D02*
X215526785Y-119753059D01*
X214050595Y-119181630D02*
X214526785Y-119181630D01*
X214574404Y-119657821D01*
X214526785Y-119610202D01*
X214431547Y-119562583D01*
X214193452Y-119562583D01*
X214098214Y-119610202D01*
X214050595Y-119657821D01*
X214002976Y-119753059D01*
X214002976Y-119991154D01*
X214050595Y-120086392D01*
X214098214Y-120134011D01*
X214193452Y-120181630D01*
X214431547Y-120181630D01*
X214526785Y-120134011D01*
X214574404Y-120086392D01*
X213383928Y-119181630D02*
X213288690Y-119181630D01*
X213193452Y-119229250D01*
X213145833Y-119276869D01*
X213098214Y-119372107D01*
X213050595Y-119562583D01*
X213050595Y-119800678D01*
X213098214Y-119991154D01*
X213145833Y-120086392D01*
X213193452Y-120134011D01*
X213288690Y-120181630D01*
X213383928Y-120181630D01*
X213479166Y-120134011D01*
X213526785Y-120086392D01*
X213574404Y-119991154D01*
X213622023Y-119800678D01*
X213622023Y-119562583D01*
X213574404Y-119372107D01*
X213526785Y-119276869D01*
X213479166Y-119229250D01*
X213383928Y-119181630D01*
X234576785Y-120181630D02*
X234576785Y-119181630D01*
X234005357Y-120181630D02*
X234433928Y-119610202D01*
X234005357Y-119181630D02*
X234576785Y-119753059D01*
X233100595Y-119181630D02*
X233576785Y-119181630D01*
X233624404Y-119657821D01*
X233576785Y-119610202D01*
X233481547Y-119562583D01*
X233243452Y-119562583D01*
X233148214Y-119610202D01*
X233100595Y-119657821D01*
X233052976Y-119753059D01*
X233052976Y-119991154D01*
X233100595Y-120086392D01*
X233148214Y-120134011D01*
X233243452Y-120181630D01*
X233481547Y-120181630D01*
X233576785Y-120134011D01*
X233624404Y-120086392D01*
X232100595Y-120181630D02*
X232672023Y-120181630D01*
X232386309Y-120181630D02*
X232386309Y-119181630D01*
X232481547Y-119324488D01*
X232576785Y-119419726D01*
X232672023Y-119467345D01*
X253626785Y-120181630D02*
X253626785Y-119181630D01*
X253055357Y-120181630D02*
X253483928Y-119610202D01*
X253055357Y-119181630D02*
X253626785Y-119753059D01*
X252150595Y-119181630D02*
X252626785Y-119181630D01*
X252674404Y-119657821D01*
X252626785Y-119610202D01*
X252531547Y-119562583D01*
X252293452Y-119562583D01*
X252198214Y-119610202D01*
X252150595Y-119657821D01*
X252102976Y-119753059D01*
X252102976Y-119991154D01*
X252150595Y-120086392D01*
X252198214Y-120134011D01*
X252293452Y-120181630D01*
X252531547Y-120181630D01*
X252626785Y-120134011D01*
X252674404Y-120086392D01*
X251722023Y-119276869D02*
X251674404Y-119229250D01*
X251579166Y-119181630D01*
X251341071Y-119181630D01*
X251245833Y-119229250D01*
X251198214Y-119276869D01*
X251150595Y-119372107D01*
X251150595Y-119467345D01*
X251198214Y-119610202D01*
X251769642Y-120181630D01*
X251150595Y-120181630D01*
X272676785Y-120181630D02*
X272676785Y-119181630D01*
X272105357Y-120181630D02*
X272533928Y-119610202D01*
X272105357Y-119181630D02*
X272676785Y-119753059D01*
X271200595Y-119181630D02*
X271676785Y-119181630D01*
X271724404Y-119657821D01*
X271676785Y-119610202D01*
X271581547Y-119562583D01*
X271343452Y-119562583D01*
X271248214Y-119610202D01*
X271200595Y-119657821D01*
X271152976Y-119753059D01*
X271152976Y-119991154D01*
X271200595Y-120086392D01*
X271248214Y-120134011D01*
X271343452Y-120181630D01*
X271581547Y-120181630D01*
X271676785Y-120134011D01*
X271724404Y-120086392D01*
X270819642Y-119181630D02*
X270200595Y-119181630D01*
X270533928Y-119562583D01*
X270391071Y-119562583D01*
X270295833Y-119610202D01*
X270248214Y-119657821D01*
X270200595Y-119753059D01*
X270200595Y-119991154D01*
X270248214Y-120086392D01*
X270295833Y-120134011D01*
X270391071Y-120181630D01*
X270676785Y-120181630D01*
X270772023Y-120134011D01*
X270819642Y-120086392D01*
X291726785Y-120181630D02*
X291726785Y-119181630D01*
X291155357Y-120181630D02*
X291583928Y-119610202D01*
X291155357Y-119181630D02*
X291726785Y-119753059D01*
X290250595Y-119181630D02*
X290726785Y-119181630D01*
X290774404Y-119657821D01*
X290726785Y-119610202D01*
X290631547Y-119562583D01*
X290393452Y-119562583D01*
X290298214Y-119610202D01*
X290250595Y-119657821D01*
X290202976Y-119753059D01*
X290202976Y-119991154D01*
X290250595Y-120086392D01*
X290298214Y-120134011D01*
X290393452Y-120181630D01*
X290631547Y-120181630D01*
X290726785Y-120134011D01*
X290774404Y-120086392D01*
X289345833Y-119514964D02*
X289345833Y-120181630D01*
X289583928Y-119134011D02*
X289822023Y-119848297D01*
X289202976Y-119848297D01*
X310776785Y-120181630D02*
X310776785Y-119181630D01*
X310205357Y-120181630D02*
X310633928Y-119610202D01*
X310205357Y-119181630D02*
X310776785Y-119753059D01*
X309300595Y-119181630D02*
X309776785Y-119181630D01*
X309824404Y-119657821D01*
X309776785Y-119610202D01*
X309681547Y-119562583D01*
X309443452Y-119562583D01*
X309348214Y-119610202D01*
X309300595Y-119657821D01*
X309252976Y-119753059D01*
X309252976Y-119991154D01*
X309300595Y-120086392D01*
X309348214Y-120134011D01*
X309443452Y-120181630D01*
X309681547Y-120181630D01*
X309776785Y-120134011D01*
X309824404Y-120086392D01*
X308348214Y-119181630D02*
X308824404Y-119181630D01*
X308872023Y-119657821D01*
X308824404Y-119610202D01*
X308729166Y-119562583D01*
X308491071Y-119562583D01*
X308395833Y-119610202D01*
X308348214Y-119657821D01*
X308300595Y-119753059D01*
X308300595Y-119991154D01*
X308348214Y-120086392D01*
X308395833Y-120134011D01*
X308491071Y-120181630D01*
X308729166Y-120181630D01*
X308824404Y-120134011D01*
X308872023Y-120086392D01*
X291726785Y-139231630D02*
X291726785Y-138231630D01*
X291155357Y-139231630D02*
X291583928Y-138660202D01*
X291155357Y-138231630D02*
X291726785Y-138803059D01*
X290298214Y-138231630D02*
X290488690Y-138231630D01*
X290583928Y-138279250D01*
X290631547Y-138326869D01*
X290726785Y-138469726D01*
X290774404Y-138660202D01*
X290774404Y-139041154D01*
X290726785Y-139136392D01*
X290679166Y-139184011D01*
X290583928Y-139231630D01*
X290393452Y-139231630D01*
X290298214Y-139184011D01*
X290250595Y-139136392D01*
X290202976Y-139041154D01*
X290202976Y-138803059D01*
X290250595Y-138707821D01*
X290298214Y-138660202D01*
X290393452Y-138612583D01*
X290583928Y-138612583D01*
X290679166Y-138660202D01*
X290726785Y-138707821D01*
X290774404Y-138803059D01*
X289250595Y-139231630D02*
X289822023Y-139231630D01*
X289536309Y-139231630D02*
X289536309Y-138231630D01*
X289631547Y-138374488D01*
X289726785Y-138469726D01*
X289822023Y-138517345D01*
X310776785Y-139231630D02*
X310776785Y-138231630D01*
X310205357Y-139231630D02*
X310633928Y-138660202D01*
X310205357Y-138231630D02*
X310776785Y-138803059D01*
X309348214Y-138231630D02*
X309538690Y-138231630D01*
X309633928Y-138279250D01*
X309681547Y-138326869D01*
X309776785Y-138469726D01*
X309824404Y-138660202D01*
X309824404Y-139041154D01*
X309776785Y-139136392D01*
X309729166Y-139184011D01*
X309633928Y-139231630D01*
X309443452Y-139231630D01*
X309348214Y-139184011D01*
X309300595Y-139136392D01*
X309252976Y-139041154D01*
X309252976Y-138803059D01*
X309300595Y-138707821D01*
X309348214Y-138660202D01*
X309443452Y-138612583D01*
X309633928Y-138612583D01*
X309729166Y-138660202D01*
X309776785Y-138707821D01*
X309824404Y-138803059D01*
X308872023Y-138326869D02*
X308824404Y-138279250D01*
X308729166Y-138231630D01*
X308491071Y-138231630D01*
X308395833Y-138279250D01*
X308348214Y-138326869D01*
X308300595Y-138422107D01*
X308300595Y-138517345D01*
X308348214Y-138660202D01*
X308919642Y-139231630D01*
X308300595Y-139231630D01*
X329826785Y-139231630D02*
X329826785Y-138231630D01*
X329255357Y-139231630D02*
X329683928Y-138660202D01*
X329255357Y-138231630D02*
X329826785Y-138803059D01*
X328398214Y-138231630D02*
X328588690Y-138231630D01*
X328683928Y-138279250D01*
X328731547Y-138326869D01*
X328826785Y-138469726D01*
X328874404Y-138660202D01*
X328874404Y-139041154D01*
X328826785Y-139136392D01*
X328779166Y-139184011D01*
X328683928Y-139231630D01*
X328493452Y-139231630D01*
X328398214Y-139184011D01*
X328350595Y-139136392D01*
X328302976Y-139041154D01*
X328302976Y-138803059D01*
X328350595Y-138707821D01*
X328398214Y-138660202D01*
X328493452Y-138612583D01*
X328683928Y-138612583D01*
X328779166Y-138660202D01*
X328826785Y-138707821D01*
X328874404Y-138803059D01*
X327969642Y-138231630D02*
X327350595Y-138231630D01*
X327683928Y-138612583D01*
X327541071Y-138612583D01*
X327445833Y-138660202D01*
X327398214Y-138707821D01*
X327350595Y-138803059D01*
X327350595Y-139041154D01*
X327398214Y-139136392D01*
X327445833Y-139184011D01*
X327541071Y-139231630D01*
X327826785Y-139231630D01*
X327922023Y-139184011D01*
X327969642Y-139136392D01*
X184598333Y-146504761D02*
X184455476Y-146552380D01*
X184217380Y-146552380D01*
X184122142Y-146504761D01*
X184074523Y-146457142D01*
X184026904Y-146361904D01*
X184026904Y-146266666D01*
X184074523Y-146171428D01*
X184122142Y-146123809D01*
X184217380Y-146076190D01*
X184407857Y-146028571D01*
X184503095Y-145980952D01*
X184550714Y-145933333D01*
X184598333Y-145838095D01*
X184598333Y-145742857D01*
X184550714Y-145647619D01*
X184503095Y-145600000D01*
X184407857Y-145552380D01*
X184169761Y-145552380D01*
X184026904Y-145600000D01*
X183693571Y-145552380D02*
X183455476Y-146552380D01*
X183265000Y-145838095D01*
X183074523Y-146552380D01*
X182836428Y-145552380D01*
X181931666Y-146552380D02*
X182503095Y-146552380D01*
X182217380Y-146552380D02*
X182217380Y-145552380D01*
X182312619Y-145695238D01*
X182407857Y-145790476D01*
X182503095Y-145838095D01*
M02*
