G04 #@! TF.GenerationSoftware,KiCad,Pcbnew,5.1.6-c6e7f7d~87~ubuntu18.04.1*
G04 #@! TF.CreationDate,2020-08-29T00:17:55+02:00*
G04 #@! TF.ProjectId,pheromone,70686572-6f6d-46f6-9e65-2e6b69636164,rev?*
G04 #@! TF.SameCoordinates,Original*
G04 #@! TF.FileFunction,Legend,Top*
G04 #@! TF.FilePolarity,Positive*
%FSLAX46Y46*%
G04 Gerber Fmt 4.6, Leading zero omitted, Abs format (unit mm)*
G04 Created by KiCad (PCBNEW 5.1.6-c6e7f7d~87~ubuntu18.04.1) date 2020-08-29 00:17:55*
%MOMM*%
%LPD*%
G01*
G04 APERTURE LIST*
%ADD10C,0.100000*%
%ADD11C,0.150000*%
%ADD12C,0.300000*%
%ADD13C,0.400000*%
%ADD14C,0.120000*%
G04 APERTURE END LIST*
D10*
D11*
X299989000Y-253002200D02*
X299989000Y-285002200D01*
X407989000Y-285002200D01*
X407989000Y-253002200D01*
X299989000Y-253002200D01*
D10*
D11*
X10000000Y-10000000D02*
X10000000Y-287002200D01*
X409989000Y-287002200D01*
X409989000Y-10000000D01*
X10000000Y-10000000D01*
D10*
D11*
X12000000Y-12000000D02*
X12000000Y-285002200D01*
X407989000Y-285002200D01*
X407989000Y-12000000D01*
X12000000Y-12000000D01*
D10*
D11*
X60000000Y-12000000D02*
X60000000Y-10000000D01*
D10*
D11*
X110000000Y-12000000D02*
X110000000Y-10000000D01*
D10*
D11*
X160000000Y-12000000D02*
X160000000Y-10000000D01*
D10*
D11*
X210000000Y-12000000D02*
X210000000Y-10000000D01*
D10*
D11*
X260000000Y-12000000D02*
X260000000Y-10000000D01*
D10*
D11*
X310000000Y-12000000D02*
X310000000Y-10000000D01*
D10*
D11*
X360000000Y-12000000D02*
X360000000Y-10000000D01*
D10*
D11*
X36065476Y-11588095D02*
X35322619Y-11588095D01*
X35694047Y-11588095D02*
X35694047Y-10288095D01*
X35570238Y-10473809D01*
X35446428Y-10597619D01*
X35322619Y-10659523D01*
D10*
D11*
X85322619Y-10411904D02*
X85384523Y-10350000D01*
X85508333Y-10288095D01*
X85817857Y-10288095D01*
X85941666Y-10350000D01*
X86003571Y-10411904D01*
X86065476Y-10535714D01*
X86065476Y-10659523D01*
X86003571Y-10845238D01*
X85260714Y-11588095D01*
X86065476Y-11588095D01*
D10*
D11*
X135260714Y-10288095D02*
X136065476Y-10288095D01*
X135632142Y-10783333D01*
X135817857Y-10783333D01*
X135941666Y-10845238D01*
X136003571Y-10907142D01*
X136065476Y-11030952D01*
X136065476Y-11340476D01*
X136003571Y-11464285D01*
X135941666Y-11526190D01*
X135817857Y-11588095D01*
X135446428Y-11588095D01*
X135322619Y-11526190D01*
X135260714Y-11464285D01*
D10*
D11*
X185941666Y-10721428D02*
X185941666Y-11588095D01*
X185632142Y-10226190D02*
X185322619Y-11154761D01*
X186127380Y-11154761D01*
D10*
D11*
X236003571Y-10288095D02*
X235384523Y-10288095D01*
X235322619Y-10907142D01*
X235384523Y-10845238D01*
X235508333Y-10783333D01*
X235817857Y-10783333D01*
X235941666Y-10845238D01*
X236003571Y-10907142D01*
X236065476Y-11030952D01*
X236065476Y-11340476D01*
X236003571Y-11464285D01*
X235941666Y-11526190D01*
X235817857Y-11588095D01*
X235508333Y-11588095D01*
X235384523Y-11526190D01*
X235322619Y-11464285D01*
D10*
D11*
X285941666Y-10288095D02*
X285694047Y-10288095D01*
X285570238Y-10350000D01*
X285508333Y-10411904D01*
X285384523Y-10597619D01*
X285322619Y-10845238D01*
X285322619Y-11340476D01*
X285384523Y-11464285D01*
X285446428Y-11526190D01*
X285570238Y-11588095D01*
X285817857Y-11588095D01*
X285941666Y-11526190D01*
X286003571Y-11464285D01*
X286065476Y-11340476D01*
X286065476Y-11030952D01*
X286003571Y-10907142D01*
X285941666Y-10845238D01*
X285817857Y-10783333D01*
X285570238Y-10783333D01*
X285446428Y-10845238D01*
X285384523Y-10907142D01*
X285322619Y-11030952D01*
D10*
D11*
X335260714Y-10288095D02*
X336127380Y-10288095D01*
X335570238Y-11588095D01*
D10*
D11*
X385570238Y-10845238D02*
X385446428Y-10783333D01*
X385384523Y-10721428D01*
X385322619Y-10597619D01*
X385322619Y-10535714D01*
X385384523Y-10411904D01*
X385446428Y-10350000D01*
X385570238Y-10288095D01*
X385817857Y-10288095D01*
X385941666Y-10350000D01*
X386003571Y-10411904D01*
X386065476Y-10535714D01*
X386065476Y-10597619D01*
X386003571Y-10721428D01*
X385941666Y-10783333D01*
X385817857Y-10845238D01*
X385570238Y-10845238D01*
X385446428Y-10907142D01*
X385384523Y-10969047D01*
X385322619Y-11092857D01*
X385322619Y-11340476D01*
X385384523Y-11464285D01*
X385446428Y-11526190D01*
X385570238Y-11588095D01*
X385817857Y-11588095D01*
X385941666Y-11526190D01*
X386003571Y-11464285D01*
X386065476Y-11340476D01*
X386065476Y-11092857D01*
X386003571Y-10969047D01*
X385941666Y-10907142D01*
X385817857Y-10845238D01*
D10*
D11*
X60000000Y-285002200D02*
X60000000Y-287002200D01*
D10*
D11*
X110000000Y-285002200D02*
X110000000Y-287002200D01*
D10*
D11*
X160000000Y-285002200D02*
X160000000Y-287002200D01*
D10*
D11*
X210000000Y-285002200D02*
X210000000Y-287002200D01*
D10*
D11*
X260000000Y-285002200D02*
X260000000Y-287002200D01*
D10*
D11*
X310000000Y-285002200D02*
X310000000Y-287002200D01*
D10*
D11*
X360000000Y-285002200D02*
X360000000Y-287002200D01*
D10*
D11*
X36065476Y-286590295D02*
X35322619Y-286590295D01*
X35694047Y-286590295D02*
X35694047Y-285290295D01*
X35570238Y-285476009D01*
X35446428Y-285599819D01*
X35322619Y-285661723D01*
D10*
D11*
X85322619Y-285414104D02*
X85384523Y-285352200D01*
X85508333Y-285290295D01*
X85817857Y-285290295D01*
X85941666Y-285352200D01*
X86003571Y-285414104D01*
X86065476Y-285537914D01*
X86065476Y-285661723D01*
X86003571Y-285847438D01*
X85260714Y-286590295D01*
X86065476Y-286590295D01*
D10*
D11*
X135260714Y-285290295D02*
X136065476Y-285290295D01*
X135632142Y-285785533D01*
X135817857Y-285785533D01*
X135941666Y-285847438D01*
X136003571Y-285909342D01*
X136065476Y-286033152D01*
X136065476Y-286342676D01*
X136003571Y-286466485D01*
X135941666Y-286528390D01*
X135817857Y-286590295D01*
X135446428Y-286590295D01*
X135322619Y-286528390D01*
X135260714Y-286466485D01*
D10*
D11*
X185941666Y-285723628D02*
X185941666Y-286590295D01*
X185632142Y-285228390D02*
X185322619Y-286156961D01*
X186127380Y-286156961D01*
D10*
D11*
X236003571Y-285290295D02*
X235384523Y-285290295D01*
X235322619Y-285909342D01*
X235384523Y-285847438D01*
X235508333Y-285785533D01*
X235817857Y-285785533D01*
X235941666Y-285847438D01*
X236003571Y-285909342D01*
X236065476Y-286033152D01*
X236065476Y-286342676D01*
X236003571Y-286466485D01*
X235941666Y-286528390D01*
X235817857Y-286590295D01*
X235508333Y-286590295D01*
X235384523Y-286528390D01*
X235322619Y-286466485D01*
D10*
D11*
X285941666Y-285290295D02*
X285694047Y-285290295D01*
X285570238Y-285352200D01*
X285508333Y-285414104D01*
X285384523Y-285599819D01*
X285322619Y-285847438D01*
X285322619Y-286342676D01*
X285384523Y-286466485D01*
X285446428Y-286528390D01*
X285570238Y-286590295D01*
X285817857Y-286590295D01*
X285941666Y-286528390D01*
X286003571Y-286466485D01*
X286065476Y-286342676D01*
X286065476Y-286033152D01*
X286003571Y-285909342D01*
X285941666Y-285847438D01*
X285817857Y-285785533D01*
X285570238Y-285785533D01*
X285446428Y-285847438D01*
X285384523Y-285909342D01*
X285322619Y-286033152D01*
D10*
D11*
X335260714Y-285290295D02*
X336127380Y-285290295D01*
X335570238Y-286590295D01*
D10*
D11*
X385570238Y-285847438D02*
X385446428Y-285785533D01*
X385384523Y-285723628D01*
X385322619Y-285599819D01*
X385322619Y-285537914D01*
X385384523Y-285414104D01*
X385446428Y-285352200D01*
X385570238Y-285290295D01*
X385817857Y-285290295D01*
X385941666Y-285352200D01*
X386003571Y-285414104D01*
X386065476Y-285537914D01*
X386065476Y-285599819D01*
X386003571Y-285723628D01*
X385941666Y-285785533D01*
X385817857Y-285847438D01*
X385570238Y-285847438D01*
X385446428Y-285909342D01*
X385384523Y-285971247D01*
X385322619Y-286095057D01*
X385322619Y-286342676D01*
X385384523Y-286466485D01*
X385446428Y-286528390D01*
X385570238Y-286590295D01*
X385817857Y-286590295D01*
X385941666Y-286528390D01*
X386003571Y-286466485D01*
X386065476Y-286342676D01*
X386065476Y-286095057D01*
X386003571Y-285971247D01*
X385941666Y-285909342D01*
X385817857Y-285847438D01*
D10*
D11*
X10000000Y-60000000D02*
X12000000Y-60000000D01*
D10*
D11*
X10000000Y-110000000D02*
X12000000Y-110000000D01*
D10*
D11*
X10000000Y-160000000D02*
X12000000Y-160000000D01*
D10*
D11*
X10000000Y-210000000D02*
X12000000Y-210000000D01*
D10*
D11*
X10000000Y-260000000D02*
X12000000Y-260000000D01*
D10*
D11*
X10690476Y-35216666D02*
X11309523Y-35216666D01*
X10566666Y-35588095D02*
X11000000Y-34288095D01*
X11433333Y-35588095D01*
D10*
D11*
X11092857Y-84907142D02*
X11278571Y-84969047D01*
X11340476Y-85030952D01*
X11402380Y-85154761D01*
X11402380Y-85340476D01*
X11340476Y-85464285D01*
X11278571Y-85526190D01*
X11154761Y-85588095D01*
X10659523Y-85588095D01*
X10659523Y-84288095D01*
X11092857Y-84288095D01*
X11216666Y-84350000D01*
X11278571Y-84411904D01*
X11340476Y-84535714D01*
X11340476Y-84659523D01*
X11278571Y-84783333D01*
X11216666Y-84845238D01*
X11092857Y-84907142D01*
X10659523Y-84907142D01*
D10*
D11*
X11402380Y-135464285D02*
X11340476Y-135526190D01*
X11154761Y-135588095D01*
X11030952Y-135588095D01*
X10845238Y-135526190D01*
X10721428Y-135402380D01*
X10659523Y-135278571D01*
X10597619Y-135030952D01*
X10597619Y-134845238D01*
X10659523Y-134597619D01*
X10721428Y-134473809D01*
X10845238Y-134350000D01*
X11030952Y-134288095D01*
X11154761Y-134288095D01*
X11340476Y-134350000D01*
X11402380Y-134411904D01*
D10*
D11*
X10659523Y-185588095D02*
X10659523Y-184288095D01*
X10969047Y-184288095D01*
X11154761Y-184350000D01*
X11278571Y-184473809D01*
X11340476Y-184597619D01*
X11402380Y-184845238D01*
X11402380Y-185030952D01*
X11340476Y-185278571D01*
X11278571Y-185402380D01*
X11154761Y-185526190D01*
X10969047Y-185588095D01*
X10659523Y-185588095D01*
D10*
D11*
X10721428Y-234907142D02*
X11154761Y-234907142D01*
X11340476Y-235588095D02*
X10721428Y-235588095D01*
X10721428Y-234288095D01*
X11340476Y-234288095D01*
D10*
D11*
X11185714Y-284907142D02*
X10752380Y-284907142D01*
X10752380Y-285588095D02*
X10752380Y-284288095D01*
X11371428Y-284288095D01*
D10*
D11*
X409989000Y-60000000D02*
X407989000Y-60000000D01*
D10*
D11*
X409989000Y-110000000D02*
X407989000Y-110000000D01*
D10*
D11*
X409989000Y-160000000D02*
X407989000Y-160000000D01*
D10*
D11*
X409989000Y-210000000D02*
X407989000Y-210000000D01*
D10*
D11*
X409989000Y-260000000D02*
X407989000Y-260000000D01*
D10*
D11*
X408679476Y-35216666D02*
X409298523Y-35216666D01*
X408555666Y-35588095D02*
X408989000Y-34288095D01*
X409422333Y-35588095D01*
D10*
D11*
X409081857Y-84907142D02*
X409267571Y-84969047D01*
X409329476Y-85030952D01*
X409391380Y-85154761D01*
X409391380Y-85340476D01*
X409329476Y-85464285D01*
X409267571Y-85526190D01*
X409143761Y-85588095D01*
X408648523Y-85588095D01*
X408648523Y-84288095D01*
X409081857Y-84288095D01*
X409205666Y-84350000D01*
X409267571Y-84411904D01*
X409329476Y-84535714D01*
X409329476Y-84659523D01*
X409267571Y-84783333D01*
X409205666Y-84845238D01*
X409081857Y-84907142D01*
X408648523Y-84907142D01*
D10*
D11*
X409391380Y-135464285D02*
X409329476Y-135526190D01*
X409143761Y-135588095D01*
X409019952Y-135588095D01*
X408834238Y-135526190D01*
X408710428Y-135402380D01*
X408648523Y-135278571D01*
X408586619Y-135030952D01*
X408586619Y-134845238D01*
X408648523Y-134597619D01*
X408710428Y-134473809D01*
X408834238Y-134350000D01*
X409019952Y-134288095D01*
X409143761Y-134288095D01*
X409329476Y-134350000D01*
X409391380Y-134411904D01*
D10*
D11*
X408648523Y-185588095D02*
X408648523Y-184288095D01*
X408958047Y-184288095D01*
X409143761Y-184350000D01*
X409267571Y-184473809D01*
X409329476Y-184597619D01*
X409391380Y-184845238D01*
X409391380Y-185030952D01*
X409329476Y-185278571D01*
X409267571Y-185402380D01*
X409143761Y-185526190D01*
X408958047Y-185588095D01*
X408648523Y-185588095D01*
D10*
D11*
X408710428Y-234907142D02*
X409143761Y-234907142D01*
X409329476Y-235588095D02*
X408710428Y-235588095D01*
X408710428Y-234288095D01*
X409329476Y-234288095D01*
D10*
D11*
X409174714Y-284907142D02*
X408741380Y-284907142D01*
X408741380Y-285588095D02*
X408741380Y-284288095D01*
X409360428Y-284288095D01*
D10*
D11*
X323421142Y-280780771D02*
X323421142Y-279280771D01*
X323778285Y-279280771D01*
X323992571Y-279352200D01*
X324135428Y-279495057D01*
X324206857Y-279637914D01*
X324278285Y-279923628D01*
X324278285Y-280137914D01*
X324206857Y-280423628D01*
X324135428Y-280566485D01*
X323992571Y-280709342D01*
X323778285Y-280780771D01*
X323421142Y-280780771D01*
X325564000Y-280780771D02*
X325564000Y-279995057D01*
X325492571Y-279852200D01*
X325349714Y-279780771D01*
X325064000Y-279780771D01*
X324921142Y-279852200D01*
X325564000Y-280709342D02*
X325421142Y-280780771D01*
X325064000Y-280780771D01*
X324921142Y-280709342D01*
X324849714Y-280566485D01*
X324849714Y-280423628D01*
X324921142Y-280280771D01*
X325064000Y-280209342D01*
X325421142Y-280209342D01*
X325564000Y-280137914D01*
X326064000Y-279780771D02*
X326635428Y-279780771D01*
X326278285Y-279280771D02*
X326278285Y-280566485D01*
X326349714Y-280709342D01*
X326492571Y-280780771D01*
X326635428Y-280780771D01*
X327706857Y-280709342D02*
X327564000Y-280780771D01*
X327278285Y-280780771D01*
X327135428Y-280709342D01*
X327064000Y-280566485D01*
X327064000Y-279995057D01*
X327135428Y-279852200D01*
X327278285Y-279780771D01*
X327564000Y-279780771D01*
X327706857Y-279852200D01*
X327778285Y-279995057D01*
X327778285Y-280137914D01*
X327064000Y-280280771D01*
X328421142Y-280637914D02*
X328492571Y-280709342D01*
X328421142Y-280780771D01*
X328349714Y-280709342D01*
X328421142Y-280637914D01*
X328421142Y-280780771D01*
X328421142Y-279852200D02*
X328492571Y-279923628D01*
X328421142Y-279995057D01*
X328349714Y-279923628D01*
X328421142Y-279852200D01*
X328421142Y-279995057D01*
D10*
D11*
X299989000Y-281502200D02*
X407989000Y-281502200D01*
D10*
D11*
X301421142Y-283580771D02*
X301421142Y-282080771D01*
X302278285Y-283580771D02*
X301635428Y-282723628D01*
X302278285Y-282080771D02*
X301421142Y-282937914D01*
X302921142Y-283580771D02*
X302921142Y-282580771D01*
X302921142Y-282080771D02*
X302849714Y-282152200D01*
X302921142Y-282223628D01*
X302992571Y-282152200D01*
X302921142Y-282080771D01*
X302921142Y-282223628D01*
X304492571Y-283437914D02*
X304421142Y-283509342D01*
X304206857Y-283580771D01*
X304064000Y-283580771D01*
X303849714Y-283509342D01*
X303706857Y-283366485D01*
X303635428Y-283223628D01*
X303564000Y-282937914D01*
X303564000Y-282723628D01*
X303635428Y-282437914D01*
X303706857Y-282295057D01*
X303849714Y-282152200D01*
X304064000Y-282080771D01*
X304206857Y-282080771D01*
X304421142Y-282152200D01*
X304492571Y-282223628D01*
X305778285Y-283580771D02*
X305778285Y-282795057D01*
X305706857Y-282652200D01*
X305564000Y-282580771D01*
X305278285Y-282580771D01*
X305135428Y-282652200D01*
X305778285Y-283509342D02*
X305635428Y-283580771D01*
X305278285Y-283580771D01*
X305135428Y-283509342D01*
X305064000Y-283366485D01*
X305064000Y-283223628D01*
X305135428Y-283080771D01*
X305278285Y-283009342D01*
X305635428Y-283009342D01*
X305778285Y-282937914D01*
X307135428Y-283580771D02*
X307135428Y-282080771D01*
X307135428Y-283509342D02*
X306992571Y-283580771D01*
X306706857Y-283580771D01*
X306564000Y-283509342D01*
X306492571Y-283437914D01*
X306421142Y-283295057D01*
X306421142Y-282866485D01*
X306492571Y-282723628D01*
X306564000Y-282652200D01*
X306706857Y-282580771D01*
X306992571Y-282580771D01*
X307135428Y-282652200D01*
X308992571Y-282795057D02*
X309492571Y-282795057D01*
X309706857Y-283580771D02*
X308992571Y-283580771D01*
X308992571Y-282080771D01*
X309706857Y-282080771D01*
X310349714Y-283437914D02*
X310421142Y-283509342D01*
X310349714Y-283580771D01*
X310278285Y-283509342D01*
X310349714Y-283437914D01*
X310349714Y-283580771D01*
X311064000Y-283580771D02*
X311064000Y-282080771D01*
X311421142Y-282080771D01*
X311635428Y-282152200D01*
X311778285Y-282295057D01*
X311849714Y-282437914D01*
X311921142Y-282723628D01*
X311921142Y-282937914D01*
X311849714Y-283223628D01*
X311778285Y-283366485D01*
X311635428Y-283509342D01*
X311421142Y-283580771D01*
X311064000Y-283580771D01*
X312564000Y-283437914D02*
X312635428Y-283509342D01*
X312564000Y-283580771D01*
X312492571Y-283509342D01*
X312564000Y-283437914D01*
X312564000Y-283580771D01*
X313206857Y-283152200D02*
X313921142Y-283152200D01*
X313064000Y-283580771D02*
X313564000Y-282080771D01*
X314064000Y-283580771D01*
X314564000Y-283437914D02*
X314635428Y-283509342D01*
X314564000Y-283580771D01*
X314492571Y-283509342D01*
X314564000Y-283437914D01*
X314564000Y-283580771D01*
X317564000Y-283580771D02*
X317564000Y-282080771D01*
X317706857Y-283009342D02*
X318135428Y-283580771D01*
X318135428Y-282580771D02*
X317564000Y-283152200D01*
X318778285Y-283580771D02*
X318778285Y-282580771D01*
X318778285Y-282080771D02*
X318706857Y-282152200D01*
X318778285Y-282223628D01*
X318849714Y-282152200D01*
X318778285Y-282080771D01*
X318778285Y-282223628D01*
X320135428Y-283509342D02*
X319992571Y-283580771D01*
X319706857Y-283580771D01*
X319564000Y-283509342D01*
X319492571Y-283437914D01*
X319421142Y-283295057D01*
X319421142Y-282866485D01*
X319492571Y-282723628D01*
X319564000Y-282652200D01*
X319706857Y-282580771D01*
X319992571Y-282580771D01*
X320135428Y-282652200D01*
X321421142Y-283580771D02*
X321421142Y-282795057D01*
X321349714Y-282652200D01*
X321206857Y-282580771D01*
X320921142Y-282580771D01*
X320778285Y-282652200D01*
X321421142Y-283509342D02*
X321278285Y-283580771D01*
X320921142Y-283580771D01*
X320778285Y-283509342D01*
X320706857Y-283366485D01*
X320706857Y-283223628D01*
X320778285Y-283080771D01*
X320921142Y-283009342D01*
X321278285Y-283009342D01*
X321421142Y-282937914D01*
X322778285Y-283580771D02*
X322778285Y-282080771D01*
X322778285Y-283509342D02*
X322635428Y-283580771D01*
X322349714Y-283580771D01*
X322206857Y-283509342D01*
X322135428Y-283437914D01*
X322064000Y-283295057D01*
X322064000Y-282866485D01*
X322135428Y-282723628D01*
X322206857Y-282652200D01*
X322349714Y-282580771D01*
X322635428Y-282580771D01*
X322778285Y-282652200D01*
X325349714Y-282080771D02*
X324635428Y-282080771D01*
X324564000Y-282795057D01*
X324635428Y-282723628D01*
X324778285Y-282652200D01*
X325135428Y-282652200D01*
X325278285Y-282723628D01*
X325349714Y-282795057D01*
X325421142Y-282937914D01*
X325421142Y-283295057D01*
X325349714Y-283437914D01*
X325278285Y-283509342D01*
X325135428Y-283580771D01*
X324778285Y-283580771D01*
X324635428Y-283509342D01*
X324564000Y-283437914D01*
X326064000Y-283437914D02*
X326135428Y-283509342D01*
X326064000Y-283580771D01*
X325992571Y-283509342D01*
X326064000Y-283437914D01*
X326064000Y-283580771D01*
X327564000Y-283580771D02*
X326706857Y-283580771D01*
X327135428Y-283580771D02*
X327135428Y-282080771D01*
X326992571Y-282295057D01*
X326849714Y-282437914D01*
X326706857Y-282509342D01*
X328206857Y-283437914D02*
X328278285Y-283509342D01*
X328206857Y-283580771D01*
X328135428Y-283509342D01*
X328206857Y-283437914D01*
X328206857Y-283580771D01*
X329564000Y-282080771D02*
X329278285Y-282080771D01*
X329135428Y-282152200D01*
X329064000Y-282223628D01*
X328921142Y-282437914D01*
X328849714Y-282723628D01*
X328849714Y-283295057D01*
X328921142Y-283437914D01*
X328992571Y-283509342D01*
X329135428Y-283580771D01*
X329421142Y-283580771D01*
X329564000Y-283509342D01*
X329635428Y-283437914D01*
X329706857Y-283295057D01*
X329706857Y-282937914D01*
X329635428Y-282795057D01*
X329564000Y-282723628D01*
X329421142Y-282652200D01*
X329135428Y-282652200D01*
X328992571Y-282723628D01*
X328921142Y-282795057D01*
X328849714Y-282937914D01*
X330349714Y-283009342D02*
X331492571Y-283009342D01*
X332849714Y-283509342D02*
X332706857Y-283580771D01*
X332421142Y-283580771D01*
X332278285Y-283509342D01*
X332206857Y-283437914D01*
X332135428Y-283295057D01*
X332135428Y-282866485D01*
X332206857Y-282723628D01*
X332278285Y-282652200D01*
X332421142Y-282580771D01*
X332706857Y-282580771D01*
X332849714Y-282652200D01*
X334135428Y-282080771D02*
X333849714Y-282080771D01*
X333706857Y-282152200D01*
X333635428Y-282223628D01*
X333492571Y-282437914D01*
X333421142Y-282723628D01*
X333421142Y-283295057D01*
X333492571Y-283437914D01*
X333564000Y-283509342D01*
X333706857Y-283580771D01*
X333992571Y-283580771D01*
X334135428Y-283509342D01*
X334206857Y-283437914D01*
X334278285Y-283295057D01*
X334278285Y-282937914D01*
X334206857Y-282795057D01*
X334135428Y-282723628D01*
X333992571Y-282652200D01*
X333706857Y-282652200D01*
X333564000Y-282723628D01*
X333492571Y-282795057D01*
X333421142Y-282937914D01*
X335492571Y-283509342D02*
X335349714Y-283580771D01*
X335064000Y-283580771D01*
X334921142Y-283509342D01*
X334849714Y-283366485D01*
X334849714Y-282795057D01*
X334921142Y-282652200D01*
X335064000Y-282580771D01*
X335349714Y-282580771D01*
X335492571Y-282652200D01*
X335564000Y-282795057D01*
X335564000Y-282937914D01*
X334849714Y-283080771D01*
X336064000Y-282080771D02*
X337064000Y-282080771D01*
X336421142Y-283580771D01*
X337421142Y-282580771D02*
X337992571Y-282580771D01*
X337635428Y-283580771D02*
X337635428Y-282295057D01*
X337706857Y-282152200D01*
X337849714Y-282080771D01*
X337992571Y-282080771D01*
X338349714Y-282080771D02*
X339349714Y-282080771D01*
X338706857Y-283580771D01*
X340564000Y-283580771D02*
X340564000Y-282080771D01*
X340564000Y-283509342D02*
X340421142Y-283580771D01*
X340135428Y-283580771D01*
X339992571Y-283509342D01*
X339921142Y-283437914D01*
X339849714Y-283295057D01*
X339849714Y-282866485D01*
X339921142Y-282723628D01*
X339992571Y-282652200D01*
X340135428Y-282580771D01*
X340421142Y-282580771D01*
X340564000Y-282652200D01*
X340921142Y-281672200D02*
X342349714Y-281672200D01*
X341492571Y-282723628D02*
X341349714Y-282652200D01*
X341278285Y-282580771D01*
X341206857Y-282437914D01*
X341206857Y-282366485D01*
X341278285Y-282223628D01*
X341349714Y-282152200D01*
X341492571Y-282080771D01*
X341778285Y-282080771D01*
X341921142Y-282152200D01*
X341992571Y-282223628D01*
X342064000Y-282366485D01*
X342064000Y-282437914D01*
X341992571Y-282580771D01*
X341921142Y-282652200D01*
X341778285Y-282723628D01*
X341492571Y-282723628D01*
X341349714Y-282795057D01*
X341278285Y-282866485D01*
X341206857Y-283009342D01*
X341206857Y-283295057D01*
X341278285Y-283437914D01*
X341349714Y-283509342D01*
X341492571Y-283580771D01*
X341778285Y-283580771D01*
X341921142Y-283509342D01*
X341992571Y-283437914D01*
X342064000Y-283295057D01*
X342064000Y-283009342D01*
X341992571Y-282866485D01*
X341921142Y-282795057D01*
X341778285Y-282723628D01*
X342349714Y-281672200D02*
X343778285Y-281672200D01*
X342564000Y-282080771D02*
X343564000Y-282080771D01*
X342921142Y-283580771D01*
X344778285Y-282580771D02*
X344778285Y-283580771D01*
X344135428Y-282580771D02*
X344135428Y-283366485D01*
X344206857Y-283509342D01*
X344349714Y-283580771D01*
X344564000Y-283580771D01*
X344706857Y-283509342D01*
X344778285Y-283437914D01*
X345492571Y-283580771D02*
X345492571Y-282080771D01*
X345492571Y-282652200D02*
X345635428Y-282580771D01*
X345921142Y-282580771D01*
X346064000Y-282652200D01*
X346135428Y-282723628D01*
X346206857Y-282866485D01*
X346206857Y-283295057D01*
X346135428Y-283437914D01*
X346064000Y-283509342D01*
X345921142Y-283580771D01*
X345635428Y-283580771D01*
X345492571Y-283509342D01*
X347492571Y-282580771D02*
X347492571Y-283580771D01*
X346849714Y-282580771D02*
X346849714Y-283366485D01*
X346921142Y-283509342D01*
X347064000Y-283580771D01*
X347278285Y-283580771D01*
X347421142Y-283509342D01*
X347492571Y-283437914D01*
X348206857Y-282580771D02*
X348206857Y-283580771D01*
X348206857Y-282723628D02*
X348278285Y-282652200D01*
X348421142Y-282580771D01*
X348635428Y-282580771D01*
X348778285Y-282652200D01*
X348849714Y-282795057D01*
X348849714Y-283580771D01*
X349349714Y-282580771D02*
X349921142Y-282580771D01*
X349564000Y-282080771D02*
X349564000Y-283366485D01*
X349635428Y-283509342D01*
X349778285Y-283580771D01*
X349921142Y-283580771D01*
X351064000Y-282580771D02*
X351064000Y-283580771D01*
X350421142Y-282580771D02*
X350421142Y-283366485D01*
X350492571Y-283509342D01*
X350635428Y-283580771D01*
X350849714Y-283580771D01*
X350992571Y-283509342D01*
X351064000Y-283437914D01*
X352564000Y-283580771D02*
X351706857Y-283580771D01*
X352135428Y-283580771D02*
X352135428Y-282080771D01*
X351992571Y-282295057D01*
X351849714Y-282437914D01*
X351706857Y-282509342D01*
X353421142Y-282723628D02*
X353278285Y-282652200D01*
X353206857Y-282580771D01*
X353135428Y-282437914D01*
X353135428Y-282366485D01*
X353206857Y-282223628D01*
X353278285Y-282152200D01*
X353421142Y-282080771D01*
X353706857Y-282080771D01*
X353849714Y-282152200D01*
X353921142Y-282223628D01*
X353992571Y-282366485D01*
X353992571Y-282437914D01*
X353921142Y-282580771D01*
X353849714Y-282652200D01*
X353706857Y-282723628D01*
X353421142Y-282723628D01*
X353278285Y-282795057D01*
X353206857Y-282866485D01*
X353135428Y-283009342D01*
X353135428Y-283295057D01*
X353206857Y-283437914D01*
X353278285Y-283509342D01*
X353421142Y-283580771D01*
X353706857Y-283580771D01*
X353849714Y-283509342D01*
X353921142Y-283437914D01*
X353992571Y-283295057D01*
X353992571Y-283009342D01*
X353921142Y-282866485D01*
X353849714Y-282795057D01*
X353706857Y-282723628D01*
X354635428Y-283437914D02*
X354706857Y-283509342D01*
X354635428Y-283580771D01*
X354564000Y-283509342D01*
X354635428Y-283437914D01*
X354635428Y-283580771D01*
X355635428Y-282080771D02*
X355778285Y-282080771D01*
X355921142Y-282152200D01*
X355992571Y-282223628D01*
X356064000Y-282366485D01*
X356135428Y-282652200D01*
X356135428Y-283009342D01*
X356064000Y-283295057D01*
X355992571Y-283437914D01*
X355921142Y-283509342D01*
X355778285Y-283580771D01*
X355635428Y-283580771D01*
X355492571Y-283509342D01*
X355421142Y-283437914D01*
X355349714Y-283295057D01*
X355278285Y-283009342D01*
X355278285Y-282652200D01*
X355349714Y-282366485D01*
X355421142Y-282223628D01*
X355492571Y-282152200D01*
X355635428Y-282080771D01*
X357421142Y-282580771D02*
X357421142Y-283580771D01*
X357064000Y-282009342D02*
X356706857Y-283080771D01*
X357635428Y-283080771D01*
X358206857Y-283437914D02*
X358278285Y-283509342D01*
X358206857Y-283580771D01*
X358135428Y-283509342D01*
X358206857Y-283437914D01*
X358206857Y-283580771D01*
X359706857Y-283580771D02*
X358849714Y-283580771D01*
X359278285Y-283580771D02*
X359278285Y-282080771D01*
X359135428Y-282295057D01*
X358992571Y-282437914D01*
X358849714Y-282509342D01*
D10*
D11*
X299989000Y-278502200D02*
X407989000Y-278502200D01*
D10*
D12*
X387398285Y-280780771D02*
X386898285Y-280066485D01*
X386541142Y-280780771D02*
X386541142Y-279280771D01*
X387112571Y-279280771D01*
X387255428Y-279352200D01*
X387326857Y-279423628D01*
X387398285Y-279566485D01*
X387398285Y-279780771D01*
X387326857Y-279923628D01*
X387255428Y-279995057D01*
X387112571Y-280066485D01*
X386541142Y-280066485D01*
X388612571Y-280709342D02*
X388469714Y-280780771D01*
X388184000Y-280780771D01*
X388041142Y-280709342D01*
X387969714Y-280566485D01*
X387969714Y-279995057D01*
X388041142Y-279852200D01*
X388184000Y-279780771D01*
X388469714Y-279780771D01*
X388612571Y-279852200D01*
X388684000Y-279995057D01*
X388684000Y-280137914D01*
X387969714Y-280280771D01*
X389184000Y-279780771D02*
X389541142Y-280780771D01*
X389898285Y-279780771D01*
X390469714Y-280637914D02*
X390541142Y-280709342D01*
X390469714Y-280780771D01*
X390398285Y-280709342D01*
X390469714Y-280637914D01*
X390469714Y-280780771D01*
X390469714Y-279852200D02*
X390541142Y-279923628D01*
X390469714Y-279995057D01*
X390398285Y-279923628D01*
X390469714Y-279852200D01*
X390469714Y-279995057D01*
D10*
D11*
X301349714Y-280709342D02*
X301564000Y-280780771D01*
X301921142Y-280780771D01*
X302064000Y-280709342D01*
X302135428Y-280637914D01*
X302206857Y-280495057D01*
X302206857Y-280352200D01*
X302135428Y-280209342D01*
X302064000Y-280137914D01*
X301921142Y-280066485D01*
X301635428Y-279995057D01*
X301492571Y-279923628D01*
X301421142Y-279852200D01*
X301349714Y-279709342D01*
X301349714Y-279566485D01*
X301421142Y-279423628D01*
X301492571Y-279352200D01*
X301635428Y-279280771D01*
X301992571Y-279280771D01*
X302206857Y-279352200D01*
X302849714Y-280780771D02*
X302849714Y-279780771D01*
X302849714Y-279280771D02*
X302778285Y-279352200D01*
X302849714Y-279423628D01*
X302921142Y-279352200D01*
X302849714Y-279280771D01*
X302849714Y-279423628D01*
X303421142Y-279780771D02*
X304206857Y-279780771D01*
X303421142Y-280780771D01*
X304206857Y-280780771D01*
X305349714Y-280709342D02*
X305206857Y-280780771D01*
X304921142Y-280780771D01*
X304778285Y-280709342D01*
X304706857Y-280566485D01*
X304706857Y-279995057D01*
X304778285Y-279852200D01*
X304921142Y-279780771D01*
X305206857Y-279780771D01*
X305349714Y-279852200D01*
X305421142Y-279995057D01*
X305421142Y-280137914D01*
X304706857Y-280280771D01*
X306064000Y-280637914D02*
X306135428Y-280709342D01*
X306064000Y-280780771D01*
X305992571Y-280709342D01*
X306064000Y-280637914D01*
X306064000Y-280780771D01*
X306064000Y-279852200D02*
X306135428Y-279923628D01*
X306064000Y-279995057D01*
X305992571Y-279923628D01*
X306064000Y-279852200D01*
X306064000Y-279995057D01*
X307849714Y-280352200D02*
X308564000Y-280352200D01*
X307706857Y-280780771D02*
X308206857Y-279280771D01*
X308706857Y-280780771D01*
X309064000Y-279280771D02*
X309992571Y-279280771D01*
X309492571Y-279852200D01*
X309706857Y-279852200D01*
X309849714Y-279923628D01*
X309921142Y-279995057D01*
X309992571Y-280137914D01*
X309992571Y-280495057D01*
X309921142Y-280637914D01*
X309849714Y-280709342D01*
X309706857Y-280780771D01*
X309278285Y-280780771D01*
X309135428Y-280709342D01*
X309064000Y-280637914D01*
D10*
D11*
X386421142Y-283580771D02*
X386421142Y-282080771D01*
X387778285Y-283580771D02*
X387778285Y-282080771D01*
X387778285Y-283509342D02*
X387635428Y-283580771D01*
X387349714Y-283580771D01*
X387206857Y-283509342D01*
X387135428Y-283437914D01*
X387064000Y-283295057D01*
X387064000Y-282866485D01*
X387135428Y-282723628D01*
X387206857Y-282652200D01*
X387349714Y-282580771D01*
X387635428Y-282580771D01*
X387778285Y-282652200D01*
X388492571Y-283437914D02*
X388564000Y-283509342D01*
X388492571Y-283580771D01*
X388421142Y-283509342D01*
X388492571Y-283437914D01*
X388492571Y-283580771D01*
X388492571Y-282652200D02*
X388564000Y-282723628D01*
X388492571Y-282795057D01*
X388421142Y-282723628D01*
X388492571Y-282652200D01*
X388492571Y-282795057D01*
X391135428Y-283580771D02*
X390278285Y-283580771D01*
X390706857Y-283580771D02*
X390706857Y-282080771D01*
X390564000Y-282295057D01*
X390421142Y-282437914D01*
X390278285Y-282509342D01*
X392849714Y-282009342D02*
X391564000Y-283937914D01*
X394135428Y-283580771D02*
X393278285Y-283580771D01*
X393706857Y-283580771D02*
X393706857Y-282080771D01*
X393564000Y-282295057D01*
X393421142Y-282437914D01*
X393278285Y-282509342D01*
D10*
D11*
X299989000Y-274502200D02*
X407989000Y-274502200D01*
D10*
D13*
X301701380Y-275206961D02*
X302844238Y-275206961D01*
X302022809Y-277206961D02*
X302272809Y-275206961D01*
X303260904Y-277206961D02*
X303427571Y-275873628D01*
X303510904Y-275206961D02*
X303403761Y-275302200D01*
X303487095Y-275397438D01*
X303594238Y-275302200D01*
X303510904Y-275206961D01*
X303487095Y-275397438D01*
X304094238Y-275873628D02*
X304856142Y-275873628D01*
X304463285Y-275206961D02*
X304249000Y-276921247D01*
X304320428Y-277111723D01*
X304499000Y-277206961D01*
X304689476Y-277206961D01*
X305641857Y-277206961D02*
X305463285Y-277111723D01*
X305391857Y-276921247D01*
X305606142Y-275206961D01*
X307177571Y-277111723D02*
X306975190Y-277206961D01*
X306594238Y-277206961D01*
X306415666Y-277111723D01*
X306344238Y-276921247D01*
X306439476Y-276159342D01*
X306558523Y-275968866D01*
X306760904Y-275873628D01*
X307141857Y-275873628D01*
X307320428Y-275968866D01*
X307391857Y-276159342D01*
X307368047Y-276349819D01*
X306391857Y-276540295D01*
X308141857Y-277016485D02*
X308225190Y-277111723D01*
X308118047Y-277206961D01*
X308034714Y-277111723D01*
X308141857Y-277016485D01*
X308118047Y-277206961D01*
X308272809Y-275968866D02*
X308356142Y-276064104D01*
X308249000Y-276159342D01*
X308165666Y-276064104D01*
X308272809Y-275968866D01*
X308249000Y-276159342D01*
D10*
D11*
X301921142Y-272595057D02*
X301421142Y-272595057D01*
X301421142Y-273380771D02*
X301421142Y-271880771D01*
X302135428Y-271880771D01*
X302706857Y-273380771D02*
X302706857Y-272380771D01*
X302706857Y-271880771D02*
X302635428Y-271952200D01*
X302706857Y-272023628D01*
X302778285Y-271952200D01*
X302706857Y-271880771D01*
X302706857Y-272023628D01*
X303635428Y-273380771D02*
X303492571Y-273309342D01*
X303421142Y-273166485D01*
X303421142Y-271880771D01*
X304778285Y-273309342D02*
X304635428Y-273380771D01*
X304349714Y-273380771D01*
X304206857Y-273309342D01*
X304135428Y-273166485D01*
X304135428Y-272595057D01*
X304206857Y-272452200D01*
X304349714Y-272380771D01*
X304635428Y-272380771D01*
X304778285Y-272452200D01*
X304849714Y-272595057D01*
X304849714Y-272737914D01*
X304135428Y-272880771D01*
X305492571Y-273237914D02*
X305564000Y-273309342D01*
X305492571Y-273380771D01*
X305421142Y-273309342D01*
X305492571Y-273237914D01*
X305492571Y-273380771D01*
X305492571Y-272452200D02*
X305564000Y-272523628D01*
X305492571Y-272595057D01*
X305421142Y-272523628D01*
X305492571Y-272452200D01*
X305492571Y-272595057D01*
X307349714Y-272380771D02*
X307349714Y-273880771D01*
X307349714Y-272452200D02*
X307492571Y-272380771D01*
X307778285Y-272380771D01*
X307921142Y-272452200D01*
X307992571Y-272523628D01*
X308064000Y-272666485D01*
X308064000Y-273095057D01*
X307992571Y-273237914D01*
X307921142Y-273309342D01*
X307778285Y-273380771D01*
X307492571Y-273380771D01*
X307349714Y-273309342D01*
X308706857Y-273380771D02*
X308706857Y-271880771D01*
X309349714Y-273380771D02*
X309349714Y-272595057D01*
X309278285Y-272452200D01*
X309135428Y-272380771D01*
X308921142Y-272380771D01*
X308778285Y-272452200D01*
X308706857Y-272523628D01*
X310635428Y-273309342D02*
X310492571Y-273380771D01*
X310206857Y-273380771D01*
X310064000Y-273309342D01*
X309992571Y-273166485D01*
X309992571Y-272595057D01*
X310064000Y-272452200D01*
X310206857Y-272380771D01*
X310492571Y-272380771D01*
X310635428Y-272452200D01*
X310706857Y-272595057D01*
X310706857Y-272737914D01*
X309992571Y-272880771D01*
X311349714Y-273380771D02*
X311349714Y-272380771D01*
X311349714Y-272666485D02*
X311421142Y-272523628D01*
X311492571Y-272452200D01*
X311635428Y-272380771D01*
X311778285Y-272380771D01*
X312492571Y-273380771D02*
X312349714Y-273309342D01*
X312278285Y-273237914D01*
X312206857Y-273095057D01*
X312206857Y-272666485D01*
X312278285Y-272523628D01*
X312349714Y-272452200D01*
X312492571Y-272380771D01*
X312706857Y-272380771D01*
X312849714Y-272452200D01*
X312921142Y-272523628D01*
X312992571Y-272666485D01*
X312992571Y-273095057D01*
X312921142Y-273237914D01*
X312849714Y-273309342D01*
X312706857Y-273380771D01*
X312492571Y-273380771D01*
X313635428Y-273380771D02*
X313635428Y-272380771D01*
X313635428Y-272523628D02*
X313706857Y-272452200D01*
X313849714Y-272380771D01*
X314064000Y-272380771D01*
X314206857Y-272452200D01*
X314278285Y-272595057D01*
X314278285Y-273380771D01*
X314278285Y-272595057D02*
X314349714Y-272452200D01*
X314492571Y-272380771D01*
X314706857Y-272380771D01*
X314849714Y-272452200D01*
X314921142Y-272595057D01*
X314921142Y-273380771D01*
X315849714Y-273380771D02*
X315706857Y-273309342D01*
X315635428Y-273237914D01*
X315564000Y-273095057D01*
X315564000Y-272666485D01*
X315635428Y-272523628D01*
X315706857Y-272452200D01*
X315849714Y-272380771D01*
X316064000Y-272380771D01*
X316206857Y-272452200D01*
X316278285Y-272523628D01*
X316349714Y-272666485D01*
X316349714Y-273095057D01*
X316278285Y-273237914D01*
X316206857Y-273309342D01*
X316064000Y-273380771D01*
X315849714Y-273380771D01*
X316992571Y-272380771D02*
X316992571Y-273380771D01*
X316992571Y-272523628D02*
X317064000Y-272452200D01*
X317206857Y-272380771D01*
X317421142Y-272380771D01*
X317564000Y-272452200D01*
X317635428Y-272595057D01*
X317635428Y-273380771D01*
X318921142Y-273309342D02*
X318778285Y-273380771D01*
X318492571Y-273380771D01*
X318349714Y-273309342D01*
X318278285Y-273166485D01*
X318278285Y-272595057D01*
X318349714Y-272452200D01*
X318492571Y-272380771D01*
X318778285Y-272380771D01*
X318921142Y-272452200D01*
X318992571Y-272595057D01*
X318992571Y-272737914D01*
X318278285Y-272880771D01*
X319635428Y-273237914D02*
X319706857Y-273309342D01*
X319635428Y-273380771D01*
X319564000Y-273309342D01*
X319635428Y-273237914D01*
X319635428Y-273380771D01*
X320349714Y-273380771D02*
X320349714Y-271880771D01*
X320492571Y-272809342D02*
X320921142Y-273380771D01*
X320921142Y-272380771D02*
X320349714Y-272952200D01*
X321564000Y-273380771D02*
X321564000Y-272380771D01*
X321564000Y-271880771D02*
X321492571Y-271952200D01*
X321564000Y-272023628D01*
X321635428Y-271952200D01*
X321564000Y-271880771D01*
X321564000Y-272023628D01*
X322921142Y-273309342D02*
X322778285Y-273380771D01*
X322492571Y-273380771D01*
X322349714Y-273309342D01*
X322278285Y-273237914D01*
X322206857Y-273095057D01*
X322206857Y-272666485D01*
X322278285Y-272523628D01*
X322349714Y-272452200D01*
X322492571Y-272380771D01*
X322778285Y-272380771D01*
X322921142Y-272452200D01*
X324206857Y-273380771D02*
X324206857Y-272595057D01*
X324135428Y-272452200D01*
X323992571Y-272380771D01*
X323706857Y-272380771D01*
X323564000Y-272452200D01*
X324206857Y-273309342D02*
X324064000Y-273380771D01*
X323706857Y-273380771D01*
X323564000Y-273309342D01*
X323492571Y-273166485D01*
X323492571Y-273023628D01*
X323564000Y-272880771D01*
X323706857Y-272809342D01*
X324064000Y-272809342D01*
X324206857Y-272737914D01*
X325564000Y-273380771D02*
X325564000Y-271880771D01*
X325564000Y-273309342D02*
X325421142Y-273380771D01*
X325135428Y-273380771D01*
X324992571Y-273309342D01*
X324921142Y-273237914D01*
X324849714Y-273095057D01*
X324849714Y-272666485D01*
X324921142Y-272523628D01*
X324992571Y-272452200D01*
X325135428Y-272380771D01*
X325421142Y-272380771D01*
X325564000Y-272452200D01*
X325921142Y-273523628D02*
X327064000Y-273523628D01*
X327421142Y-272380771D02*
X327421142Y-273880771D01*
X327421142Y-272452200D02*
X327564000Y-272380771D01*
X327849714Y-272380771D01*
X327992571Y-272452200D01*
X328064000Y-272523628D01*
X328135428Y-272666485D01*
X328135428Y-273095057D01*
X328064000Y-273237914D01*
X327992571Y-273309342D01*
X327849714Y-273380771D01*
X327564000Y-273380771D01*
X327421142Y-273309342D01*
X329421142Y-273309342D02*
X329278285Y-273380771D01*
X328992571Y-273380771D01*
X328849714Y-273309342D01*
X328778285Y-273237914D01*
X328706857Y-273095057D01*
X328706857Y-272666485D01*
X328778285Y-272523628D01*
X328849714Y-272452200D01*
X328992571Y-272380771D01*
X329278285Y-272380771D01*
X329421142Y-272452200D01*
X330064000Y-273380771D02*
X330064000Y-271880771D01*
X330064000Y-272452200D02*
X330206857Y-272380771D01*
X330492571Y-272380771D01*
X330635428Y-272452200D01*
X330706857Y-272523628D01*
X330778285Y-272666485D01*
X330778285Y-273095057D01*
X330706857Y-273237914D01*
X330635428Y-273309342D01*
X330492571Y-273380771D01*
X330206857Y-273380771D01*
X330064000Y-273309342D01*
D10*
D11*
X299989000Y-268502200D02*
X407989000Y-268502200D01*
D10*
D11*
X301349714Y-270609342D02*
X301564000Y-270680771D01*
X301921142Y-270680771D01*
X302064000Y-270609342D01*
X302135428Y-270537914D01*
X302206857Y-270395057D01*
X302206857Y-270252200D01*
X302135428Y-270109342D01*
X302064000Y-270037914D01*
X301921142Y-269966485D01*
X301635428Y-269895057D01*
X301492571Y-269823628D01*
X301421142Y-269752200D01*
X301349714Y-269609342D01*
X301349714Y-269466485D01*
X301421142Y-269323628D01*
X301492571Y-269252200D01*
X301635428Y-269180771D01*
X301992571Y-269180771D01*
X302206857Y-269252200D01*
X302849714Y-270680771D02*
X302849714Y-269180771D01*
X303492571Y-270680771D02*
X303492571Y-269895057D01*
X303421142Y-269752200D01*
X303278285Y-269680771D01*
X303064000Y-269680771D01*
X302921142Y-269752200D01*
X302849714Y-269823628D01*
X304778285Y-270609342D02*
X304635428Y-270680771D01*
X304349714Y-270680771D01*
X304206857Y-270609342D01*
X304135428Y-270466485D01*
X304135428Y-269895057D01*
X304206857Y-269752200D01*
X304349714Y-269680771D01*
X304635428Y-269680771D01*
X304778285Y-269752200D01*
X304849714Y-269895057D01*
X304849714Y-270037914D01*
X304135428Y-270180771D01*
X306064000Y-270609342D02*
X305921142Y-270680771D01*
X305635428Y-270680771D01*
X305492571Y-270609342D01*
X305421142Y-270466485D01*
X305421142Y-269895057D01*
X305492571Y-269752200D01*
X305635428Y-269680771D01*
X305921142Y-269680771D01*
X306064000Y-269752200D01*
X306135428Y-269895057D01*
X306135428Y-270037914D01*
X305421142Y-270180771D01*
X306564000Y-269680771D02*
X307135428Y-269680771D01*
X306778285Y-269180771D02*
X306778285Y-270466485D01*
X306849714Y-270609342D01*
X306992571Y-270680771D01*
X307135428Y-270680771D01*
X307635428Y-270537914D02*
X307706857Y-270609342D01*
X307635428Y-270680771D01*
X307564000Y-270609342D01*
X307635428Y-270537914D01*
X307635428Y-270680771D01*
X307635428Y-269752200D02*
X307706857Y-269823628D01*
X307635428Y-269895057D01*
X307564000Y-269823628D01*
X307635428Y-269752200D01*
X307635428Y-269895057D01*
D10*
D11*
X319989000Y-278502200D02*
X319989000Y-281502200D01*
D10*
D11*
X383989000Y-278502200D02*
X383989000Y-285002200D01*
D14*
X47600000Y-52200000D02*
X47600000Y-97200000D01*
X38300000Y-52200000D02*
X47600000Y-52200000D01*
X38300000Y-97200000D02*
X38300000Y-52200000D01*
X47600000Y-97200000D02*
X38300000Y-97200000D01*
X42304000Y-61880000D02*
X41404000Y-61880000D01*
X42304000Y-71070000D02*
X41404000Y-71070000D01*
X38704000Y-61880000D02*
X35974000Y-61880000D01*
X38704000Y-71070000D02*
X35974000Y-71070000D01*
X45384000Y-62000000D02*
X45384000Y-70950000D01*
X35974000Y-61880000D02*
X35974000Y-71070000D01*
X42901250Y-117150000D02*
X42901250Y-116150000D01*
X42401250Y-116650000D02*
X43401250Y-116650000D01*
X38801250Y-123850000D02*
X39101250Y-124150000D01*
X38801250Y-124450000D02*
X38801250Y-123850000D01*
X39101250Y-124150000D02*
X38801250Y-124450000D01*
X45901250Y-116650000D02*
G75*
G03*
X45901250Y-116650000I-3000000J0D01*
G01*
D11*
X42404761Y-99452380D02*
X42071428Y-98976190D01*
X41833333Y-99452380D02*
X41833333Y-98452380D01*
X42214285Y-98452380D01*
X42309523Y-98500000D01*
X42357142Y-98547619D01*
X42404761Y-98642857D01*
X42404761Y-98785714D01*
X42357142Y-98880952D01*
X42309523Y-98928571D01*
X42214285Y-98976190D01*
X41833333Y-98976190D01*
X42690476Y-98452380D02*
X43023809Y-99452380D01*
X43357142Y-98452380D01*
X44214285Y-99452380D02*
X43642857Y-99452380D01*
X43928571Y-99452380D02*
X43928571Y-98452380D01*
X43833333Y-98595238D01*
X43738095Y-98690476D01*
X43642857Y-98738095D01*
X45956380Y-66808333D02*
X46670666Y-66808333D01*
X46813523Y-66855952D01*
X46908761Y-66951190D01*
X46956380Y-67094047D01*
X46956380Y-67189285D01*
X46956380Y-65808333D02*
X46956380Y-66379761D01*
X46956380Y-66094047D02*
X45956380Y-66094047D01*
X46099238Y-66189285D01*
X46194476Y-66284523D01*
X46242095Y-66379761D01*
X42309523Y-126928571D02*
X42642857Y-126928571D01*
X42785714Y-127452380D02*
X42309523Y-127452380D01*
X42309523Y-126452380D01*
X42785714Y-126452380D01*
X43738095Y-127452380D02*
X43166666Y-127452380D01*
X43452380Y-127452380D02*
X43452380Y-126452380D01*
X43357142Y-126595238D01*
X43261904Y-126690476D01*
X43166666Y-126738095D01*
M02*
